<svg xmlns="http://www.w3.org/2000/svg" width="563" height="163" version="1.0" viewBox="0 0 749.43 216.82" shape-rendering="geometricPrecision" text-rendering="geometricPrecision" image-rendering="optimizeQuality" fill-rule="evenodd" clip-rule="evenodd"><defs><style>.fil2{fill:#020202}.fil1{fill:#030303}.fil3{fill:#050504}.fil5{fill:#080808}.fil8{fill:#0d0d0d}</style></defs><g id="Слой_x0020_1"><g id="_3062870650256"><path d="M28.08 112.92c5.26-6.44 17.33-1.79 25.41 9.7 8.08 11.48 12.06 26.78 6.8 33.22-5.26 6.44-17.72 1.68-25.8-9.81-8.08-11.48-11.67-26.67-6.41-33.11z" fill="#e31e24"/><path class="fil1" d="M159.54 22.37c4.32 5.32 8.55 11.21 12.82 16.93 2.11 2.81 3.75 4.91 7.52 2.74 6.15-3.52 13.03-7.26 18.81-11.07 4.18-2.76 3.49-3.13.47-7.72-3.54-5.38-8.3-11.34-12.39-16.47-2.59-3.28-4.59-4.2-8.2-2-4.94 3-9.93 6.47-14.76 9.64-4.27 2.75-7.61 3.84-4.27 7.95z"/><path class="fil2" d="M184.89 87.06c0-1.73-.55-2.16-1.27-3.46l-8.06-16.68c-4.09-8.18-3.59-7.2-18.8 2.01l-9.77 5.49c-2.05 1.05-3.45 1.89-2.64 4.25.51 1.52 1.86 3.12 2.58 4.78.97 2.25 1.75 3.13 2.63 5.27l4.82 10.46c1.88 3.08 5.5.13 7.29-.6l13.71-5.77c3.39-1.71 9.51-3.37 9.51-5.75z"/><path class="fil1" d="M122.27 46.02c.42 1.56 10.54 14.46 12.41 17.06 1.16 1.62 1.64 3.5 3.55 3.82 2.02.34 3.32-1.18 4.78-2.25 1.38-1 1.96-1.08 3.31-1.95l16.83-10.53c3.7-2.64-1.11-6.97-1.59-7.66l-10.11-13.63c-4.25-4.21-6.49-2.93-10.83.34l-12.44 9.66c-1.84 1.51-4.73 3.38-5.91 5.14zM96.49 20.76c0 1.47.59 2.35 1.64 3.22L109 32.99c2.63 2.6 4.16 5.34 7.32 2.34 4.72-4.93 11-11.92 16.35-15.78 3.63-2.62 4.88-4.07.3-8.53l-7.86-7.3c-5.57-4.53-8.1-4.74-11.15-1.63L99.44 16.87c-1.15 1.24-2.95 2.62-2.95 3.89z"/><path class="fil2" d="M114.91 116.53c2.12 0 11.88-3.89 15.02-4.98l10.48-4.25c3-.85 2.91-.65 2.91-3.93l-8.3-16.43c-.25-.48-.52-1.05-.71-1.39-2.4-4.23-3.97-1.54-10.39 2.11-5.28 3.24-11.36 6.45-16.76 9.55-3.77 2.27-.13 4.64 2.79 11.12.58 1.29.73 1.85 1.27 2.94.52 1.06.77 1.57 1.33 2.88.55 1.28.67 2.38 2.36 2.38z"/><path class="fil3" d="M89.65 75.49c0 1.99.4 2.74 1.25 3.65 3.39 3.64 4.76 6.84 7.54 10.13 1.53 1.8 3.31 2.76 5.75 1.28l20.04-13.64c4.56-2.62 2.69-3.63-.12-7.72-2.61-3.81-5.65-8.03-8.58-11.61-4.61-5.62-4.05-1.54-15.06 7.15l-2.73 2.53c-1.1 1.02-1.66 1.53-2.7 2.57-1.23 1.16-5.39 4.19-5.39 5.66z"/><path class="fil2" d="M117.54 126.53c0 4.43 1.18 2.75 2.33 9.24 2 11.32 2.66 7.25 19.73 5.98 2.22-.17 5.57-.65 7.88-1.07 7.11-1.32 6.34-2.24 5.39-7.91l-2.97-11.9c-1.88-4.21-6.23-3.64-10.1-2.08l-15.58 4.42c-2.24.86-6.68 1.1-6.68 3.32z"/><path d="M122.8 153.36c0 13.16-1.01 14.88 4.63 15.29 6.99.51 16.4 1.42 23.15 1.25 4.85-.11 5.05-.02 5.39-4.6.3-4.07-.02-8.7-.02-12.47 0-4.94-4.41-3.63-7.89-3.38-6.59.47-15.13 1.32-18.96 1.27-2.85-.04-6.3-.06-6.3 2.64z" fill="#010101"/><path class="fil3" d="M52.54 48.21c3.43 1.9 8.7 4.65 9.75 4.65 3.34 0 2.31-1.45 5.04-6.01 3.01-5.04 6.8-12.75 10.39-16.97 4.44-5.21 1.3-5.3-5.33-8.69-7.6-3.89-9.32-6.44-12.56-.07-2.95 5.81-5.56 12.7-8.21 18.75-2.21 5.67-3.55 5.86.92 8.34z"/><path class="fil1" d="M70.18 118.63c.16 1.94 1.35 4.28 2.2 5.69 4.11 6.82.4 5.2 10.36 3.19l13.54-4.35c9.39-2.36 5.66-4.26 3.43-9.85l-3.93-7.12c-2.15-2.39-1.81-1.25-7.71 1.92-1.3.7-1.63.97-2.94 1.79l-6.07 3.4c-1.17.59-.41.16-1.35.76l-7.53 4.57z"/><path class="fil5" d="M61.32 105.78c7.78 9.85 2.42 13.78 18.56 1.5l9.79-7.05c1.45-1.46 2.01-1.86-.84-5.51-1.29-1.66-3.92-5.4-5.4-7.3-1.46-1.89-1.77-1.94-3.25-1.94-4.75 3.33-14.54 15.47-17.55 18.18-.69.62-1.31 1.33-1.31 2.12z"/><path class="fil1" d="M149.06 215.24c6.5 1.3 15.69 1.03 21.94 1.28 3.3.12 5.26.12 6.85-1.83 2.49-3.05 6.71-7.75 8.09-10.82 0-1.21-.36-1.58-1.58-1.58h-21.61c-4.55 0-4.32-.88-7.63 1.89-1.99 1.67-4.8 4.16-6.78 6.27-2.37 2.52-2.84 4.08.72 4.79z"/><path class="fil2" d="M77.02 136.61c.82 1.95.99 3.29 1.6 5.11 1.34 3.98 3.96 2.23 9.95 2.72 6.15.51 14.32.9 20.55-.55.54-2.31.15-5.02-.76-7.66l-1.73-5.64c-.86-2.81-2.2-1.73-4.99-1.3l-18.49 2.84c-2.8.68-7.72.73-6.13 4.48z"/><path d="M50.71 94.96c0 3.06.72 2.47 3 4.36 1.52 1.26 3.6 5.48 6.55.97L70.63 85.4c3.69-4.72 6.48-5.69 2.26-9.47l-1.38-1.25c-8.82-7.51-7.45-9.15-15.01 6.59-1.05 2.19-5.79 12.16-5.79 13.69z" fill="#0a0a0a"/><path class="fil1" d="M110.79 203.72l22.53 8.04c2.34 0 4.92-2.52 6.46-4.06 9.54-9.6 3.25-6.84-9.04-10.71-1.02-.32-2.29-.94-3.46-1.28-10.94-3.23-11.41-4.6-13.66-2.15-1.44 1.56-3.25 3.39-4.56 4.94-1.53 1.82-2.24 3.81 1.73 5.22zM79.81 150.4c-.9 4.97.09 7.52 5.35 9.03l25.54 6.03c.9-3.87.9-10.34 0-14.21-8.09-1.88-18.19-1.79-27.25-3.29-2.4-.39-3.25.26-3.64 2.44zM39.14 90.22c4.96 2.63 7.34 5.28 9.03 1.1l8.65-21.43c.68-1.7 1.45-2.83 1.45-4.27 0-1.96-9.63-6.45-11.76-6.45-2.7 0-2.32 4-2.97 6.51l-4.32 21.94c-.17.86-.08 1.74-.08 2.6z"/><path d="M13.88 48.12c0 2.01 1.2 1.85 2.21 1.36 3.02-1.45 5.82-2.91 8.78-4.48 1.16-.62 1.6-2.86 1.82-5.14.55-5.63 1.24-10.03 2.78-15.61 1.39-5.08 4.44-8.75.18-9.22-1.9-.21-6.84 2.82-8.77 3.78-2.18 1.38-3.69 4.09-4.72 7.39-2.2 7.03-2.28 16.73-2.28 21.92z" fill="#060606"/><path class="fil2" d="M77.55 167.04c0 2.7 3.59 3.7 5.55 4.97l3.35 1.91c1.16.61 2.4 1.38 3.73 2.07 2.37 1.23 13.47 6.84 14.73 6.84 2.9 0 5.04-7.53 4.79-10.27-.25-2.72-1.96-1.86-6.66-3.65-6.44-2.19-12.86-4.24-19.18-6.78-1.86-.75-3.81-1.32-4.42-.38-1.08 1.69-1.76 3.44-1.89 5.29z"/><path class="fil1" d="M29.5 88.51c4.11.89 5.56.83 6.43-.56.26-.41.48-.87.55-1.36l2.9-22.44c2.51-9.63-.08-8.13-9.19-8.13-1.13 0-1.96 1.75-2.11 4.14-.53 8.58-.45 17.17.32 25.77.14 1.5-.3 2.28 1.1 2.58zm41.73 87.48c0 1.81 9.27 8.46 11.13 9.91l9.15 6.64c4.71 3.23 4.83 2.16 8.68-.76 4.34-3.29 3.17-5.21-.81-7.11-2.12-1.02-2.75-1.34-4.49-2.35l-8.68-5c-6.35-3.86-9.46-7.7-12.21-5.46-.99.81-2.77 2.62-2.77 4.13zM19.67 91.8c1.92-.16 6.31-2.02 6.31-3.69 0-3.62-.79-5.9-1.02-8.97l-.57-9.95c-.01-8.42 2.04-15.68-6.84-10.03-3.21 2.03-3.73 2.09-3.25 6.39.63 5.66 2.73 21.25 5.37 26.25zM90.7 205.98c.43 1.58-.13.54.96 1.67l17.02 8.84c1.31.62 7.55.18 13.17.09 3.09-.05 2.12-2.52-3.28-4.82-8.8-3.74-17.12-8.94-18.4-8.94-.74 0-8.6 1.98-9.47 3.16z"/><path class="fil5" d="M64.46 182.76c3.06 3.76 13.68 16.38 17.3 16.38 3.2-.19 6.29.19 8.94-1.58-.25-3.05-6.12-6.01-11.16-10.41-9.83-8.56-8.06-10.11-14.62-10.11-4.86 0-2.2 3.59-.46 5.72z"/><path class="fil8" d="M4.94 73.91c0 2.6.12 4.28.31 5.45.34 2.01 5.37 15.25 6.13 16.85.67 1.4 1.35 2.5 1.98 2.95 1.63-.43 1.37-.4 2.44-1.76 3.33-4.22 1.49-5.58-.16-10.51-1.54-4.58-2.39-11.43-3.16-16.27-.34-2.12-1.32-6.8-4.24-3.51-.86.97-3.3 5.3-3.3 6.8z"/><path d="M53.74 182.43l8.98 12.59c.9 1 6.21 3.67 10.09 3.74 4 .07.6-3.05-.53-4.35-2.98-3.25-5.04-4.56-8.94-10-2.93-4.08-5.02-7.75-10.34-8.58-4.15-.65.1 5.3.74 6.6z" fill="#11110f"/><path d="M12.23 108.43l.62-3.18c.58-3-1.24-4.69-2.43-7.36l-4.1-9.58C1.78 75.75 1.36 80.02.19 89.84c-.66 4.15.44 3.2 2.56 8.35 1.66 2.98 5.02 10.38 7.72 11.99 1.74 1.03 1.45-.19 1.76-1.75zm27.43 63.35c0 2.73 4.06 11.6 7.48 14.62.45.39 7.15 5.37 8.31 5.37 3.81 0-.65-5.09-1.35-6.01-3.39-4.43-5.25-8.23-6.59-10.36-1.58-2.51-7.85-8.41-7.85-3.62z" fill="#0b0b0c"/><path d="M0 107.6c.79 6.7 5.48 12.11 10.82 16.98.91.84 2.01-.18 2.01-1.74l-.59-6.1c-.1-1.05-.53-1.9-1.67-3.22-4.02-2.85-6.3-7.44-7.81-10.27L.73 99.48 0 107.6z" fill="#101010"/><path d="M27.56 162.3c0 5.68 1.75 6.29 4.29 9.4 11.75 14.31 7.32 5.95 5.92-.66-.29-1.86-.23-2.12-.71-3.51-.62-1.82-5.59-8.38-7.39-8.38-1.55 0-2.11 1.64-2.11 3.15z" fill="#0f0f0f"/><path d="M15.46 140.21c2.36 0 2.46-1.44 1.96-3.01-.73-2.29-2.66-7.29-4.37-8.64-.67-.54-1.62-1.26-3.02-2.4-8.8-7.15-2.01 8.19.03 11.12 1.22 1.76 2.89 2.93 5.4 2.93z" fill="#0a0908"/><path class="fil8" d="M13.6 146.42c1.27 2.92 5.96 9.81 8.25 12.67.56.71 1.21 1.11 1.81.18.94-1.45 2.46-3.39 2.46-5.96-1.72-2.47-3.65-5.04-5.14-7.32-.85-1.31-2.82-2.07-3.74-1.67-1.02.45-4.16.91-3.64 2.1z"/><g fill-rule="nonzero"><path d="M212.86 163.62h-10.93v-39.15h-13.08v39.15h-10.92v-49.65h34.93v49.65zm18.14 0h-10.93v-49.65h18.07c4.68 0 8.28 1.57 10.83 4.69 2.53 3.13 3.8 7.02 3.8 11.69 0 4.61-1.27 8.47-3.8 11.57-2.55 3.1-6.15 4.65-10.83 4.65H231v17.05zm5.79-27.54c1.49 0 2.68-.52 3.58-1.56.9-1.05 1.35-2.46 1.35-4.25 0-1.78-.45-3.2-1.35-4.24-.9-1.04-2.09-1.56-3.58-1.56H231v11.61h5.79zm52.8 21.29c-3.55 4.76-8.32 7.14-14.3 7.14-5.97 0-10.74-2.38-14.29-7.14-3.55-4.77-5.33-10.95-5.33-18.54s1.78-13.77 5.33-18.53c3.55-4.76 8.32-7.15 14.29-7.15 5.98 0 10.75 2.39 14.3 7.15 3.55 4.76 5.32 10.94 5.32 18.53 0 7.59-1.77 13.77-5.32 18.54zm-14.3-3.5c2.7 0 4.8-1.4 6.31-4.21 1.5-2.8 2.26-6.41 2.26-10.83 0-4.46-.76-8.09-2.26-10.86-1.51-2.78-3.61-4.17-6.31-4.17-2.65 0-4.73 1.39-6.23 4.17-1.51 2.77-2.26 6.4-2.26 10.86 0 4.42.75 8.03 2.26 10.83 1.5 2.81 3.58 4.21 6.23 4.21zm52.06 9.75h-27.11v-49.65h27.11v10.5h-16.18v8.71h15.71v10.49h-15.71v9.45h16.18v10.5zm41.6 0h-12.88l-8.97-18.16-2.83 5.21v12.95h-10.92v-49.65h10.92v20.99l11.13-20.99h12.67l-14.09 23.22 14.97 26.43zm21.51 0h-10.93v-39.15h-9.64v-10.5h30.14v10.5h-9.57v39.15z" fill="#e31e24"/><path d="M421.81 164.51c-6.02 0-10.83-2.37-14.43-7.11-3.59-4.74-5.39-10.93-5.39-18.57 0-7.69 1.8-13.89 5.39-18.61 3.6-4.71 8.41-7.07 14.43-7.07 7.55 0 12.86 4.35 15.91 13.03l-8.96 4.24c-.59-2.03-1.49-3.65-2.7-4.84-1.21-1.19-2.63-1.78-4.25-1.78-2.7 0-4.82 1.39-6.37 4.17-1.55 2.77-2.33 6.4-2.33 10.86 0 4.47.78 8.09 2.33 10.87 1.55 2.78 3.67 4.17 6.37 4.17 1.66 0 3.1-.67 4.32-2.01 1.21-1.34 2.09-3.05 2.63-5.14l9.03 4.24c-3.1 9.04-8.43 13.55-15.98 13.55zm38.84-.89h-10.92v-39.15h-9.65v-10.5h30.14v10.5h-9.57v39.15zm25.42 0h-10.92v-49.65h18.06c4.68 0 8.29 1.57 10.83 4.69 2.54 3.13 3.81 7.02 3.81 11.69 0 4.61-1.27 8.47-3.81 11.57-2.54 3.1-6.15 4.65-10.83 4.65h-7.14v17.05zm5.8-27.54c1.48 0 2.67-.52 3.57-1.56.9-1.05 1.35-2.46 1.35-4.25 0-1.78-.45-3.2-1.35-4.24-.9-1.04-2.09-1.56-3.57-1.56h-5.8v11.61h5.8zm52.79 21.29c-3.55 4.76-8.32 7.14-14.29 7.14-5.98 0-10.75-2.38-14.3-7.14-3.55-4.77-5.32-10.95-5.32-18.54s1.77-13.77 5.32-18.53c3.55-4.76 8.32-7.15 14.3-7.15 5.97 0 10.74 2.39 14.29 7.15 3.55 4.76 5.33 10.94 5.33 18.53 0 7.59-1.78 13.77-5.33 18.54zm-14.29-3.5c2.69 0 4.79-1.4 6.3-4.21 1.51-2.8 2.26-6.41 2.26-10.83 0-4.46-.75-8.09-2.26-10.86-1.51-2.78-3.61-4.17-6.3-4.17-2.66 0-4.74 1.39-6.24 4.17-1.51 2.77-2.26 6.4-2.26 10.86 0 4.42.75 8.03 2.26 10.83 1.5 2.81 3.58 4.21 6.24 4.21zm35.33 9.75h-10.39v-49.65h10.93v26.2l12.88-26.2h11.05v49.65h-10.92v-27.47l-13.55 27.47zm17.19-57.84c-2.47 3.73-5.86 5.59-10.18 5.59-4.23 0-7.62-1.86-10.18-5.59l4.31-3.79c1.4 2.28 3.35 3.42 5.87 3.42 2.56 0 4.52-1.14 5.87-3.42l4.31 3.79zm32.43 58.73c-6.02 0-10.83-2.37-14.43-7.11-3.59-4.74-5.39-10.93-5.39-18.57 0-7.69 1.8-13.89 5.39-18.61 3.6-4.71 8.41-7.07 14.43-7.07 7.56 0 12.86 4.35 15.92 13.03l-8.97 4.24c-.59-2.03-1.49-3.65-2.7-4.84-1.21-1.19-2.63-1.78-4.25-1.78-2.69 0-4.82 1.39-6.37 4.17-1.55 2.77-2.32 6.4-2.32 10.86 0 4.47.77 8.09 2.32 10.87 1.55 2.78 3.68 4.17 6.37 4.17 1.67 0 3.11-.67 4.32-2.01 1.21-1.34 2.09-3.05 2.63-5.14l9.03 4.24c-3.1 9.04-8.42 13.55-15.98 13.55zm55.43-.89h-10.92v-20.25h-13.09v20.25h-10.92v-49.65h10.92v18.83h13.09v-18.83h10.92v49.65zm42.88 0h-11.8l-1.68-7.59H687.4l-1.68 7.59h-11.8l13.28-49.65h13.15l13.28 49.65zm-15.64-18.09l-4.18-19.05-4.25 19.05h8.43zm18.74-31.56h29.94v10.5h-19.01v6.99H735c4.59 0 8.14 1.53 10.66 4.58 2.52 3.05 3.77 6.86 3.77 11.43 0 4.56-1.25 8.39-3.77 11.5-2.52 3.1-6.07 4.65-10.66 4.65h-18.27v-49.65zm16.99 27.99h-6.06v11.16h6.06c1.4 0 2.52-.49 3.37-1.49.86-.99 1.29-2.35 1.29-4.09 0-1.74-.43-3.1-1.29-4.09-.85-1-1.97-1.49-3.37-1.49z"/></g></g></g></svg>