<svg xmlns="http://www.w3.org/2000/svg" width="474" height="246" version="1.0" viewBox="0 0 115.6 59.98" shape-rendering="geometricPrecision" text-rendering="geometricPrecision" image-rendering="optimizeQuality" fill-rule="evenodd" clip-rule="evenodd"><defs><style>.fil1{fill:#8a00b8}</style></defs><g id="Слой_x0020_1"><g id="_1561361813312"><path fill="#fff" d="M0 0h115.6v59.98H0z"/><path class="fil1" d="M83.49 48.7h3.13c-.11-.27-2.22-2.15-2.61-2.5l-9.91-8.9-3.24-.11c.18.46 11.28 10.29 12.63 11.51zm-17.05 0h2.61l-8.02-11.66h-.02c-.4.68-.84 1.21-1.25 1.85l6.68 9.81zm-23.98 0h2.6l-8-11.57c-.37.31-1.17 1.54-1.28 1.88l6.68 9.69zm4.85 0h1.44c1.06-.15 1.67-.42 2.41-1.25.54-.62 1.03-1.55 1.16-2.67l.02-7.63h-1.97l-.09 6.36c0 .75-.06 1.37-.23 1.86-.35 1.06-1.17 1.56-2.77 1.54l.03 1.79zm-18.33-.08v.08h2.67l4.56-6.69-2.38-.05-4.85 6.66zm24.03.08h2.62l4.57-6.74h-2.66l-4.53 6.74zm17.88 0h3.13l3.58-3.36h-3.18l-3.53 3.36zm9.02-8.23l3.01-.03 3.7-3.29-3.15.1-3.56 3.22zM38.1 18.08c1.44.63 3.31 1.24 4.84 1.8l14.8 5.42c.5.02 16.86-6.21 19.71-7.22l.39-5.18-14.97 3.82c-.83.21-4.56 1.25-5.12 1.24l-10.02-2.52c-1.32-.34-9.43-2.51-10.06-2.52l.43 5.16z"/><path class="fil1" d="M80.3 19.61l-10.28 4.38c-3.39 1.44-6.89 3.02-10.35 4.43l.01 5.74c.63-.18 11.56-5.97 12.53-6.47l6.18-3.23c2-1.12 4.4-2.11 6.24-3.29l1.21-10.45-4.23 1.04c-.74.19-.54.38-.63 1.23-.22 2.22-.44 4.39-.68 6.62zm-24.47 14.6l.02-5.79c-.82-.25-1.7-.71-2.5-1.05l-15.63-6.69c-.84-.36-1.78-.72-2.58-1.14l-.88-7.56c-.66-.3-1.56-.48-2.29-.66-.78-.2-1.62-.46-2.44-.6.32 3.25.85 6.49 1.21 9.75.08.72.03.7.62 1 6.78 3.43 13.59 7.15 20.39 10.64 1.32.67 2.73 1.48 4.08 2.1z"/></g></g></svg>