<svg xmlns="http://www.w3.org/2000/svg" width="474" height="246" version="1.0" viewBox="0 0 232.72 120.75" shape-rendering="geometricPrecision" text-rendering="geometricPrecision" image-rendering="optimizeQuality" fill-rule="evenodd" clip-rule="evenodd"><path fill="#fff" d="M0 0h232.72v120.75H0z"/><path d="M77.94 63.51c-5.01 1.28-13.26 2.78-14.58-4.99-1.25-7.28 5.29-8.78 7.89-6.99 1.17.81 1.64 1.67 1.69 3.49l-6.03.01c-.25-.01-.86-.02-1.09.02-2.01.33-.62 3.9-.27 4.85h15.06c.27-5.91-.34-9.58-4.35-12.94-4.79-4.01-16.01-3.2-19.73 3.87-3.85 7.33-1.05 18.58 11.09 19.9 2.21.25 8.65.11 10.31-.81l.01-6.41zM37.93 50.3c2.21 0 6.54-.64 6.9 1.56.49 3.1-3.41 2.62-5.66 2.63v5.29c2.66.02 7.05-.3 6.07 3.38-.67 2.55-4.54 1.99-7.33 1.99l.02-14.85zm10.3 6.45c1.61-1.54 3.59-2.12 3.26-5.79a6.504 6.504 0 00-3.65-5.26c-2.08-.99-14.13-1.14-17.01-.71l.06 25.47c2.74.3 7.01.05 9.91.05 3.08 0 6.18.11 8.51-1.25 1.89-1.1 3.54-3.73 3.18-6.94-.47-4.2-3-4.55-4.26-5.57zm111.48-5.89c3.71-.49 7.67.01 7.84 3.67.21 4.37-2.86 4.55-6.56 4.13l-.01 6.54c2.62 2.01 9.15 5.47 13.32 6.09v-6.3c-2.19-.25-4.67-1.11-6.09-2.22l2.12-.86c.57-.29 1.28-.83 1.72-1.17 1.17-.91 1.92-1.9 2.36-3.45 2.2-7.77-3-12.08-10.38-12.18-3.78-.05-7.62-.01-11.41 0v25.62l7.02-.01.07-19.86zm26.8-.05c5.02-.06 7.96 1.98 8.08 6.82.15 5.66-2.06 7.4-6.81 7.95l-.01 5.62c4.29.62 9.41-2.33 11.2-4.3 2.54-2.79 3.51-7.77 2.55-12.59-.45-2.25-1.43-4.03-2.69-5.13-5.75-4.97-11.29-4.06-19.4-4.07l.08 25.63 6.99-.06.01-19.87zm-62.2-5.86c-.88-.82-6.18-.57-7.39-.49-3.11.21-.27 4.28 1.06 8.78 2.2 7.42.43 10.37-2.44 15.73-2.61-1.38-4.96-6.91-5.81-9.93-.61-2.21-.92-4.51-1.12-6.95-.13-1.45.08-6.4-.39-7.37-.92-.59-5.88-.38-7.29-.18-1.16 6.46.36 14.17 2.75 19.2 2.53 5.31 3.9 8.07 8.13 11.52.53.43.95.84 1.62 1.15.6-.9 1.63-2 2.41-2.89 4.72-5.42 7.29-11.15 8.24-18.56.23-1.79 1.06-8.86.23-10.01zm7.71 25.26c.66-3.12 3.11-14.95 5-16.95.72.9 2.5 5.84 2.67 7.27l-4.26.01-1.18 5.36 6.94.07.71 4.25 6.99-.01c-.29-3.9-2.08-10.24-3.27-13.8-.69-2.07-1.49-4.2-2.38-6.11l-2.86-5.64h-6.48c-1.6.8-4.64 9.43-5.41 11.82-1.34 4.2-2.71 9.04-3.48 13.73h7.01zm-33.49-.63c-5.2-5.57-7.81-14.73-6.9-22.79.32-2.86.18-2.34-2.61-2.33-1.19.01-3.75-.24-4.69.23-.87 1.86-.68 8.15-.39 10.45.75 5.9 3.04 11.85 6.66 16.11 1.02 1.21 4.83 4.47 6.24 5.12 1.69-.87 3.92-3.8 5.15-5.55 1.79-2.55 3.32-3.89.65-6.6-.73.66-2.44 4-4.11 5.36z" fill="#922731"/><path d="M37.91 65.15c2.79 0 6.66.56 7.33-1.99.98-3.68-3.41-3.36-6.07-3.38v-5.29c2.25-.01 6.15.47 5.66-2.63-.36-2.2-4.69-1.56-6.9-1.56l-.02 14.85z" fill="#fcfcfd"/></svg>