<svg xmlns="http://www.w3.org/2000/svg" width="474" height="246" version="1.0" viewBox="0 0 232.72 120.75" shape-rendering="geometricPrecision" text-rendering="geometricPrecision" image-rendering="optimizeQuality" fill-rule="evenodd" clip-rule="evenodd"><path fill="#fff" d="M0 0h232.72v120.75H0z"/><path d="M78.54 29.48v20c0 1.71.75 2.73 1.94 3.19l57.58 14.9c1.84.48 2.9.23 2.9-1.85V43.84c0-3.64-2.46-3.51-6.18-4.47l-42.15-10.9c-1.36-.36-11.86-3.27-12.82-3.09-1.64.32-1.27 2.51-1.27 4.1z" fill="#fff"/><path d="M78.54 29.48c0-1.59-.37-3.78 1.27-4.1.96-.18 11.46 2.73 12.82 3.09l42.15 10.9c3.72.96 6.18.83 6.18 4.47v21.88c0 2.08-1.06 2.33-2.9 1.85l-57.58-14.9c-1.19-.46-1.94-1.48-1.94-3.19v-20zm.25-7.23c-1.21.26-1.88.82-2.37 1.63-.6.98-.53 2.31-.53 3.61 0 2.98-.19 23.03.16 24.19.7 2.28 2.1 2.82 4.61 3.45 2.14.54 4.22 1.13 6.38 1.69 4.31 1.11 8.61 2.19 12.87 3.39 4.23 1.18 8.54 2.25 12.76 3.35 4.3 1.13 8.53 2.32 12.85 3.4 4.27 1.06 8.54 2.18 12.78 3.37 1.01.28 2.26.72 3.34.33 2.52-.9 1.93-3.73 1.93-6.26l-.01-8.07c0-1.88.75-1.62 2.43-1.61 1.27 0 7.3.09 8.05-.05 1.11-.21 1.89-.95 2.31-1.68.65-1.12.48-2.21.48-3.62 0-2.02.11-23.33-.05-24.29-.17-1.09-.88-1.91-1.59-2.36-1.1-.7-2.17-.53-3.56-.53H94.94c-2.23 0-15.11-.16-16.15.06z" fill="#009de0"/><path d="M116.18 97.97l4.25.04.01-14.28 3.97 14.26 4.92.02 4-14.36.07 14.34 4.21.02V76.4h-6.56l-3.81 15.45c0-.02-.03-.1-.04-.08l-.32-.85c-.09-.34-.18-.63-.27-.96l-3.78-13.57-6.65.02v21.56zm24.39.05c2.37-.11 15.45.26 16.4-.09v-3.72l-12-.04V88.6l10.52-.01.01-3.82-10.53-.01-.02-4.46c.23-.13-.28-.04.37-.13l2.44.01c2.28-.01 6.81-.11 8.65.02l-.02-3.73-15.85-.03.03 21.58zM104.95 81.3l2.64 8.52-5.45-.04 2.81-8.48zM94.64 98l4.72.01c.25-.36 1.35-3.75 1.55-4.43l7.95-.02 1.41 4.45h4.89l-7.58-21.6-5.27-.01L94.64 98zm-4.11-7.4c-.6 2.81-2.95 4.89-6.39 3.82-4.89-1.52-5.15-12.23-.24-14.31 1.35-.57 3.27-.44 4.5.22 1.31.7 1.52 1.6 2.15 3.15h4.47c.16-2.13-1.69-4.84-3.5-6.05-5.41-3.6-15.98-1.72-15.77 9.95.22 12.4 11.25 12.86 15.92 9.33 1.33-1.01 3.16-3.6 3.37-6.12l-4.51.01z" fill="#19171c"/><path d="M140.57 98.02l-.03-21.58 15.85.03.02 3.73c-1.84-.13-6.37-.03-8.65-.02l-2.44-.01c-.65.09-.14 0-.37.13l11.48-.01c.15-.55.15-3.39 0-3.9l-15.9-.03c-.25.79-.08 9.27-.08 10.8l.12 10.86z" fill="#8f8e91"/></svg>