<svg xmlns="http://www.w3.org/2000/svg" width="474" height="246" version="1.0" viewBox="0 0 115.6 59.98" shape-rendering="geometricPrecision" text-rendering="geometricPrecision" image-rendering="optimizeQuality" fill-rule="evenodd" clip-rule="evenodd"><path fill="#fff" d="M0 0h115.6v59.98H0z"/><path d="M41.07 42.23v-3.29h1.09v-.67h-2.93v.67h1.09v3.29h.75zm4.37 0v-.67h-2.06v-1.08h1.85v-.66h-1.85v-.88h1.99v-.67h-2.73v3.96h2.8zm2.68-.82c-.14.14-.31.2-.51.2-.27 0-.49-.1-.65-.32-.17-.21-.25-.56-.25-1.06 0-.47.08-.82.25-1.02a.82.82 0 01.67-.32c.19 0 .36.06.5.18s.23.28.27.48l.74-.18c-.09-.32-.21-.56-.38-.73-.28-.29-.65-.43-1.1-.43-.51 0-.93.18-1.25.54-.31.37-.47.88-.47 1.53 0 .63.16 1.12.47 1.48.32.35.72.53 1.21.53.39 0 .72-.1.98-.31.25-.21.44-.53.55-.96l-.72-.25c-.07.29-.17.5-.31.64zm2.41.82V40.5h1.46v1.73h.74v-3.96h-.74v1.56h-1.46v-1.56h-.74v3.96h.74zm3.67 0v-2.58l1.48 2.58h.75v-3.96h-.69v2.64l-1.51-2.64h-.72v3.96h.69zm3.35-.47c.32.35.76.53 1.31.53.54 0 .97-.18 1.29-.54.33-.36.49-.86.49-1.49 0-.65-.17-1.15-.49-1.51-.33-.36-.76-.54-1.31-.54-.29 0-.56.05-.79.15-.17.08-.33.2-.48.36-.14.16-.25.34-.34.54-.11.27-.16.61-.16 1.02 0 .62.16 1.12.48 1.48zm.56-2.53c.19-.23.44-.34.75-.34.3 0 .55.11.73.33.19.23.28.56.28 1.02 0 .46-.1.8-.29 1.03a.89.89 0 01-.72.34c-.3 0-.55-.11-.74-.34-.19-.23-.29-.57-.29-1.02 0-.46.09-.8.28-1.02zm5.72 3v-.67h-1.85v-3.25h-.74v3.92h2.59zm.87-.47c.32.35.75.53 1.3.53.54 0 .98-.18 1.3-.54.32-.36.48-.86.48-1.49 0-.65-.16-1.15-.49-1.51-.32-.36-.76-.54-1.3-.54-.3 0-.56.05-.79.15-.18.08-.33.2-.48.36-.14.16-.26.34-.34.54-.11.27-.17.61-.17 1.02 0 .62.16 1.12.49 1.48zm.56-2.53c.18-.23.43-.34.74-.34s.55.11.74.33c.18.23.27.56.27 1.02 0 .46-.09.8-.28 1.03-.19.23-.43.34-.73.34s-.54-.11-.73-.34c-.2-.23-.29-.57-.29-1.02 0-.46.09-.8.28-1.02zm5.67 1.54v.5c-.11.1-.25.18-.4.24-.16.07-.32.1-.47.1-.32 0-.57-.11-.76-.35-.2-.23-.3-.59-.3-1.06 0-.43.1-.76.29-.98.19-.22.45-.33.77-.33.22 0 .4.06.54.17.15.11.24.26.3.46l.73-.15c-.07-.36-.23-.65-.49-.86-.26-.2-.62-.3-1.08-.3-.35 0-.64.06-.88.2-.31.17-.54.41-.7.73-.16.32-.24.69-.24 1.1 0 .38.07.73.21 1.05.15.32.36.57.65.74.28.18.62.26 1.01.26.3 0 .6-.06.89-.18.3-.12.52-.27.68-.43v-1.57h-1.6v.66h.85zm3.15 1.46v-1.66l1.35-2.3h-.86l-.85 1.57-.86-1.57h-.87l1.34 2.29v1.67h.75zm-41.89-8.07c-1.47.16-1.51-1.14-1.51-1.14.07-1 1.11-1.21 1.11-1.21.16-.07 3.65-.74 3.65-.74-.93 3.2-3.25 3.09-3.25 3.09zm7.27-9.55s-5.04-1.47-9.34.6c0 0-1.61.96-2.12 2.49l4.5.53s.82-1.36 2.22-1.33c0 0 1.77-.14 1.83.94 0 0 .06.41-.27.89 0 0-3.44.48-5.37.6 0 0-1.95.06-3.61 1.32 0 0-1.26.77-1.43 2.75 0 0-.14 2.34 2.16 3.02 0 0 1.38.49 3.18.07 0 0 .83.01 3.18-1.31l-.01 1.3h4.89s-.16-2.04.33-3.2l1.67-5.16s.81-2.65-1.81-3.51zm46.24 9.52c-1.47.15-1.51-1.15-1.51-1.15.07-1 1.11-1.21 1.11-1.21.16-.07 3.65-.73 3.65-.73-.93 3.19-3.25 3.09-3.25 3.09zm7.27-9.55s-5.04-1.48-9.34.59c0 0-1.61.97-2.12 2.49l4.5.53s.82-1.35 2.22-1.32c0 0 1.77-.14 1.83.94 0 0 .06.41-.27.88 0 0-3.44.48-5.37.61 0 0-1.95.06-3.62 1.31 0 0-1.25.77-1.43 2.75 0 0-.13 2.35 2.17 3.02 0 0 1.38.5 3.18.08 0 0 .82.01 3.18-1.32l-.01 1.3h4.89s-.16-2.03.33-3.19l1.67-5.16s.81-2.66-1.81-3.51zM49.15 36.66h4.92l2.34-6.71s.63-1.67 1.86-2.28c0 0 1.59-.56 1.72.79 0 0 .17.82-.67 3.04l-1.7 5.16 4.77-.09 3-8.62s.97-3.41-2.75-3.56c0 0-3.18-.34-5.01 1.72l2.16-6.1h-4.98l-5.66 16.65zm18.62-12.19h4.9l-2.41 6.97s-.59 1.57.74 1.92c0 0 1.09.21 2.3-1.53 0 0 .6-.68 1.32-2.91l1.7-4.45h4.9l-4.21 11.94h-4.67l.58-1.63s-1.99 1.9-4.67 1.88c0 0-1.39.19-2.48-.56 0 0-1.56-.92-.75-3.27l2.75-8.36z" fill="#2b2a29" fill-rule="nonzero"/><path d="M38.21 36.91l-.84 1.49s-2.26 1.23-5.19 1.53c0 0-3.35.46-5.5-.33 0 0-4.19-1.17-5.64-5.52 0 0-1.86-5.14 3.17-10.57 0 0 4.04-4.04 7.84-5.06 0 0 3.64-1.44 7.91-.37 0 0 4.33.97 6.73 5.94l.03.04 2.08-5.88 4.91.04s-3.26 9.87-3.8 11.12c0 0-1.06 3.72-4.32 5.19 0 0-2.11 1.22-5.77 1.31 0 0 2.07-.78 4.07-3.79 0 0 2.05-2.25 1.79-6.35 0 0 .04-3.33-4.38-5.46 0 0-5.8-2.8-12.64 2.23 0 0-4.56 3.47-5.03 7.47 0 0-1.03 4.28 2.49 6.86.02.02.04.03.06.05 3.59 2.57 7.97 1.78 12.03.06z" fill="#e70012" fill-rule="nonzero"/></svg>