<svg xmlns="http://www.w3.org/2000/svg" width="474" height="246" version="1.0" viewBox="0 0 17687.72 9177.47" shape-rendering="geometricPrecision" text-rendering="geometricPrecision" image-rendering="optimizeQuality" fill-rule="evenodd" clip-rule="evenodd"><defs><style>.fil1{fill:#777573}.fil2{fill:#d80b17}</style></defs><g id="Слой_x0020_1"><g id="_3062409108704"><path fill="#fff" d="M-.02-.01h17687.75v9177.49H-.02z"/><path class="fil1" d="M9591.22 4758.13c-242.02-308.45-45.07-790.12 398.59-794.84h901.61l-80.67 215.87h-728.37c-121.02 2.39-187.48 147.13-121.02 234.93 113.87 168.42 303.69 289.44 424.7 462.67 260.99 341.65-2.38 790.07-391.49 790.07h-991.75l80.67-215.92h782.97c121.01-2.34 187.43-147.08 123.35-232.5-99.62-161.32-275.19-313.21-398.59-460.28z"/><path class="fil2" d="M4257.53 5664.45h-524.36l642.99-1703.54h524.32l-642.95 1703.54z"/><path class="fil1" d="M8680.14 5664.45H8186.6l643-1703.54h493.53l-642.99 1703.54zm2403.47 0h-495.88l645.38-1703.54h493.49l-642.99 1703.54zm1679.86-1542.22c-182.71 4.76-334.55 106.77-401.01 272.85l-327.41 868.4c-9.48 21.35-11.86 42.74-11.86 66.46 0 92.53 73.56 168.42 168.46 175.57h47.46c182.66-4.76 334.55-106.77 400.96-272.86l325.07-868.39c9.49-21.35 11.87-42.69 11.87-66.46 0-92.53-73.56-168.43-166.09-175.57h-47.45zm-934.86 355.9c173.23-355.9 533.85-543.33 870.78-531.47h306.06c258.61 11.87 415.22 220.64 429.46 391.49 2.38 40.35 2.38 80.66-2.38 111.53-4.72 18.97-9.48 37.93-11.86 56.94-54.56 218.25-135.22 441.32-242.03 642.99-173.19 353.52-536.19 543.33-870.74 531.47h-308.44c-258.61-11.87-415.21-220.64-429.46-391.49-2.38-40.35-2.38-80.66 2.38-111.49 4.77-19.01 9.48-37.97 14.25-56.98 54.55-220.64 135.26-443.7 241.98-642.99z"/><path class="fil2" d="M2646.51 4618.15h623.99l246.75-654.86h524.36l-605.02 1599.15v2.39c-23.73 59.31-83.04 102-151.84 102h-408.12l308.45-813.8h-626.37l-308.44 813.8H1725.9l643-1703.54h524.36l-246.75 654.86zm0 0zm2894.63-16.63l854.16-640.61h391.48l-873.16 654.86 555.19 1048.68h-446.04 4.77c-68.85 4.76-130.5-33.21-161.37-90.14v-2.38l-348.75-657.2-130.5 97.24-249.13 652.48h-524.36l642.95-1703.54h524.36l-239.6 640.61zm0 0z"/><path class="fil1" d="M7536.5 5132.99l804.37-1172.08h289.43L7508.06 5593.27c-28.49 42.73-78.33 71.18-132.88 71.18H7085.7l-137.6-1703.54h493.5l94.9 1172.08zm0 0zm6418.01-621.65l-2.38-21.35-446.04 1174.46h-253.89l645.38-1703.54h322.68l465.05 1150.73 436.56-1150.73h253.85l-645.34 1703.54h-232.54c-64.04-2.34-118.63-42.69-144.7-99.62l-398.63-1053.49zm0 0zm1743.9-816.19v-80.66h68.79c28.49 0 59.36 4.77 59.36 37.97 0 47.46-47.45 40.31-83.04 40.31l-45.11 2.38zm0 28.49h52.21l68.8 109.15h35.59l-73.56-109.15c42.73-2.38 75.94-21.39 75.94-68.79 0-45.12-21.34-68.85-85.42-68.85h-104.39v246.79h30.83v-109.15zm49.83 168.47c-104.39 0-182.71-75.94-182.71-182.71 0-104.39 75.94-180.33 182.71-180.33 104.39 0 180.33 75.94 180.33 180.33 0 109.15-75.94 182.71-180.33 182.71zm0 35.59c118.63 0 213.54-97.29 213.54-215.92 0-118.63-97.29-215.92-213.54-215.92-118.63 0-215.92 97.29-215.92 215.92 0 118.63 97.29 215.92 215.92 215.92z"/></g></g></svg>