<svg xmlns="http://www.w3.org/2000/svg" width="474" height="246" version="1.0" viewBox="0 0 226.75 117.65" shape-rendering="geometricPrecision" text-rendering="geometricPrecision" image-rendering="optimizeQuality" fill-rule="evenodd" clip-rule="evenodd"><defs><style>.fil1{fill:#716f6d}</style></defs><g id="Слой_x0020_1"><g id="_3062724479920"><path fill="#fff" d="M0 0h226.75v117.65H0z"/><path class="fil1" d="M83.76 73.85h4.76l2.26-9.65c.49-2.28 2.17-7.9 2.21-9.7.98.72 2.41 8.18 2.74 9.47.37 1.49.78 3.15 1.19 4.75.34 1.33 1 3.6 1.13 5.13h4.76l7.48-26.16c.31-1.01.73-3.02 1.15-3.9h-5.95c-.12 1.48-.85 3.59-1.16 5.09-.35 1.64-.84 3.54-1.32 5.22-.41 1.41-1.88 9.19-2.88 9.93-.03-1.53-4.31-18.32-4.76-20.24H91.2l-5.06 20.53-5.06-20.53h-5.95c1.89 8.09 6.59 21.29 8.63 30.06z"/><path d="M40.61 73.85h5.65v-12.5h10.72v12.5h5.65V43.79h-5.65v12.2H46.26v-12.2h-5.65v30.06z" fill="#cf051d"/><path d="M120.07 69.09c-1.73 0-3.36-.81-4.4-1.85-3.12-3.14-2.98-11.55 5-11.55 7.41 0 7.64 13.4-.6 13.4zm-11.6-7.74c0 3.86.32 6.33 3.18 9.31 2.9 3 7.32 4.08 11.54 2.44 1.4-.55 2.06-1.22 3.13-1.93v2.68h5.06V51.53h-5.06v2.08c-1.62-1.09-3.14-2.98-7.14-2.98-5.49 0-10.71 5.19-10.71 10.72z" fill="#71706d"/><path d="M166.8 73.85h5.36v-12.5c0-4.84 2.13-5.66 5.06-5.66 2.6 0 3.57 3.21 3.57 5.95v12.21h5.35v-13.1c0-3.14-.78-5.34-2.07-7.15-.61-.86-1.6-1.54-2.56-2.21-1.7-1.18-3.08-1.05-5.19-1.05-1.94 0-2.98.99-4.16 1.78v-8.33h-5.36v30.06z" fill="#71706e"/><path class="fil1" d="M143.29 61.05v2.08c0 11.76 17.68 14.81 21.9 3.98.64-1.63.59-1.3-4.34-1.3-1.97 0-2.8 3.28-5.66 3.28-8.31 0-9.22-13.4 0-13.4 2.44 0 3.62 1.37 4.47 2.98h5.95c-.56-2.39-1.94-4.22-3.69-5.54-8.82-6.67-18.63 1.27-18.63 7.92z"/><path d="M134.95 51.53h-2.38v4.76h2.38v17.56h5.36V56.29h2.98v-4.76h-2.98v-7.74h-5.36v7.74z" fill="#726f6d"/><path d="M66.5 52.12v21.73h5.66V51.23h-4.77c-.68 0-.89.21-.89.89zm0-3.27h5.66v-5.06H66.5v5.06z" fill="#ce051c"/></g></g></svg>