<svg xmlns="http://www.w3.org/2000/svg" width="474" height="246" version="1.0" viewBox="0 0 226.75 117.65" shape-rendering="geometricPrecision" text-rendering="geometricPrecision" image-rendering="optimizeQuality" fill-rule="evenodd" clip-rule="evenodd"><path fill="#fff" d="M0 0h226.75v117.65H0z"/><path fill="#3131e0" d="M30.33 32.3h53.05v53.05H30.33z"/><path d="M97.09 84.56V50.95h9.31l6.34 11.04c1.03 1.8 2.01 3.58 2.94 5.34.93 1.76 1.81 3.51 2.63 5.22-.13-2.54-.21-4.91-.28-7.13-.06-2.22-.09-4.18-.09-5.87v-8.6h8.32v33.61h-9.29l-6.6-11.36c-.78-1.34-1.62-2.84-2.53-4.51-.92-1.67-1.89-3.47-2.9-5.4.16 2.2.29 4.23.36 6.12.07 1.88.11 3.56.11 5.02v10.13h-8.32zm35.35-27.06v-6.55h8.08v6.55h-8.08zm0 27.06V59.74h8.08v24.82h-8.08zm36.78-9.21c-.41 3.15-1.68 5.61-3.79 7.36-2.13 1.76-4.9 2.64-8.32 2.64-3.69 0-6.66-1.18-8.92-3.55-2.25-2.36-3.37-5.49-3.37-9.39 0-4.2 1.14-7.51 3.42-9.93 2.28-2.42 5.38-3.63 9.3-3.63 3.41 0 6.15.86 8.23 2.57 2.07 1.71 3.24 4.08 3.5 7.11h-8.18c-.23-1.16-.65-2.02-1.26-2.6-.6-.57-1.39-.86-2.35-.86-1.4 0-2.46.6-3.19 1.81-.74 1.19-1.1 2.96-1.1 5.29 0 2.28.34 3.98 1.03 5.1.7 1.12 1.76 1.68 3.17 1.68 1.06 0 1.91-.3 2.54-.9.63-.59 1.07-1.49 1.3-2.7h7.99zm10.72-5.84l9.24-.03c-.03-1.58-.45-2.83-1.27-3.73-.81-.89-1.92-1.34-3.34-1.34-1.34 0-2.4.44-3.21 1.32-.8.88-1.27 2.14-1.42 3.78zm8.83 7.24h7.81c-.74 2.72-2.17 4.83-4.3 6.32-2.14 1.49-4.79 2.24-7.96 2.24-3.85 0-6.88-1.17-9.12-3.51-2.23-2.34-3.36-5.51-3.36-9.55 0-4.11 1.13-7.36 3.38-9.76 2.26-2.39 5.29-3.59 9.1-3.59 3.94 0 7.04 1.21 9.29 3.65 2.25 2.44 3.38 5.8 3.38 10.1 0 .39 0 .7-.01.9-.01.2-.02.38-.04.54h-16.78c0 1.74.38 3.08 1.13 3.99.76.92 1.86 1.38 3.33 1.38 1.07 0 1.97-.22 2.67-.68.7-.45 1.19-1.13 1.48-2.03z" fill="#3131e0" fill-rule="nonzero"/><path d="M49.03 79V68.15h3.01l2.04 3.57c.34.58.66 1.15.96 1.72.29.57.58 1.13.84 1.69-.04-.82-.07-1.59-.09-2.31-.02-.71-.03-1.34-.03-1.89v-2.78h2.69V79h-3l-2.13-3.66c-.25-.44-.52-.92-.82-1.46-.29-.54-.61-1.12-.93-1.74.05.71.09 1.36.11 1.97.03.61.04 1.15.04 1.62V79h-2.69zm11.42-8.73v-2.12h2.61v2.12h-2.61zm0 8.73v-8.01h2.61V79h-2.61zm11.87-2.97c-.13 1.02-.54 1.81-1.22 2.38-.69.57-1.58.85-2.69.85-1.19 0-2.15-.38-2.88-1.15-.72-.76-1.09-1.77-1.09-3.03 0-1.36.37-2.43 1.11-3.21.74-.78 1.74-1.17 3-1.17 1.1 0 1.99.28 2.66.83.67.55 1.04 1.32 1.13 2.3H69.7c-.08-.38-.21-.65-.41-.84-.2-.19-.45-.28-.76-.28-.45 0-.79.19-1.03.58-.24.39-.35.96-.35 1.71 0 .74.11 1.29.33 1.65.22.36.57.54 1.02.54.35 0 .62-.09.82-.29.21-.19.35-.48.42-.87h2.58zm3.46-1.89h2.99c-.01-.52-.15-.92-.41-1.21-.26-.29-.62-.43-1.08-.43-.43 0-.78.14-1.04.42-.26.29-.41.7-.46 1.22zm2.85 2.34h2.52c-.23.88-.69 1.56-1.38 2.04s-1.55.72-2.57.72c-1.24 0-2.22-.37-2.95-1.13-.72-.75-1.08-1.78-1.08-3.08 0-1.33.36-2.38 1.09-3.15.73-.77 1.71-1.16 2.94-1.16 1.27 0 2.27.39 3 1.18.72.78 1.09 1.87 1.09 3.26v.29c-.01.06-.01.12-.02.17h-5.41c0 .57.12 1 .36 1.29.24.3.6.45 1.07.45.35 0 .64-.07.87-.22.22-.15.38-.37.47-.66z" fill="#fff" fill-rule="nonzero"/></svg>