<svg xmlns="http://www.w3.org/2000/svg" width="474" height="246" version="1.0" viewBox="0 0 17687.72 9177.47" shape-rendering="geometricPrecision" text-rendering="geometricPrecision" image-rendering="optimizeQuality" fill-rule="evenodd" clip-rule="evenodd"><defs><style>.fil1{fill:#084b7f}.fil4{fill:#e1222a}.fil3{fill:#e22328}.fil2{fill:#e22529}</style></defs><g id="Слой_x0020_1"><g id="_3062798935984"><path fill="#fff" d="M-.02-.01h17687.75v9177.49H-.02z"/><path class="fil1" d="M7165.44 4438.74l145.44 690.89-559.69.05c37.97-93.8 353.47-624.17 414.25-690.94zm-4821.9-152.85h909.28l-292.04 1663.63c411.91-7.67 516.25-259.93 583.46-633.12 31.97-177.59 138.79-920.3 187.96-1025.22 139.23-16.67 1107.51-5.2 1333.27-5.16 190.73 0 458.56-37.35 591.09 78.33 127.27 111.09 66.32 319.2-141.66 424.29-306.63 154.98-940.76-60.19-1200.79 131.6-145.71 107.52-174.86 221.13-216.44 451.47-23.55 130.76-98.39 465.88-93.01 576.53 50.67 1.1 421.34 16.23 454.42-16.32 77.04-96.27 77.35-615.38 156.38-758.93l551.66-3.22c47.67 131.24 311.09 670.34 386.86 779.22l754-.7 200.74-349.86c11.69-20.42 23.2-42.69 37.27-62.23 41.41-57.5 7.32-26.5 52.74-49.08l799.96-.13 92.7 458.12c211.2 22.18 3077.25 3.22 3557.16 3.4 321.41.13 643.04 10.84 869.23-323.71 183.55-271.53 186.77-667.34-109.9-812.12-382.8-186.9-1250.88 122.16-1214.32-289.7 26.41-297.51 536.4-236.96 671.61-236.96 401.37 0 804.28 3.4 1205.47-.75l-290.41 1662.09c544.12 15.57 552.85-491.91 609.17-801.98 73.69-405.64 146.28-820.73 216.67-1231.44-640.92 4.45-1283.13.53-1924.18.62-318.68.09-592.55-3.31-816.36 157.97-155.32 111.93-352.68 362.33-268.62 669.41 32.55 118.85 115.02 213.05 200.09 265.53 357.61 220.86 1088.02-60.68 1230.69 219.01 69.68 136.63-45.47 264.83-130.85 310.96-120.53 65.18-302.01 42.25-448.29 42.25-323.35 0-646.83-.88-970.1-.27 144.44-343.1 127.99-688.95-221.47-799.82-261.87-83.13-928.16 44.99-1081.32-101.21-121.98-116.43-19.36-305.71 98.35-363.53 100.68-49.48 438.67-28.84 574.59-28.84 441.41 0 742.18 81.59 826.81-373.67-403.35 15.04-1336.8-51.33-1655.82 47.23-548.05 169.31-628.01 781.35-359.47 1001.68 406.04 333.22 1363.78-95.66 1311.08 377.63-32.06 287.81-429.81 240.89-605.9 240.8-205.12-.05-677.18 24.34-849.97-7.98-118.23-294.34-340.72-1483.88-433.29-1652.79l-483.31-4.36-332.65 542.09c-150.43 292.66-79.83 439.25 41.54 646.13l-421.61 27.07c-67.47 84.64-225.97 389.73-310.69 518.28l-269.77-516.42c222.49-49.57 383.29-160 479.25-290.14 253.01-343.11 176.8-908.23-352.32-927.01-249-8.82-515.99.04-767.01.04l-2300.01-.35c-141.79.26-217.69 15.96-296.85 94.51-61.61 61.08-123.53 157.62-125.07 277.13z"/><path class="fil2" d="M13177.89 4129.07l-31.58 146.28 2002.06 2.65c25.85-45.38 30.43-88.03 32.2-151.98-622.53-2.51-1396.55-16.76-2002.68 3.05z"/><path class="fil3" d="M13026.44 4972.41l-26.77 142.76c278.99-3.93 1676.07 19.98 1815.39-9.97l26.64-145.93c-251.12 1.37-1714.84-29.28-1815.26 13.14z"/><path class="fil4" d="M13186.36 4068.74l1813.17 1.14 30.48-157.04-1814.9 1.19-28.75 154.71z"/><path class="fil3" d="M13179.96 4901.63l1867.07 1.81 27.03-151.05-1858.95-.48-35.15 149.72z"/><path d="M7165.44 4438.74c-60.78 66.77-376.28 597.14-414.25 690.94l559.69-.05-145.44-690.89z" fill="#fbfbfb"/><path class="fil1" d="M12537.85 3716.45l449.39.8c69.63-299.58-65.32-510.96-355.46-494.82-43.39 71.31-89.39 395.94-93.93 494.02z"/><path class="fil2" d="M14590.41 4487.26l725.59.7 28.14-155.98c-173.14 2.16-591.22-20.6-729.08 10.54l-24.65 144.74z"/><path class="fil3" d="M14552.26 4688.71l733.27 6.44 18.65-151.89-539.22.4c-210.98-1.63-178.26-40-212.7 145.05z"/><path class="fil2" d="M14206.06 5530.96l342.32 1.72c175.04 0 211.99 43.96 209.88-152.2-113.83-9.17-243.88-2.07-360.05-3.13-153.43-1.37-202.95-31.05-192.15 153.61zm317.71 414.99c114.09 8.2 242.12 1.32 358.15 2.38 153.16 1.41 202.6 34.22 190.25-149.5-496.71-4.46-560.18-59.1-548.4 147.12zm-481.45-623.37l537.94-.88 25.49-153.12-538.78 1.8-24.65 152.2zm316.42 416.93l537.24.18 26.07-152.42-539.67 1.19-23.64 151.05zm-1430.55-208.55c111.62 2.86 216.27.61 320.88 2.47 149.24 2.69 162.86 15.7 161.1-155.06l-453.63.13-28.35 152.46z"/><path class="fil4" d="M12962.59 5320.77l464.65.62 24.87-149.24-466.06-1.5-23.46 150.12z"/><path class="fil2" d="M12889.42 5740.52l459.05-1.14 30.12-145.8-465.93-6-23.24 152.94zm-36.38 203.71l162.07 4.72 83.35-.71 99.98-.09h110.83l31.66-147.03-454.9-5.34-32.99 148.45z"/></g></g></svg>