<?xml version="1.0" encoding="UTF-8"?>
<!DOCTYPE svg PUBLIC "-//W3C//DTD SVG 1.0//EN" "http://www.w3.org/TR/2001/REC-SVG-20010904/DTD/svg10.dtd">
<!-- Creator: CorelDRAW 2017 -->
<svg xmlns="http://www.w3.org/2000/svg" xml:space="preserve" width="563px" height="163px" version="1.0" style="shape-rendering:geometricPrecision; text-rendering:geometricPrecision; image-rendering:optimizeQuality; fill-rule:evenodd; clip-rule:evenodd"
viewBox="0 0 749.43 216.82"
 xmlns:xlink="http://www.w3.org/1999/xlink">
 <defs>
  <style type="text/css">
   <![CDATA[
    .fil4 {fill:#010101}
    .fil2 {fill:#020202}
    .fil1 {fill:#030303}
    .fil3 {fill:#050504}
    .fil7 {fill:#060606}
    .fil5 {fill:#080808}
    .fil13 {fill:#0A0908}
    .fil6 {fill:#0A0A0A}
    .fil10 {fill:#0B0B0C}
    .fil8 {fill:#0D0D0D}
    .fil12 {fill:#0F0F0F}
    .fil11 {fill:#101010}
    .fil9 {fill:#11110F}
    .fil0 {fill:#E31E24}
    .fil15 {fill:black;fill-rule:nonzero}
    .fil14 {fill:#E31E24;fill-rule:nonzero}
   ]]>
  </style>
 </defs>
 <g id="Слой_x0020_1">
  <metadata id="CorelCorpID_0Corel-Layer"/>
  <g id="_3062870650256">
   <g>
    <path class="fil0" d="M28.08 112.92c5.26,-6.44 17.33,-1.79 25.41,9.7 8.08,11.48 12.06,26.78 6.8,33.22 -5.26,6.44 -17.72,1.68 -25.8,-9.81 -8.08,-11.48 -11.67,-26.67 -6.41,-33.11z"/>
    <path class="fil1" d="M159.54 22.37c4.32,5.32 8.55,11.21 12.82,16.93 2.11,2.81 3.75,4.91 7.52,2.74 6.15,-3.52 13.03,-7.26 18.81,-11.07 4.18,-2.76 3.49,-3.13 0.47,-7.72 -3.54,-5.38 -8.3,-11.34 -12.39,-16.47 -2.59,-3.28 -4.59,-4.2 -8.2,-2 -4.94,3 -9.93,6.47 -14.76,9.64 -4.27,2.75 -7.61,3.84 -4.27,7.95z"/>
    <path class="fil2" d="M184.89 87.06c0,-1.73 -0.55,-2.16 -1.27,-3.46l-8.06 -16.68c-4.09,-8.18 -3.59,-7.2 -18.8,2.01l-9.77 5.49c-2.05,1.05 -3.45,1.89 -2.64,4.25 0.51,1.52 1.86,3.12 2.58,4.78 0.97,2.25 1.75,3.13 2.63,5.27l4.82 10.46c1.88,3.08 5.5,0.13 7.29,-0.6l13.71 -5.77c3.39,-1.71 9.51,-3.37 9.51,-5.75z"/>
    <path class="fil1" d="M122.27 46.02c0.42,1.56 10.54,14.46 12.41,17.06 1.16,1.62 1.64,3.5 3.55,3.82 2.02,0.34 3.32,-1.18 4.78,-2.25 1.38,-1 1.96,-1.08 3.31,-1.95l16.83 -10.53c3.7,-2.64 -1.11,-6.97 -1.59,-7.66l-10.11 -13.63c-4.25,-4.21 -6.49,-2.93 -10.83,0.34l-12.44 9.66c-1.84,1.51 -4.73,3.38 -5.91,5.14z"/>
    <path class="fil1" d="M96.49 20.76c0,1.47 0.59,2.35 1.64,3.22l10.87 9.01c2.63,2.6 4.16,5.34 7.32,2.34 4.72,-4.93 11,-11.92 16.35,-15.78 3.63,-2.62 4.88,-4.07 0.3,-8.53l-7.86 -7.3c-5.57,-4.53 -8.1,-4.74 -11.15,-1.63l-14.52 14.78c-1.15,1.24 -2.95,2.62 -2.95,3.89z"/>
    <path class="fil2" d="M114.91 116.53c2.12,0 11.88,-3.89 15.02,-4.98l10.48 -4.25c3,-0.85 2.91,-0.65 2.91,-3.93l-8.3 -16.43c-0.25,-0.48 -0.52,-1.05 -0.71,-1.39 -2.4,-4.23 -3.97,-1.54 -10.39,2.11 -5.28,3.24 -11.36,6.45 -16.76,9.55 -3.77,2.27 -0.13,4.64 2.79,11.12 0.58,1.29 0.73,1.85 1.27,2.94 0.52,1.06 0.77,1.57 1.33,2.88 0.55,1.28 0.67,2.38 2.36,2.38z"/>
    <path class="fil3" d="M89.65 75.49c0,1.99 0.4,2.74 1.25,3.65 3.39,3.64 4.76,6.84 7.54,10.13 1.53,1.8 3.31,2.76 5.75,1.28l20.04 -13.64c4.56,-2.62 2.69,-3.63 -0.12,-7.72 -2.61,-3.81 -5.65,-8.03 -8.58,-11.61 -4.61,-5.62 -4.05,-1.54 -15.06,7.15l-2.73 2.53c-1.1,1.02 -1.66,1.53 -2.7,2.57 -1.23,1.16 -5.39,4.19 -5.39,5.66z"/>
    <path class="fil2" d="M117.54 126.53c0,4.43 1.18,2.75 2.33,9.24 2,11.32 2.66,7.25 19.73,5.98 2.22,-0.17 5.57,-0.65 7.88,-1.07 7.11,-1.32 6.34,-2.24 5.39,-7.91l-2.97 -11.9c-1.88,-4.21 -6.23,-3.64 -10.1,-2.08l-15.58 4.42c-2.24,0.86 -6.68,1.1 -6.68,3.32z"/>
    <path class="fil4" d="M122.8 153.36c0,13.16 -1.01,14.88 4.63,15.29 6.99,0.51 16.4,1.42 23.15,1.25 4.85,-0.11 5.05,-0.02 5.39,-4.6 0.3,-4.07 -0.02,-8.7 -0.02,-12.47 0,-4.94 -4.41,-3.63 -7.89,-3.38 -6.59,0.47 -15.13,1.32 -18.96,1.27 -2.85,-0.04 -6.3,-0.06 -6.3,2.64z"/>
    <path class="fil3" d="M52.54 48.21c3.43,1.9 8.7,4.65 9.75,4.65 3.34,0 2.31,-1.45 5.04,-6.01 3.01,-5.04 6.8,-12.75 10.39,-16.97 4.44,-5.21 1.3,-5.3 -5.33,-8.69 -7.6,-3.89 -9.32,-6.44 -12.56,-0.07 -2.95,5.81 -5.56,12.7 -8.21,18.75 -2.21,5.67 -3.55,5.86 0.92,8.34z"/>
    <path class="fil1" d="M70.18 118.63c0.16,1.94 1.35,4.28 2.2,5.69 4.11,6.82 0.4,5.2 10.36,3.19l13.54 -4.35c9.39,-2.36 5.66,-4.26 3.43,-9.85l-3.93 -7.12c-2.15,-2.39 -1.81,-1.25 -7.71,1.92 -1.3,0.7 -1.63,0.97 -2.94,1.79l-6.07 3.4c-1.17,0.59 -0.41,0.16 -1.35,0.76l-7.53 4.57z"/>
    <path class="fil5" d="M61.32 105.78c7.78,9.85 2.42,13.78 18.56,1.5l9.79 -7.05c1.45,-1.46 2.01,-1.86 -0.84,-5.51 -1.29,-1.66 -3.92,-5.4 -5.4,-7.3 -1.46,-1.89 -1.77,-1.94 -3.25,-1.94 -4.75,3.33 -14.54,15.47 -17.55,18.18 -0.69,0.62 -1.31,1.33 -1.31,2.12z"/>
    <path class="fil1" d="M149.06 215.24c6.5,1.3 15.69,1.03 21.94,1.28 3.3,0.12 5.26,0.12 6.85,-1.83 2.49,-3.05 6.71,-7.75 8.09,-10.82 0,-1.21 -0.36,-1.58 -1.58,-1.58l-21.61 0c-4.55,0 -4.32,-0.88 -7.63,1.89 -1.99,1.67 -4.8,4.16 -6.78,6.27 -2.37,2.52 -2.84,4.08 0.72,4.79z"/>
    <path class="fil2" d="M77.02 136.61c0.82,1.95 0.99,3.29 1.6,5.11 1.34,3.98 3.96,2.23 9.95,2.72 6.15,0.51 14.32,0.9 20.55,-0.55 0.54,-2.31 0.15,-5.02 -0.76,-7.66l-1.73 -5.64c-0.86,-2.81 -2.2,-1.73 -4.99,-1.3l-18.49 2.84c-2.8,0.68 -7.72,0.73 -6.13,4.48z"/>
    <path class="fil6" d="M50.71 94.96c0,3.06 0.72,2.47 3,4.36 1.52,1.26 3.6,5.48 6.55,0.97l10.37 -14.89c3.69,-4.72 6.48,-5.69 2.26,-9.47l-1.38 -1.25c-8.82,-7.51 -7.45,-9.15 -15.01,6.59 -1.05,2.19 -5.79,12.16 -5.79,13.69z"/>
    <path class="fil1" d="M110.79 203.72l22.53 8.04c2.34,0 4.92,-2.52 6.46,-4.06 9.54,-9.6 3.25,-6.84 -9.04,-10.71 -1.02,-0.32 -2.29,-0.94 -3.46,-1.28 -10.94,-3.23 -11.41,-4.6 -13.66,-2.15 -1.44,1.56 -3.25,3.39 -4.56,4.94 -1.53,1.82 -2.24,3.81 1.73,5.22z"/>
    <path class="fil1" d="M79.81 150.4c-0.9,4.97 0.09,7.52 5.35,9.03l25.54 6.03c0.9,-3.87 0.9,-10.34 0,-14.21 -8.09,-1.88 -18.19,-1.79 -27.25,-3.29 -2.4,-0.39 -3.25,0.26 -3.64,2.44z"/>
    <path class="fil1" d="M39.14 90.22c4.96,2.63 7.34,5.28 9.03,1.1l8.65 -21.43c0.68,-1.7 1.45,-2.83 1.45,-4.27 0,-1.96 -9.63,-6.45 -11.76,-6.45 -2.7,0 -2.32,4 -2.97,6.51l-4.32 21.94c-0.17,0.86 -0.08,1.74 -0.08,2.6z"/>
    <path class="fil7" d="M13.88 48.12c0,2.01 1.2,1.85 2.21,1.36 3.02,-1.45 5.82,-2.91 8.78,-4.48 1.16,-0.62 1.6,-2.86 1.82,-5.14 0.55,-5.63 1.24,-10.03 2.78,-15.61 1.39,-5.08 4.44,-8.75 0.18,-9.22 -1.9,-0.21 -6.84,2.82 -8.77,3.78 -2.18,1.38 -3.69,4.09 -4.72,7.39 -2.2,7.03 -2.28,16.73 -2.28,21.92z"/>
    <path class="fil2" d="M77.55 167.04c0,2.7 3.59,3.7 5.55,4.97l3.35 1.91c1.16,0.61 2.4,1.38 3.73,2.07 2.37,1.23 13.47,6.84 14.73,6.84 2.9,0 5.04,-7.53 4.79,-10.27 -0.25,-2.72 -1.96,-1.86 -6.66,-3.65 -6.44,-2.19 -12.86,-4.24 -19.18,-6.78 -1.86,-0.75 -3.81,-1.32 -4.42,-0.38 -1.08,1.69 -1.76,3.44 -1.89,5.29z"/>
    <path class="fil1" d="M29.5 88.51c4.11,0.89 5.56,0.83 6.43,-0.56 0.26,-0.41 0.48,-0.87 0.55,-1.36l2.9 -22.44c2.51,-9.63 -0.08,-8.13 -9.19,-8.13 -1.13,0 -1.96,1.75 -2.11,4.14 -0.53,8.58 -0.45,17.17 0.32,25.77 0.14,1.5 -0.3,2.28 1.1,2.58z"/>
    <path class="fil1" d="M71.23 175.99c0,1.81 9.27,8.46 11.13,9.91l9.15 6.64c4.71,3.23 4.83,2.16 8.68,-0.76 4.34,-3.29 3.17,-5.21 -0.81,-7.11 -2.12,-1.02 -2.75,-1.34 -4.49,-2.35l-8.68 -5c-6.35,-3.86 -9.46,-7.7 -12.21,-5.46 -0.99,0.81 -2.77,2.62 -2.77,4.13z"/>
    <path class="fil1" d="M19.67 91.8c1.92,-0.16 6.31,-2.02 6.31,-3.69 0,-3.62 -0.79,-5.9 -1.02,-8.97l-0.57 -9.95c-0.01,-8.42 2.04,-15.68 -6.84,-10.03 -3.21,2.03 -3.73,2.09 -3.25,6.39 0.63,5.66 2.73,21.25 5.37,26.25z"/>
    <path class="fil1" d="M90.7 205.98c0.43,1.58 -0.13,0.54 0.96,1.67l17.02 8.84c1.31,0.62 7.55,0.18 13.17,0.09 3.09,-0.05 2.12,-2.52 -3.28,-4.82 -8.8,-3.74 -17.12,-8.94 -18.4,-8.94 -0.74,0 -8.6,1.98 -9.47,3.16z"/>
    <path class="fil5" d="M64.46 182.76c3.06,3.76 13.68,16.38 17.3,16.38 3.2,-0.19 6.29,0.19 8.94,-1.58 -0.25,-3.05 -6.12,-6.01 -11.16,-10.41 -9.83,-8.56 -8.06,-10.11 -14.62,-10.11 -4.86,0 -2.2,3.59 -0.46,5.72z"/>
    <path class="fil8" d="M4.94 73.91c0,2.6 0.12,4.28 0.31,5.45 0.34,2.01 5.37,15.25 6.13,16.85 0.67,1.4 1.35,2.5 1.98,2.95 1.63,-0.43 1.37,-0.4 2.44,-1.76 3.33,-4.22 1.49,-5.58 -0.16,-10.51 -1.54,-4.58 -2.39,-11.43 -3.16,-16.27 -0.34,-2.12 -1.32,-6.8 -4.24,-3.51 -0.86,0.97 -3.3,5.3 -3.3,6.8z"/>
    <path class="fil9" d="M53.74 182.43l8.98 12.59c0.9,1 6.21,3.67 10.09,3.74 4,0.07 0.6,-3.05 -0.53,-4.35 -2.98,-3.25 -5.04,-4.56 -8.94,-10 -2.93,-4.08 -5.02,-7.75 -10.34,-8.58 -4.15,-0.65 0.1,5.3 0.74,6.6z"/>
    <path class="fil10" d="M12.23 108.43l0.62 -3.18c0.58,-3 -1.24,-4.69 -2.43,-7.36l-4.1 -9.58c-4.54,-12.56 -4.96,-8.29 -6.13,1.53 -0.66,4.15 0.44,3.2 2.56,8.35 1.66,2.98 5.02,10.38 7.72,11.99 1.74,1.03 1.45,-0.19 1.76,-1.75z"/>
    <path class="fil10" d="M39.66 171.78c0,2.73 4.06,11.6 7.48,14.62 0.45,0.39 7.15,5.37 8.31,5.37 3.81,0 -0.65,-5.09 -1.35,-6.01 -3.39,-4.43 -5.25,-8.23 -6.59,-10.36 -1.58,-2.51 -7.85,-8.41 -7.85,-3.62z"/>
    <path class="fil11" d="M0 107.6c0.79,6.7 5.48,12.11 10.82,16.98 0.91,0.84 2.01,-0.18 2.01,-1.74l-0.59 -6.1c-0.1,-1.05 -0.53,-1.9 -1.67,-3.22 -4.02,-2.85 -6.3,-7.44 -7.81,-10.27l-2.03 -3.77 -0.73 8.12z"/>
    <path class="fil12" d="M27.56 162.3c0,5.68 1.75,6.29 4.29,9.4 11.75,14.31 7.32,5.95 5.92,-0.66 -0.29,-1.86 -0.23,-2.12 -0.71,-3.51 -0.62,-1.82 -5.59,-8.38 -7.39,-8.38 -1.55,0 -2.11,1.64 -2.11,3.15z"/>
    <path class="fil13" d="M15.46 140.21c2.36,0 2.46,-1.44 1.96,-3.01 -0.73,-2.29 -2.66,-7.29 -4.37,-8.64 -0.67,-0.54 -1.62,-1.26 -3.02,-2.4 -8.8,-7.15 -2.01,8.19 0.03,11.12 1.22,1.76 2.89,2.93 5.4,2.93z"/>
    <path class="fil8" d="M13.6 146.42c1.27,2.92 5.96,9.81 8.25,12.67 0.56,0.71 1.21,1.11 1.81,0.18 0.94,-1.45 2.46,-3.39 2.46,-5.96 -1.72,-2.47 -3.65,-5.04 -5.14,-7.32 -0.85,-1.31 -2.82,-2.07 -3.74,-1.67 -1.02,0.45 -4.16,0.91 -3.64,2.1z"/>
   </g>
   <g>
    <path class="fil14" d="M212.86 163.62l-10.93 0 0 -39.15 -13.08 0 0 39.15 -10.92 0 0 -49.65 34.93 0 0 49.65zm18.14 0l-10.93 0 0 -49.65 18.07 0c4.68,0 8.28,1.57 10.83,4.69 2.53,3.13 3.8,7.02 3.8,11.69 0,4.61 -1.27,8.47 -3.8,11.57 -2.55,3.1 -6.15,4.65 -10.83,4.65l-7.14 0 0 17.05zm5.79 -27.54c1.49,0 2.68,-0.52 3.58,-1.56 0.9,-1.05 1.35,-2.46 1.35,-4.25 0,-1.78 -0.45,-3.2 -1.35,-4.24 -0.9,-1.04 -2.09,-1.56 -3.58,-1.56l-5.79 0 0 11.61 5.79 0zm52.8 21.29c-3.55,4.76 -8.32,7.14 -14.3,7.14 -5.97,0 -10.74,-2.38 -14.29,-7.14 -3.55,-4.77 -5.33,-10.95 -5.33,-18.54 0,-7.59 1.78,-13.77 5.33,-18.53 3.55,-4.76 8.32,-7.15 14.29,-7.15 5.98,0 10.75,2.39 14.3,7.15 3.55,4.76 5.32,10.94 5.32,18.53 0,7.59 -1.77,13.77 -5.32,18.54zm-14.3 -3.5c2.7,0 4.8,-1.4 6.31,-4.21 1.5,-2.8 2.26,-6.41 2.26,-10.83 0,-4.46 -0.76,-8.09 -2.26,-10.86 -1.51,-2.78 -3.61,-4.17 -6.31,-4.17 -2.65,0 -4.73,1.39 -6.23,4.17 -1.51,2.77 -2.26,6.4 -2.26,10.86 0,4.42 0.75,8.03 2.26,10.83 1.5,2.81 3.58,4.21 6.23,4.21zm52.06 9.75l-27.11 0 0 -49.65 27.11 0 0 10.5 -16.18 0 0 8.71 15.71 0 0 10.49 -15.71 0 0 9.45 16.18 0 0 10.5zm41.6 0l-12.88 0 -8.97 -18.16 -2.83 5.21 0 12.95 -10.92 0 0 -49.65 10.92 0 0 20.99 11.13 -20.99 12.67 0 -14.09 23.22 14.97 26.43zm21.51 0l-10.93 0 0 -39.15 -9.64 0 0 -10.5 30.14 0 0 10.5 -9.57 0 0 39.15z"/>
    <path class="fil15" d="M421.81 164.51c-6.02,0 -10.83,-2.37 -14.43,-7.11 -3.59,-4.74 -5.39,-10.93 -5.39,-18.57 0,-7.69 1.8,-13.89 5.39,-18.61 3.6,-4.71 8.41,-7.07 14.43,-7.07 7.55,0 12.86,4.35 15.91,13.03l-8.96 4.24c-0.59,-2.03 -1.49,-3.65 -2.7,-4.84 -1.21,-1.19 -2.63,-1.78 -4.25,-1.78 -2.7,0 -4.82,1.39 -6.37,4.17 -1.55,2.77 -2.33,6.4 -2.33,10.86 0,4.47 0.78,8.09 2.33,10.87 1.55,2.78 3.67,4.17 6.37,4.17 1.66,0 3.1,-0.67 4.32,-2.01 1.21,-1.34 2.09,-3.05 2.63,-5.14l9.03 4.24c-3.1,9.04 -8.43,13.55 -15.98,13.55zm38.84 -0.89l-10.92 0 0 -39.15 -9.65 0 0 -10.5 30.14 0 0 10.5 -9.57 0 0 39.15zm25.42 0l-10.92 0 0 -49.65 18.06 0c4.68,0 8.29,1.57 10.83,4.69 2.54,3.13 3.81,7.02 3.81,11.69 0,4.61 -1.27,8.47 -3.81,11.57 -2.54,3.1 -6.15,4.65 -10.83,4.65l-7.14 0 0 17.05zm5.8 -27.54c1.48,0 2.67,-0.52 3.57,-1.56 0.9,-1.05 1.35,-2.46 1.35,-4.25 0,-1.78 -0.45,-3.2 -1.35,-4.24 -0.9,-1.04 -2.09,-1.56 -3.57,-1.56l-5.8 0 0 11.61 5.8 0zm52.79 21.29c-3.55,4.76 -8.32,7.14 -14.29,7.14 -5.98,0 -10.75,-2.38 -14.3,-7.14 -3.55,-4.77 -5.32,-10.95 -5.32,-18.54 0,-7.59 1.77,-13.77 5.32,-18.53 3.55,-4.76 8.32,-7.15 14.3,-7.15 5.97,0 10.74,2.39 14.29,7.15 3.55,4.76 5.33,10.94 5.33,18.53 0,7.59 -1.78,13.77 -5.33,18.54zm-14.29 -3.5c2.69,0 4.79,-1.4 6.3,-4.21 1.51,-2.8 2.26,-6.41 2.26,-10.83 0,-4.46 -0.75,-8.09 -2.26,-10.86 -1.51,-2.78 -3.61,-4.17 -6.3,-4.17 -2.66,0 -4.74,1.39 -6.24,4.17 -1.51,2.77 -2.26,6.4 -2.26,10.86 0,4.42 0.75,8.03 2.26,10.83 1.5,2.81 3.58,4.21 6.24,4.21zm35.33 9.75l-10.39 0 0 -49.65 10.93 0 0 26.2 12.88 -26.2 11.05 0 0 49.65 -10.92 0 0 -27.47 -13.55 27.47zm17.19 -57.84c-2.47,3.73 -5.86,5.59 -10.18,5.59 -4.23,0 -7.62,-1.86 -10.18,-5.59l4.31 -3.79c1.4,2.28 3.35,3.42 5.87,3.42 2.56,0 4.52,-1.14 5.87,-3.42l4.31 3.79zm32.43 58.73c-6.02,0 -10.83,-2.37 -14.43,-7.11 -3.59,-4.74 -5.39,-10.93 -5.39,-18.57 0,-7.69 1.8,-13.89 5.39,-18.61 3.6,-4.71 8.41,-7.07 14.43,-7.07 7.56,0 12.86,4.35 15.92,13.03l-8.97 4.24c-0.59,-2.03 -1.49,-3.65 -2.7,-4.84 -1.21,-1.19 -2.63,-1.78 -4.25,-1.78 -2.69,0 -4.82,1.39 -6.37,4.17 -1.55,2.77 -2.32,6.4 -2.32,10.86 0,4.47 0.77,8.09 2.32,10.87 1.55,2.78 3.68,4.17 6.37,4.17 1.67,0 3.11,-0.67 4.32,-2.01 1.21,-1.34 2.09,-3.05 2.63,-5.14l9.03 4.24c-3.1,9.04 -8.42,13.55 -15.98,13.55zm55.43 -0.89l-10.92 0 0 -20.25 -13.09 0 0 20.25 -10.92 0 0 -49.65 10.92 0 0 18.83 13.09 0 0 -18.83 10.92 0 0 49.65zm42.88 0l-11.8 0 -1.68 -7.59 -12.75 0 -1.68 7.59 -11.8 0 13.28 -49.65 13.15 0 13.28 49.65zm-15.64 -18.09l-4.18 -19.05 -4.25 19.05 8.43 0zm18.74 -31.56l29.94 0 0 10.5 -19.01 0 0 6.99 7.34 0c4.59,0 8.14,1.53 10.66,4.58 2.52,3.05 3.77,6.86 3.77,11.43 0,4.56 -1.25,8.39 -3.77,11.5 -2.52,3.1 -6.07,4.65 -10.66,4.65l-18.27 0 0 -49.65zm16.99 27.99l-6.06 0 0 11.16 6.06 0c1.4,0 2.52,-0.49 3.37,-1.49 0.86,-0.99 1.29,-2.35 1.29,-4.09 0,-1.74 -0.43,-3.1 -1.29,-4.09 -0.85,-1 -1.97,-1.49 -3.37,-1.49z"/>
   </g>
  </g>
 </g>
</svg>
