<?xml version="1.0" encoding="UTF-8"?>
<!DOCTYPE svg PUBLIC "-//W3C//DTD SVG 1.0//EN" "http://www.w3.org/TR/2001/REC-SVG-20010904/DTD/svg10.dtd">
<!-- Creator: CorelDRAW 2017 -->
<svg xmlns="http://www.w3.org/2000/svg" xml:space="preserve" width="286px" height="286px" version="1.0" style="shape-rendering:geometricPrecision; text-rendering:geometricPrecision; image-rendering:optimizeQuality; fill-rule:evenodd; clip-rule:evenodd"
viewBox="0 0 79.38 79.38"
 xmlns:xlink="http://www.w3.org/1999/xlink">
 <defs>
  <style type="text/css">
   <![CDATA[
    .fil0 {fill:none}
    .fil1 {fill:#9B9B9B}
   ]]>
  </style>
 </defs>
 <g id="Слой_x0020_1">
  <metadata id="CorelCorpID_0Corel-Layer"/>
  <g id="_3062718181888">
   <rect class="fil0" width="79.38" height="79.38"/>
   <g>
    <path class="fil1" d="M61.65 26.83l-23.06 0c-0.78,-0.96 -1.89,-1.65 -3.16,-1.89l0 -1.62c0,-1.99 -1.62,-3.61 -3.61,-3.61l-10.58 0c-1.99,0 -3.61,1.62 -3.61,3.61l0 14.98c0,0.55 0.44,0.99 0.99,0.99 0.55,0 0.99,-0.44 0.99,-0.99l0 -14.98c0,-0.9 0.73,-1.63 1.63,-1.63l10.58 0c0.9,0 1.64,0.73 1.64,1.63l0 28.83 -13.85 0 0 -4.55c0,-0.55 -0.44,-0.99 -0.99,-0.99 -0.55,0 -0.99,0.44 -0.99,0.99l0 4.55 -2.28 0c-0.54,0 -0.98,0.44 -0.98,0.99l0 5.54c0,0.55 0.44,0.99 0.98,0.99l22.16 0c0.55,0 0.99,-0.44 0.99,-0.99l0 -5.54c0,-0.55 -0.44,-0.99 -0.99,-0.99l-2.08 0 0 -13.52 9.7 16.8c0.45,0.78 1.18,1.34 2.05,1.57 0.29,0.08 0.58,0.11 0.87,0.11 0.58,0 1.16,-0.15 1.68,-0.45 0.78,-0.45 1.33,-1.17 1.56,-2.04 0.24,-0.87 0.12,-1.77 -0.33,-2.55l-7.33 -12.69 12.69 7.33c0.52,0.29 1.09,0.45 1.68,0.45 0.29,0 0.58,-0.04 0.87,-0.12 0.87,-0.23 1.6,-0.79 2.05,-1.57 0.44,-0.77 0.56,-1.68 0.33,-2.55 -0.23,-0.87 -0.79,-1.59 -1.57,-2.04l-12.68 -7.33 14.65 0c1.85,0 3.36,-1.5 3.36,-3.36 0,-1.85 -1.51,-3.36 -3.36,-3.36l0 0zm-25.13 30.86l-20.18 0 0 -3.56 20.18 0 0 3.56zm1.29 -27.5c0,1.51 -1,2.79 -2.38,3.22l0 -6.43c1.38,0.42 2.38,1.7 2.38,3.21zm11.44 22.87c0.18,0.32 0.23,0.69 0.13,1.05 -0.09,0.35 -0.32,0.65 -0.64,0.84 -0.32,0.18 -0.7,0.23 -1.05,0.14 -0.36,-0.1 -0.66,-0.33 -0.84,-0.65l-11.02 -19.09c0.18,-0.05 0.35,-0.1 0.53,-0.17l3.85 2.22 9.04 15.66zm9.45 -10.47c0.32,0.19 0.54,0.49 0.64,0.84 0.1,0.36 0.05,0.73 -0.14,1.06 -0.18,0.32 -0.48,0.54 -0.84,0.64 -0.36,0.1 -0.73,0.05 -1.05,-0.14l-19.09 -11.02c0.13,-0.13 0.25,-0.27 0.37,-0.42l4.45 0 15.66 9.04zm2.95 -11.01l-22.05 0c0.12,-0.45 0.19,-0.91 0.19,-1.39 0,-0.48 -0.07,-0.94 -0.19,-1.38l22.05 0c0.76,0 1.38,0.62 1.38,1.38 0,0.77 -0.62,1.39 -1.38,1.39zm0 0z"/>
    <path class="fil1" d="M22.58 31.58l7.91 0c0.54,0 0.99,-0.45 0.99,-0.99l0 -4.75c0,-0.55 -0.45,-0.99 -0.99,-0.99l-7.91 0c-0.55,0 -0.99,0.44 -0.99,0.99l0 4.75c0,0.54 0.44,0.99 0.99,0.99zm0.98 -4.75l5.94 0 0 2.77 -5.94 0 0 -2.77zm0 0z"/>
    <path class="fil1" d="M22.58 35.35l7.91 0c0.54,0 0.99,-0.44 0.99,-0.99 0,-0.55 -0.45,-0.99 -0.99,-0.99l-7.91 0c-0.55,0 -0.99,0.44 -0.99,0.99 0,0.55 0.44,0.99 0.99,0.99zm0 0z"/>
    <path class="fil1" d="M18.62 43.76c0.26,0 0.51,-0.11 0.7,-0.29 0.18,-0.18 0.29,-0.44 0.29,-0.7 0,-0.26 -0.11,-0.52 -0.29,-0.7 -0.19,-0.18 -0.44,-0.29 -0.7,-0.29 -0.26,0 -0.52,0.11 -0.7,0.29 -0.18,0.18 -0.29,0.44 -0.29,0.7 0,0.26 0.11,0.52 0.29,0.7 0.18,0.18 0.44,0.29 0.7,0.29zm0 0z"/>
   </g>
  </g>
 </g>
</svg>
