<?xml version="1.0" encoding="UTF-8"?>
<!DOCTYPE svg PUBLIC "-//W3C//DTD SVG 1.0//EN" "http://www.w3.org/TR/2001/REC-SVG-20010904/DTD/svg10.dtd">
<!-- Creator: CorelDRAW 2017 -->
<svg xmlns="http://www.w3.org/2000/svg" xml:space="preserve" width="286px" height="286px" version="1.0" style="shape-rendering:geometricPrecision; text-rendering:geometricPrecision; image-rendering:optimizeQuality; fill-rule:evenodd; clip-rule:evenodd"
viewBox="0 0 48.49 48.49"
 xmlns:xlink="http://www.w3.org/1999/xlink">
 <defs>
  <style type="text/css">
   <![CDATA[
    .fil0 {fill:none}
    .fil1 {fill:#9B9B9B}
   ]]>
  </style>
 </defs>
 <g id="Слой_x0020_1">
  <metadata id="CorelCorpID_0Corel-Layer"/>
  <g id="_3062796947952">
   <rect class="fil0" width="48.49" height="48.49"/>
   <g>
    <path class="fil1" d="M38.64 29.73c-1.61,-0.53 -1.65,-1.7 -1.65,-1.74 0,-0.23 -0.16,-0.43 -0.39,-0.48l-4.86 -1.11c-0.08,-0.02 -0.15,-0.02 -0.22,0l-2.04 0.46 0 -7.89c0,-1.14 -0.93,-2.07 -2.07,-2.07l-10.02 0c-0.27,0 -0.49,0.22 -0.49,0.49 0,0.27 0.22,0.49 0.49,0.49l10.02 0c0.6,0 1.09,0.49 1.09,1.09l0 8.12 -1.85 0.42c-0.22,0.05 -0.38,0.25 -0.38,0.48 0,0.01 -0.02,1.2 -1.65,1.74 -0.21,0.07 -0.34,0.26 -0.34,0.47 0,0.02 0,0.16 0.02,0.41l-12.71 0c-0.6,0 -1.09,-0.49 -1.09,-1.09l0 -0.04 12.16 0c0.27,0 0.5,-0.22 0.5,-0.49 0,-0.27 -0.23,-0.49 -0.5,-0.49l-12.16 0 0 -9.53c0,-0.6 0.49,-1.09 1.09,-1.09l3.69 0c0.27,0 0.49,-0.22 0.49,-0.49 0,-0.27 -0.22,-0.49 -0.49,-0.49l-0.56 0 0 -7.95c0,-0.85 -0.7,-1.55 -1.55,-1.55 -0.85,0 -1.55,0.7 -1.55,1.55l0 7.95 -0.03 0c-1.15,0 -2.08,0.93 -2.08,2.07l0 10.55c0,1.14 0.93,2.07 2.08,2.07l12.83 0c0.12,0.71 0.34,1.64 0.75,2.66 0.81,2.05 2.55,4.88 6.23,6.78 0.07,0.04 0.15,0.06 0.23,0.06 0.08,0 0.15,-0.02 0.22,-0.06 3.68,-1.9 5.42,-4.73 6.23,-6.78 0.89,-2.22 0.9,-3.98 0.9,-4.05 0,-0.21 -0.14,-0.4 -0.34,-0.47l0 0zm-25.47 -21.34c0.31,0 0.56,0.25 0.56,0.56l0 5.84 -1.12 0 0 -5.84c0,-0.31 0.25,-0.56 0.56,-0.56l0 0zm-0.56 7.38l1.12 0 0 1.13 -1.12 0 0 -1.13zm24.56 18.12c-1.06,2.67 -2.93,4.74 -5.54,6.14 -2.6,-1.4 -4.46,-3.45 -5.53,-6.11 -0.6,-1.5 -0.77,-2.8 -0.82,-3.39 1.38,-0.58 1.8,-1.58 1.92,-2.14l4.43 -1 4.42 1c0.13,0.56 0.54,1.56 1.92,2.14 -0.04,0.58 -0.21,1.86 -0.8,3.36zm0 0z"/>
    <path class="fil1" d="M18.94 24.24l0 -3.16c0,-0.56 -0.46,-1.02 -1.02,-1.02l-4.22 0c-0.57,0 -1.02,0.46 -1.02,1.02l0 3.16c0,0.57 0.45,1.03 1.02,1.03l4.22 0c0.56,0 1.02,-0.46 1.02,-1.03zm-5.28 0l0 -3.16c0,-0.02 0.02,-0.03 0.04,-0.03l4.22 0c0.01,0 0.03,0.01 0.03,0.03l0 3.16c0,0.02 -0.02,0.04 -0.03,0.04l-4.22 0c-0.02,0 -0.04,-0.02 -0.04,-0.04zm0 0z"/>
    <path class="fil1" d="M20.55 21.05l0.53 0c0.27,0 0.49,-0.22 0.49,-0.5 0,-0.27 -0.22,-0.49 -0.49,-0.49l-0.53 0c-0.27,0 -0.49,0.22 -0.49,0.49 0,0.28 0.22,0.5 0.49,0.5l0 0zm0 0z"/>
    <path class="fil1" d="M23.19 21.05l0.53 0c0.27,0 0.49,-0.22 0.49,-0.5 0,-0.27 -0.22,-0.49 -0.49,-0.49l-0.53 0c-0.27,0 -0.49,0.22 -0.49,0.49 0,0.28 0.22,0.5 0.49,0.5l0 0zm0 0z"/>
    <path class="fil1" d="M25.83 21.05l0.52 0c0.28,0 0.5,-0.22 0.5,-0.5 0,-0.27 -0.22,-0.49 -0.5,-0.49l-0.52 0c-0.28,0 -0.5,0.22 -0.5,0.49 0,0.28 0.22,0.5 0.5,0.5l0 0zm0 0z"/>
    <path class="fil1" d="M20.55 23.16l0.53 0c0.27,0 0.49,-0.22 0.49,-0.5 0,-0.27 -0.22,-0.49 -0.49,-0.49l-0.53 0c-0.27,0 -0.49,0.22 -0.49,0.49 0,0.28 0.22,0.5 0.49,0.5zm0 0z"/>
    <path class="fil1" d="M23.19 23.16l0.53 0c0.27,0 0.49,-0.22 0.49,-0.5 0,-0.27 -0.22,-0.49 -0.49,-0.49l-0.53 0c-0.27,0 -0.49,0.22 -0.49,0.49 0,0.28 0.22,0.5 0.49,0.5zm0 0z"/>
    <path class="fil1" d="M25.83 23.16l0.52 0c0.28,0 0.5,-0.22 0.5,-0.5 0,-0.27 -0.22,-0.49 -0.5,-0.49l-0.52 0c-0.28,0 -0.5,0.22 -0.5,0.49 0,0.28 0.22,0.5 0.5,0.5zm0 0z"/>
    <path class="fil1" d="M20.55 25.27l0.53 0c0.27,0 0.49,-0.23 0.49,-0.5 0,-0.27 -0.22,-0.49 -0.49,-0.49l-0.53 0c-0.27,0 -0.49,0.22 -0.49,0.49 0,0.27 0.22,0.5 0.49,0.5zm0 0z"/>
    <path class="fil1" d="M16.86 26.39c-0.27,0 -0.49,0.22 -0.49,0.49 0,0.27 0.22,0.49 0.49,0.49l0.53 0c0.27,0 0.49,-0.22 0.49,-0.49 0,-0.27 -0.22,-0.49 -0.49,-0.49l-0.53 0zm0 0z"/>
    <path class="fil1" d="M14.22 26.39c-0.27,0 -0.49,0.22 -0.49,0.49 0,0.27 0.22,0.49 0.49,0.49l0.53 0c0.27,0 0.5,-0.22 0.5,-0.49 0,-0.27 -0.23,-0.49 -0.5,-0.49l-0.53 0zm0 0z"/>
    <path class="fil1" d="M23.19 25.27l0.53 0c0.27,0 0.49,-0.23 0.49,-0.5 0,-0.27 -0.22,-0.49 -0.49,-0.49l-0.53 0c-0.27,0 -0.49,0.22 -0.49,0.49 0,0.27 0.22,0.5 0.49,0.5zm0 0z"/>
    <path class="fil1" d="M25.83 25.27l0.52 0c0.28,0 0.5,-0.23 0.5,-0.5 0,-0.27 -0.22,-0.49 -0.5,-0.49l-0.52 0c-0.28,0 -0.5,0.22 -0.5,0.49 0,0.27 0.22,0.5 0.5,0.5zm0 0z"/>
    <path class="fil1" d="M36.52 31c-0.53,-0.4 -0.94,-0.88 -1.23,-1.45 -0.07,-0.13 -0.19,-0.22 -0.33,-0.25l-3.21 -0.73c-0.04,-0.01 -0.08,-0.02 -0.12,-0.02 -0.04,0 -0.08,0.01 -0.12,0.02l-3.21 0.73c-0.15,0.03 -0.27,0.12 -0.33,0.25 -0.29,0.57 -0.71,1.05 -1.24,1.45 -0.15,0.11 -0.23,0.3 -0.19,0.49 0.05,0.26 0.11,0.53 0.18,0.79 0.08,0.27 0.35,0.42 0.61,0.35 0.26,-0.07 0.42,-0.34 0.35,-0.61 -0.04,-0.14 -0.08,-0.28 -0.11,-0.43 0.47,-0.39 0.86,-0.86 1.16,-1.38l2.4 -0.55 0 7.55c-1.12,-0.87 -2.01,-1.93 -2.66,-3.17 -0.13,-0.24 -0.43,-0.34 -0.67,-0.21 -0.24,0.13 -0.33,0.42 -0.21,0.66 0.87,1.67 2.14,3.04 3.77,4.09 0.08,0.05 0.17,0.07 0.27,0.07 0.09,0 0.18,-0.02 0.26,-0.07 3.44,-2.21 4.5,-5.39 4.83,-7.09 0.03,-0.19 -0.04,-0.38 -0.2,-0.49l0 0zm-4.4 6.21l0 -7.55 2.4 0.55c0.3,0.52 0.69,0.99 1.17,1.38 -0.33,1.45 -1.21,3.79 -3.57,5.62l0 0zm0 0z"/>
   </g>
  </g>
 </g>
</svg>
