<?xml version="1.0" encoding="UTF-8"?>
<!DOCTYPE svg PUBLIC "-//W3C//DTD SVG 1.0//EN" "http://www.w3.org/TR/2001/REC-SVG-20010904/DTD/svg10.dtd">
<!-- Creator: CorelDRAW 2017 -->
<svg xmlns="http://www.w3.org/2000/svg" xml:space="preserve" width="286px" height="286px" version="1.0" style="shape-rendering:geometricPrecision; text-rendering:geometricPrecision; image-rendering:optimizeQuality; fill-rule:evenodd; clip-rule:evenodd"
viewBox="0 0 48.49 48.49"
 xmlns:xlink="http://www.w3.org/1999/xlink">
 <defs>
  <style type="text/css">
   <![CDATA[
    .fil0 {fill:none}
    .fil1 {fill:#9B9B9B}
   ]]>
  </style>
 </defs>
 <g id="Слой_x0020_1">
  <metadata id="CorelCorpID_0Corel-Layer"/>
  <g id="_2072766884496">
   <rect class="fil0" width="48.49" height="48.49"/>
   <g>
    <g>
     <path class="fil1" d="M7.28 17.31l24.13 0 0 -2.16c0,-0.34 0.26,-0.6 0.6,-0.6l8.76 0c0.33,0 0.6,0.26 0.6,0.6l0 17.59 1.22 0c0.33,0 0.6,0.27 0.6,0.6 0,0.33 -0.27,0.6 -0.6,0.6l-12.4 0c-0.33,0 -0.6,-0.27 -0.6,-0.6 0,-0.33 0.27,-0.6 0.6,-0.6l1.22 0 0 -11.47 -24.13 0c-1.09,0 -1.98,-0.89 -1.98,-1.98 0,-1.09 0.89,-1.98 1.98,-1.98zm26.23 1.2l-4.36 0 1.56 1.56 2.8 0c-0.07,-0.25 -0.1,-0.51 -0.1,-0.78 0,-0.27 0.03,-0.53 0.1,-0.78zm-6.06 0l-1.68 0 1.56 1.56 1.69 0 -1.57 -1.56zm-3.38 0l-3.55 0 1.57 1.56 3.54 0 -1.56 -1.56zm-5.24 0l-1.69 0 1.57 1.56 1.68 0 -1.56 -1.56zm-3.38 0l-3.55 0 1.56 1.56 3.55 0 -1.56 -1.56zm-5.25 0l-1.68 0 1.56 1.56 1.69 0 -1.57 -1.56zm22.41 14.23l7.56 0 0 -16.99 -7.56 0 0 1.56 1.49 0c0.59,-0.73 1.48,-1.19 2.48,-1.19 1.75,0 3.17,1.42 3.17,3.17 0,1.75 -1.42,3.17 -3.17,3.17 -1,0 -1.89,-0.46 -2.48,-1.19l-1.49 0 0 11.47 0 0zm2 -13.45c0,1.09 0.88,1.97 1.97,1.97 1.09,0 1.97,-0.88 1.97,-1.97 0,-1.09 -0.88,-1.97 -1.97,-1.97 -1.09,0 -1.97,0.88 -1.97,1.97zm-27.33 0.78l1.1 0 -1.47 -1.47c-0.24,0.13 -0.41,0.39 -0.41,0.69 0,0.43 0.35,0.78 0.78,0.78z"/>
     <path class="fil1" d="M34.75 23.28l3.28 0c0.33,0 0.6,0.27 0.6,0.6 0,0.34 -0.27,0.6 -0.6,0.6l-3.28 0c-0.33,0 -0.6,-0.26 -0.6,-0.6 0,-0.33 0.27,-0.6 0.6,-0.6z"/>
    </g>
   </g>
  </g>
 </g>
</svg>
