<?xml version="1.0" encoding="UTF-8"?>
<!DOCTYPE svg PUBLIC "-//W3C//DTD SVG 1.0//EN" "http://www.w3.org/TR/2001/REC-SVG-20010904/DTD/svg10.dtd">
<!-- Creator: CorelDRAW 2017 -->
<svg xmlns="http://www.w3.org/2000/svg" xml:space="preserve" width="286px" height="286px" version="1.0" style="shape-rendering:geometricPrecision; text-rendering:geometricPrecision; image-rendering:optimizeQuality; fill-rule:evenodd; clip-rule:evenodd"
viewBox="0 0 48.49 48.49"
 xmlns:xlink="http://www.w3.org/1999/xlink">
 <defs>
  <style type="text/css">
   <![CDATA[
    .fil0 {fill:none}
    .fil1 {fill:#9B9B9B}
   ]]>
  </style>
 </defs>
 <g id="Слой_x0020_1">
  <metadata id="CorelCorpID_0Corel-Layer"/>
  <g id="_3062795022672">
   <rect class="fil0" width="48.49" height="48.49"/>
   <g>
    <path class="fil1" d="M30.58 14.75l-12.09 0 0 -0.58c0,-0.21 -0.12,-0.41 -0.32,-0.51l-2.3 -1.15 -3.45 -1.73c-0.01,0 -0.05,-0.02 -0.06,-0.02 -0.07,-0.02 -0.13,-0.03 -0.2,-0.05l-2.31 0c-0.31,0 -0.57,0.26 -0.57,0.58l0 0 0 0.58 -1.73 0c-0.32,0 -0.57,0.25 -0.57,0.57 0,0.32 0.25,0.58 0.57,0.58l1.73 0 0 0.57c0,0.32 0.26,0.58 0.57,0.58l2.17 0 3.01 1.5 0 1.59 -3.01 1.52 -2.17 0c-0.31,0 -0.57,0.26 -0.57,0.58l0 0.57 -1.73 0c-0.32,0 -0.57,0.26 -0.57,0.58 0,0.31 0.25,0.57 0.57,0.57l1.73 0 0 0.58c0,0.31 0.26,0.57 0.57,0.57l2.31 0c0.08,0 0.17,-0.03 0.26,-0.05l3.45 -1.73 2.3 -1.15c0.2,-0.1 0.32,-0.3 0.32,-0.52l0 -0.58 4.14 0c-3.98,4.2 -3.98,10.78 0,14.97l-1.84 0 0 -0.58c0,-0.31 -0.26,-0.57 -0.57,-0.57l-8.06 0c-0.32,0 -0.58,0.26 -0.58,0.57l0 0.58 -1.73 0c-0.31,0 -0.57,0.26 -0.57,0.58l0 0.57 -1.73 0c-0.32,0 -0.57,0.26 -0.57,0.58 0,0.31 0.25,0.57 0.57,0.57l1.73 0 0 0.58c0,0.32 0.26,0.57 0.57,0.57l1.73 0 0 0.58c0,0.32 0.26,0.58 0.58,0.58l8.06 0c0.31,0 0.57,-0.26 0.57,-0.58l0 -0.58 9.79 0c6.03,0 10.93,-4.9 10.93,-10.93 0,-6.04 -4.9,-10.94 -10.93,-10.94zm-19 -1.73l-1.15 0 0 -1.15 1.15 0 0 1.15zm0 8.06l-1.15 0 0 -1.15 1.15 0 0 1.15zm3.45 -1.5l-2.3 1.15 0 -1.01 2.3 -1.16 0 1.02zm0 -5.18l-2.3 -1.15 0 -1.03 2.3 1.16 0 1.02zm2.31 4.03l-1.15 0.57 0 -5.04 1.15 0.57 0 3.9zm-5.76 17.04l-1.15 0 0 -1.15 1.15 0 0 1.15zm8.06 1.15l-1.15 0 0 -2.3 -1.15 0 0 2.3 -1.15 0 0 -2.3 -1.16 0 0 2.3 -2.3 0 0 -3.45 6.91 0 0 3.45zm-1.15 -19.57l0 -1.15 7.23 0c-0.65,0.33 -1.26,0.71 -1.84,1.15l-5.39 0zm2.3 18.42l0 -1.15 3.09 0c0.57,0.45 1.19,0.83 1.84,1.15l-4.93 0zm9.79 0c-5.41,0 -9.79,-4.38 -9.79,-9.78 0,-5.41 4.38,-9.79 9.79,-9.79 5.4,0 9.78,4.38 9.78,9.79 0,5.4 -4.38,9.78 -9.78,9.78z"/>
    <path class="fil1" d="M30.58 17.05c-4.77,0 -8.64,3.87 -8.64,8.64 0,4.77 3.87,8.63 8.64,8.63 4.77,0 8.63,-3.86 8.63,-8.63 -0.01,-4.77 -3.87,-8.63 -8.63,-8.64zm0 16.12c-4.13,0 -7.49,-3.35 -7.49,-7.48 0,-4.13 3.36,-7.49 7.49,-7.49 4.13,0 7.48,3.36 7.48,7.49 -0.01,4.13 -3.35,7.47 -7.48,7.48z"/>
    <path class="fil1" d="M30.58 19.36c-3.5,0 -6.34,2.83 -6.34,6.33 0,3.49 2.84,6.33 6.34,6.33 3.49,0 6.33,-2.84 6.33,-6.33 -0.01,-3.5 -2.84,-6.33 -6.33,-6.33zm0 11.51c-2.87,0 -5.18,-2.32 -5.18,-5.18 0,-2.87 2.31,-5.18 5.18,-5.18 2.86,0 5.18,2.31 5.18,5.18 0,2.85 -2.33,5.18 -5.18,5.18z"/>
    <path class="fil1" d="M30.58 21.66c-2.23,0 -4.03,1.8 -4.03,4.03 0,2.22 1.8,4.03 4.03,4.03 2.22,0 4.03,-1.81 4.03,-4.03 0,-2.23 -1.81,-4.03 -4.03,-4.03zm0 6.91c-1.59,0 -2.88,-1.29 -2.88,-2.88 0,-1.59 1.29,-2.88 2.88,-2.88 1.59,0 2.87,1.29 2.87,2.88 0,1.59 -1.28,2.88 -2.87,2.88z"/>
   </g>
  </g>
 </g>
</svg>
