<?xml version="1.0" encoding="UTF-8"?>
<!DOCTYPE svg PUBLIC "-//W3C//DTD SVG 1.0//EN" "http://www.w3.org/TR/2001/REC-SVG-20010904/DTD/svg10.dtd">
<!-- Creator: CorelDRAW 2017 -->
<svg xmlns="http://www.w3.org/2000/svg" xml:space="preserve" width="286px" height="286px" version="1.0" style="shape-rendering:geometricPrecision; text-rendering:geometricPrecision; image-rendering:optimizeQuality; fill-rule:evenodd; clip-rule:evenodd"
viewBox="0 0 218.65 218.65"
 xmlns:xlink="http://www.w3.org/1999/xlink">
 <defs>
  <style type="text/css">
   <![CDATA[
    .fil0 {fill:none}
    .fil1 {fill:#9B9B9B}
   ]]>
  </style>
 </defs>
 <g id="Слой_x0020_1">
  <metadata id="CorelCorpID_0Corel-Layer"/>
  <g id="_3062803271120">
   <rect class="fil0" width="218.65" height="218.65"/>
   <g>
    <path class="fil1" d="M111.32 82.81c0,1.1 -0.89,1.99 -2,1.99 -1.1,0 -1.99,-0.89 -1.99,-1.99 0,-1.1 0.89,-2 1.99,-2 1.11,0 2,0.9 2,2zm0 0z"/>
    <path class="fil1" d="M101.62 69.96c4.75,-2.85 10.65,-2.85 15.4,0 0.32,0.19 0.68,0.29 1.02,0.29 0.68,0 1.33,-0.35 1.71,-0.97 0.56,-0.94 0.26,-2.16 -0.68,-2.72 -6.01,-3.61 -13.48,-3.61 -19.49,0 -0.94,0.56 -1.24,1.78 -0.68,2.72 0.57,0.94 1.78,1.25 2.72,0.68zm0 0z"/>
    <path class="fil1" d="M115.38 76.57c0.56,-0.94 0.26,-2.16 -0.68,-2.73 -3.32,-1.99 -7.44,-1.99 -10.75,0 -0.94,0.57 -1.24,1.79 -0.68,2.73 0.56,0.94 1.78,1.24 2.72,0.68 2.06,-1.24 4.61,-1.24 6.66,0 0.32,0.19 0.68,0.28 1.02,0.28 0.68,0 1.34,-0.35 1.71,-0.96l0 0zm0 0z"/>
    <path class="fil1" d="M172.95 70.23l-4.24 0c-2.26,0 -4.1,1.84 -4.1,4.1l0 6.5 -4.52 0 0 -4.38c0,-0.66 -0.32,-1.27 -0.87,-1.64 -0.55,-0.37 -1.24,-0.44 -1.85,-0.2l-42.42 16.97c-0.75,0.3 -1.25,1.03 -1.25,1.84l0 59.39c0,0.66 0.33,1.27 0.87,1.64 0.34,0.23 0.73,0.35 1.12,0.35 0.25,0 0.5,-0.05 0.73,-0.15l42.42 -16.97c0.76,-0.3 1.25,-1.03 1.25,-1.84l0 -4.38 4.52 0 0 8.62c0,1.1 0.88,1.99 1.98,1.99l8.49 0c1.09,0 1.98,-0.89 1.98,-1.99l0 -65.75c0,-2.26 -1.84,-4.1 -4.11,-4.1l0 0zm-4.37 4.1c0,-0.07 0.06,-0.13 0.13,-0.13l4.24 0c0.08,0 0.14,0.06 0.14,0.13l0 6.5 -4.51 0 0 -6.5zm-33.94 13.65l4.51 -1.81 0 55.11 -4.51 1.81 0 -55.11zm-3.97 56.7l-4.51 1.81 0 -55.12 4.51 -1.8 0 55.11zm-13 -49.92l4.52 -1.8 0 55.11 -4.52 1.81 0 -55.12zm38.45 39.74l-4.51 1.8 0 -38.64c0,-1.09 -0.89,-1.98 -1.99,-1.98 -1.09,0 -1.98,0.89 -1.98,1.98l0 40.23 -4.52 1.81 0 -55.12 4.52 -1.8 0 6.4c0,1.09 0.89,1.98 1.98,1.98 1.1,0 1.99,-0.89 1.99,-1.98l0 -7.99 4.51 -1.81 0 55.12zm3.97 -7.01l0 -42.69 4.52 0 0 42.69 -4.52 0zm8.49 10.61l0 -53.3 4.51 0 0 53.3 -4.51 0zm0 0z"/>
    <path class="fil1" d="M103.7 91.58l-42.42 -16.97c-0.61,-0.24 -1.31,-0.17 -1.85,0.2 -0.55,0.37 -0.87,0.98 -0.87,1.64l0 4.38 -4.52 0 0 -6.5c0,-2.26 -1.84,-4.1 -4.11,-4.1l-4.24 0c-2.26,0 -4.1,1.84 -4.1,4.1l0 65.75c0,1.1 0.89,1.99 1.98,1.99l8.48 0c1.1,0 1.99,-0.89 1.99,-1.99l0 -8.62 4.52 0 0 4.38c0,0.81 0.49,1.54 1.24,1.84l42.42 16.97c0.24,0.1 0.49,0.14 0.74,0.14 0.39,0 0.78,-0.11 1.11,-0.34 0.55,-0.37 0.87,-0.98 0.87,-1.64l0 -59.39c0,-0.81 -0.49,-1.54 -1.24,-1.84zm-15.72 -2.01l4.51 1.8 0 55.12 -4.51 -1.81 0 -55.11zm-3.97 53.52l-4.52 -1.81 0 -55.11 4.52 1.81 0 55.11zm-38.32 -68.89l4.24 0c0.08,0 0.14,0.06 0.14,0.13l0 6.5 -4.51 0 0 -6.5c0,-0.07 0.06,-0.13 0.13,-0.13zm4.38 63.9l-4.51 0 0 -53.3 4.51 0 0 53.3zm3.97 -10.61l0 -42.69 4.52 0 0 42.69 -4.52 0zm8.48 -48.11l4.52 1.81 0 39.8c0,1.1 0.89,1.99 1.98,1.99 1.1,0 1.99,-0.89 1.99,-1.99l0 -38.21 4.51 1.8 0 55.12 -4.51 -1.81 0 -8.41c0,-1.1 -0.89,-1.99 -1.99,-1.99 -1.09,0 -1.98,0.89 -1.98,1.99l0 6.82 -4.52 -1.8 0 -55.12zm38.46 70.5l-4.52 -1.81 0 -55.11 4.52 1.8 0 55.12zm0 0z"/>
   </g>
  </g>
 </g>
</svg>
