<?xml version="1.0" encoding="UTF-8"?>
<!DOCTYPE svg PUBLIC "-//W3C//DTD SVG 1.0//EN" "http://www.w3.org/TR/2001/REC-SVG-20010904/DTD/svg10.dtd">
<!-- Creator: CorelDRAW 2017 -->
<svg xmlns="http://www.w3.org/2000/svg" xml:space="preserve" width="286px" height="286px" version="1.0" style="shape-rendering:geometricPrecision; text-rendering:geometricPrecision; image-rendering:optimizeQuality; fill-rule:evenodd; clip-rule:evenodd"
viewBox="0 0 218.65 218.65"
 xmlns:xlink="http://www.w3.org/1999/xlink">
 <defs>
  <style type="text/css">
   <![CDATA[
    .fil0 {fill:none}
    .fil1 {fill:#9B9B9B}
    .fil2 {fill:#9B9B9B;fill-rule:nonzero}
   ]]>
  </style>
 </defs>
 <g id="Слой_x0020_1">
  <metadata id="CorelCorpID_0Corel-Layer"/>
  <g id="_3062801282464">
   <rect class="fil0" width="218.65" height="218.65"/>
   <g>
    <path class="fil1" d="M152.93 170.01l-13.26 0 0 -7.14 8.07 -5.04 0 -9.11 -3.78 0 0 7.02 -4.29 2.67 0 -13.56c3.61,-0.86 6.3,-4.1 6.3,-7.97 0,-4.51 -3.67,-8.18 -8.18,-8.18 -4.52,0 -8.19,3.67 -8.19,8.18 0,3.87 2.69,7.11 6.3,7.97l0 25.16 -13.1 0 0 -39.72 13.6 -10.89 0 -37.93 -3.78 0 0 36.12 -9.82 7.86 0 -10.45 4.16 -4.16 0 -37.18 -3.78 0 0 35.62 -4.16 4.15 0 26.14 -7.56 6.35 0 -46.91c3.61,-0.86 6.3,-4.11 6.3,-7.97 0,-4.51 -3.67,-8.18 -8.18,-8.18 -4.52,0 -8.19,3.67 -8.19,8.18 0,3.86 2.69,7.11 6.3,7.97l0 15.18 -12.22 -12.22 0 -28.56 -3.78 0 0 30.13 16 15.99 0 39.2 -7.56 -6.35 0 -8.47 -7.3 -7.3 0 -6.37c3.6,-0.86 6.29,-4.1 6.29,-7.97 0,-4.51 -3.67,-8.18 -8.18,-8.18 -4.52,0 -8.19,3.67 -8.19,8.18 0,3.87 2.69,7.11 6.3,7.97l0 7.93 7.3 7.3 0 24.54 -8.82 0 0 -14.44 -4.33 -4.99c0.98,-1.19 1.57,-2.72 1.57,-4.38 0,-3.82 -3.11,-6.92 -6.93,-6.92 -3.82,0 -6.93,3.1 -6.93,6.92 0,3.82 3.11,6.93 6.93,6.93 0.78,0 1.54,-0.13 2.24,-0.37l3.68 4.23 0 13.02 -8.33 0 0 3.77 79.44 0 1.93 0 0 -1.93 0 -44.33 0 -12.74c0,-1.06 -0.87,-1.93 -1.93,-1.93l0 0c-1.07,0 -1.94,0.87 -1.94,1.93l0 55.23zm-19.55 -33.13c0,-2.43 1.97,-4.4 4.41,-4.4 2.43,0 4.4,1.97 4.4,4.4 0,2.44 -1.97,4.41 -4.4,4.41 -2.44,0 -4.41,-1.97 -4.41,-4.41zm-46.85 -14.61c0,-2.43 1.97,-4.4 4.41,-4.4 2.43,0 4.4,1.97 4.4,4.4 0,2.43 -1.97,4.41 -4.4,4.41 -2.44,0 -4.41,-1.98 -4.41,-4.41zm-8.69 27.08c-1.74,0 -3.15,-1.41 -3.15,-3.15 0,-1.73 1.41,-3.14 3.15,-3.14 1.73,0 3.15,1.41 3.15,3.14 0,1.74 -1.42,3.15 -3.15,3.15zm29.85 20.66l-7.56 0 0 -12.7 7.56 6.36 0 6.34zm-2.52 -78.97c0,-2.43 1.97,-4.41 4.41,-4.41 2.42,0 4.4,1.98 4.4,4.41 0,2.43 -1.98,4.41 -4.4,4.41 -2.44,0 -4.41,-1.98 -4.41,-4.41zm13.85 78.97l-7.56 0 0 -19.15 7.56 -6.35 0 25.5z"/>
    <path class="fil2" d="M152.93 170.37l-13.62 0 0 -7.71 8.06 -5.03 0 -8.54 -3.05 0 0 6.85 -5.01 3.13 0 -14.51 0.28 -0.07c1.74,-0.41 3.26,-1.41 4.33,-2.77 1.06,-1.33 1.68,-3.01 1.68,-4.84 0,-2.15 -0.87,-4.11 -2.29,-5.52 -1.41,-1.42 -3.37,-2.29 -5.52,-2.29 -2.16,0 -4.12,0.87 -5.53,2.29 -1.42,1.41 -2.29,3.37 -2.29,5.52 0,1.83 0.63,3.51 1.68,4.84 1.07,1.36 2.59,2.36 4.33,2.77l0.28 0.07 0 25.81 -13.83 0 0 -40.26 13.6 -10.88 0 -37.39 -3.04 0 0 35.92c-3.51,2.83 -7.04,5.64 -10.56,8.45l0 -11.36 4.16 -4.16 0 -36.66 -3.05 0 0 35.4 -4.15 4.15 0 26.16c-2.76,2.33 -5.53,4.65 -8.29,6.97l0 -47.99 0.28 -0.07c1.74,-0.42 3.26,-1.41 4.33,-2.77 1.05,-1.33 1.68,-3.01 1.68,-4.84 0,-2.15 -0.87,-4.11 -2.29,-5.52 -1.41,-1.42 -3.37,-2.3 -5.52,-2.3 -2.16,0 -4.12,0.88 -5.53,2.3 -1.42,1.41 -2.29,3.37 -2.29,5.52 0,1.83 0.63,3.51 1.68,4.84 1.07,1.36 2.59,2.36 4.33,2.77l0.28 0.07 0 16.35 -12.95 -12.95 0 -28.34 -3.04 0 0 29.6 15.99 16 0 40.14c-2.76,-2.33 -5.53,-4.64 -8.29,-6.98l0 -8.48 -7.3 -7.3 0 -6.81 0.28 -0.07c1.74,-0.41 3.26,-1.41 4.33,-2.77 1.06,-1.33 1.68,-3.01 1.68,-4.84 0,-2.15 -0.87,-4.11 -2.29,-5.52 -1.41,-1.42 -3.37,-2.29 -5.52,-2.29 -2.16,0 -4.12,0.87 -5.53,2.29 -1.41,1.41 -2.29,3.37 -2.29,5.52 0,1.83 0.63,3.51 1.68,4.84 1.07,1.36 2.59,2.36 4.33,2.77l0.28 0.07 0 8.07 7.31 7.3 0 25.05 -9.55 0 0 -14.66 -4.45 -5.12 0.19 -0.24c0.47,-0.57 0.85,-1.23 1.11,-1.95 0.24,-0.68 0.38,-1.43 0.38,-2.2 0,-1.8 -0.74,-3.45 -1.93,-4.63 -1.18,-1.19 -2.82,-1.93 -4.63,-1.93 -1.81,0 -3.45,0.74 -4.64,1.93 -1.19,1.18 -1.92,2.82 -1.92,4.63 0,1.81 0.73,3.45 1.92,4.64 1.19,1.19 2.83,1.92 4.64,1.92 0.37,0 0.73,-0.03 1.07,-0.09 0.36,-0.06 0.71,-0.14 1.05,-0.26l0.23 -0.08 3.93 4.52 0 13.52 -8.33 0 0 3.05 80.65 0 0 -58.64c0,-0.43 -0.18,-0.82 -0.47,-1.1 -0.28,-0.29 -0.67,-0.47 -1.1,-0.47 -0.44,0 -0.83,0.18 -1.11,0.47 -0.29,0.28 -0.46,0.67 -0.46,1.1l0 55.59 -0.37 0zm-12.89 -0.73l12.52 0 0 -54.86c0,-0.63 0.26,-1.21 0.68,-1.62 0.41,-0.42 0.99,-0.68 1.63,-0.68 0.63,0 1.21,0.26 1.62,0.68 0.42,0.41 0.68,0.99 0.68,1.62l0 59.37 -82.11 0 0 -4.51 8.33 0 0 -12.52 -3.43 -3.94c-0.3,0.09 -0.61,0.16 -0.92,0.22 -0.4,0.06 -0.8,0.1 -1.2,0.1 -2.01,0 -3.84,-0.82 -5.16,-2.14 -1.32,-1.32 -2.14,-3.15 -2.14,-5.16 0,-2 0.82,-3.83 2.14,-5.15 1.32,-1.32 3.15,-2.14 5.16,-2.14 2.01,0 3.83,0.82 5.15,2.14 1.32,1.32 2.14,3.14 2.14,5.15 0,0.86 -0.15,1.69 -0.42,2.45 -0.25,0.69 -0.6,1.34 -1.04,1.92l4.23 4.87 0 14.2 8.08 0 0 -24.01 -7.3 -7.31 0 -7.8c-1.78,-0.48 -3.34,-1.54 -4.46,-2.95 -1.15,-1.46 -1.84,-3.3 -1.84,-5.3 0,-2.35 0.96,-4.49 2.51,-6.04 1.55,-1.55 3.69,-2.51 6.05,-2.51 2.35,0 4.49,0.96 6.04,2.51 1.55,1.55 2.51,3.69 2.51,6.04 0,2 -0.69,3.84 -1.84,5.3 -1.12,1.41 -2.67,2.47 -4.46,2.95l0 5.93 7.31 7.31 0 8.45 6.82 5.73 0 -38.26 -16 -15.99 0 -30.65 4.52 0 0 28.78 11.48 11.48 0 -14.01c-1.78,-0.49 -3.34,-1.54 -4.46,-2.96 -1.15,-1.45 -1.84,-3.29 -1.84,-5.29 0,-2.36 0.96,-4.49 2.51,-6.04 1.55,-1.55 3.69,-2.51 6.05,-2.51 2.35,0 4.49,0.96 6.04,2.51 1.55,1.55 2.51,3.68 2.51,6.04 0,2 -0.69,3.84 -1.84,5.29 -1.12,1.42 -2.67,2.47 -4.46,2.96l0 45.85 6.82 -5.74 0 -26.12 4.16 -4.15 0 -35.84 4.51 0 0 37.7 -4.15 4.16 0 9.54 9.09 -7.28 0 -36.31 4.51 0 0 38.48 -13.6 10.88 0 39.18 12.36 0 0 -24.51c-1.78,-0.49 -3.34,-1.54 -4.46,-2.95 -1.15,-1.46 -1.84,-3.3 -1.84,-5.3 0,-2.35 0.96,-4.49 2.51,-6.04 1.55,-1.55 3.69,-2.51 6.05,-2.51 2.35,0 4.49,0.96 6.04,2.51 1.55,1.55 2.51,3.69 2.51,6.04 0,2 -0.69,3.84 -1.84,5.3 -1.12,1.41 -2.67,2.46 -4.46,2.95l0 12.62 3.55 -2.22 0 -7.18 4.51 0 0 9.68 -8.06 5.04 0 6.57zm-7.03 -32.76c0,-1.31 0.54,-2.51 1.4,-3.37 0.87,-0.87 2.06,-1.4 3.38,-1.4 1.31,0 2.51,0.53 3.37,1.4 0.87,0.86 1.4,2.06 1.4,3.37 0,1.32 -0.53,2.51 -1.4,3.38 -0.86,0.86 -2.06,1.4 -3.37,1.4 -1.32,0 -2.51,-0.54 -3.38,-1.4 -0.86,-0.87 -1.4,-2.06 -1.4,-3.38zm1.92 -2.85c-0.73,0.73 -1.18,1.74 -1.18,2.85 0,1.12 0.45,2.13 1.18,2.86 0.73,0.73 1.74,1.18 2.86,1.18 1.11,0 2.12,-0.45 2.85,-1.18 0.73,-0.73 1.19,-1.74 1.19,-2.86 0,-1.11 -0.46,-2.12 -1.19,-2.85 -0.73,-0.73 -1.74,-1.19 -2.85,-1.19 -1.12,0 -2.13,0.46 -2.86,1.19zm-48.77 -11.76c0,-1.31 0.54,-2.51 1.4,-3.37 0.86,-0.86 2.06,-1.4 3.38,-1.4 1.31,0 2.51,0.54 3.37,1.4 0.86,0.86 1.4,2.06 1.4,3.37 0,1.32 -0.54,2.52 -1.4,3.38 -0.86,0.86 -2.06,1.4 -3.37,1.4 -1.32,0 -2.52,-0.54 -3.38,-1.4 -0.86,-0.87 -1.4,-2.06 -1.4,-3.38zm1.92 -2.85c-0.73,0.73 -1.18,1.74 -1.18,2.85 0,1.12 0.45,2.13 1.18,2.86 0.73,0.73 1.74,1.19 2.86,1.19 1.11,0 2.12,-0.46 2.85,-1.19 0.73,-0.73 1.19,-1.74 1.19,-2.86 0,-1.11 -0.46,-2.12 -1.19,-2.85 -0.73,-0.73 -1.74,-1.19 -2.85,-1.19 -1.12,0 -2.13,0.46 -2.86,1.19zm-10.24 30.3c-0.97,0 -1.85,-0.4 -2.49,-1.03 -0.63,-0.64 -1.03,-1.52 -1.03,-2.49 0,-0.96 0.4,-1.85 1.03,-2.48 0.64,-0.64 1.52,-1.03 2.49,-1.03 0.97,0 1.85,0.39 2.48,1.03 0.64,0.63 1.03,1.52 1.03,2.48 0,0.97 -0.39,1.85 -1.03,2.49 -0.63,0.63 -1.51,1.03 -2.48,1.03zm-1.97 -1.55c0.5,0.5 1.2,0.82 1.97,0.82 0.76,0 1.46,-0.32 1.96,-0.82 0.51,-0.5 0.82,-1.2 0.82,-1.97 0,-0.76 -0.31,-1.46 -0.82,-1.96 -0.5,-0.5 -1.2,-0.82 -1.96,-0.82 -0.77,0 -1.47,0.32 -1.97,0.82 -0.5,0.5 -0.81,1.2 -0.81,1.96 0,0.77 0.31,1.47 0.81,1.97zm31.82 22.2l-7.93 0 0 -13.84 8.29 6.97 0 6.87 -0.36 0zm-7.19 -0.73l6.82 0 0 -5.8 -6.82 -5.74 0 11.54zm4.3 -78.6c0,-1.31 0.54,-2.51 1.4,-3.37 0.87,-0.87 2.06,-1.4 3.38,-1.4 1.31,0 2.51,0.53 3.37,1.4 0.86,0.86 1.4,2.06 1.4,3.37 0,1.32 -0.54,2.51 -1.4,3.38 -0.87,0.86 -2.06,1.4 -3.37,1.4 -1.32,0 -2.52,-0.54 -3.38,-1.4 -0.86,-0.87 -1.4,-2.06 -1.4,-3.38zm1.92 -2.85c-0.73,0.72 -1.19,1.74 -1.19,2.85 0,1.12 0.46,2.13 1.19,2.86 0.73,0.73 1.74,1.18 2.86,1.18 1.11,0 2.12,-0.45 2.85,-1.18 0.73,-0.73 1.19,-1.74 1.19,-2.86 0,-1.11 -0.46,-2.12 -1.19,-2.85 -0.73,-0.74 -1.74,-1.19 -2.85,-1.19 -1.12,0 -2.13,0.45 -2.86,1.19zm12.3 82.18l-7.92 0 0 -19.68 8.29 -6.97 0 26.65 -0.37 0zm-7.19 -0.73l6.82 0 0 -24.35 -6.82 5.74 0 18.61z"/>
    <path class="fil1" d="M156.8 85.67l0 -15.68 -3.78 0 0 17.42 15.82 14.09c0.85,0.76 2.16,0.66 2.91,-0.19l0 0c0.75,-0.85 0.67,-2.17 -0.19,-2.92l-14.76 -12.72z"/>
    <path class="fil2" d="M156.44 85.67l0 -15.31 -3.05 0 0 16.89 15.7 13.98c0.35,0.31 0.79,0.44 1.22,0.41 0.42,-0.02 0.82,-0.21 1.13,-0.53l0.05 -0.05c0.3,-0.35 0.43,-0.8 0.4,-1.23 -0.02,-0.43 -0.21,-0.85 -0.56,-1.15 -4.87,-4.33 -9.95,-8.57 -14.89,-12.84l0 -0.17zm0.73 -15.68l0 15.52c4.8,4.14 10.03,8.36 14.65,12.63 0.5,0.43 0.77,1.03 0.81,1.65 0.03,0.57 -0.13,1.17 -0.51,1.65l-0.1 0.13c-0.44,0.49 -1.05,0.76 -1.66,0.81 -0.62,0.04 -1.26,-0.16 -1.75,-0.59 -5.21,-4.81 -10.67,-9.47 -15.95,-14.22l0 -17.94 4.51 0 0 0.36z"/>
    <path class="fil1" d="M109.32 49.95l34.89 29.91 0 -23.39 8.81 0 0 9.74 3.78 0 0 -9.74 2.34 0c1.14,0 2.07,-0.93 2.07,-2.07l0 0c0,-1.13 -0.93,-2.06 -2.07,-2.06l-5.85 0 -10.33 0 -4.87 0c-1.14,0 -2.07,0.93 -2.07,2.06l0 0c0,1.14 0.93,2.07 2.07,2.07l2.34 0 0 15.17 -31.11 -26.66 -31.16 26.64c-0.87,0.74 -1,2.11 -0.19,2.92l0 0c0.8,0.8 2.05,0.93 2.91,0.19l28.44 -24.78z"/>
    <path class="fil2" d="M109.56 49.67l34.28 29.39 0 -22.96 9.55 0 0 9.75 3.05 0 0 -9.75 2.7 0c0.47,0 0.9,-0.19 1.2,-0.5 0.31,-0.3 0.5,-0.73 0.5,-1.2 0,-0.46 -0.19,-0.89 -0.5,-1.2 -0.3,-0.3 -0.73,-0.5 -1.2,-0.5l-21.05 0c-0.47,0 -0.89,0.2 -1.2,0.5 -0.31,0.31 -0.5,0.74 -0.5,1.2 0,0.47 0.19,0.9 0.5,1.2 0.31,0.31 0.73,0.5 1.2,0.5l2.71 0 0 16.34 -31.48 -26.98 -31.02 26.53c-0.3,0.3 -0.47,0.7 -0.5,1.1 -0.03,0.39 0.08,0.8 0.35,1.11l0.07 0.08c0.35,0.34 0.79,0.54 1.23,0.57 0.42,0.03 0.85,-0.1 1.19,-0.4l28.68 -24.98 0.24 0.2zm34.41 30.47l-34.64 -29.7 -28.21 24.56c-0.5,0.44 -1.11,0.62 -1.71,0.58 -0.62,-0.04 -1.23,-0.31 -1.7,-0.78l-0.12 -0.13c-0.4,-0.46 -0.56,-1.05 -0.52,-1.63 0.04,-0.58 0.29,-1.14 0.71,-1.57 10.16,-7.62 21.64,-18.51 31.54,-26.98l30.74 26.35 0 -14 -1.97 0c-0.67,0 -1.28,-0.28 -1.72,-0.72 -0.44,-0.44 -0.72,-1.05 -0.72,-1.72 0,-0.67 0.28,-1.28 0.72,-1.72 0.44,-0.44 1.05,-0.71 1.72,-0.71l21.05 0c0.67,0 1.28,0.27 1.72,0.71 0.44,0.44 0.72,1.05 0.72,1.72 0,0.67 -0.28,1.28 -0.72,1.72 -0.44,0.44 -1.05,0.72 -1.72,0.72l-1.97 0 0 9.74 -4.51 0 0 -9.74 -8.08 0 0 23.82 -0.61 -0.52z"/>
    <path class="fil1" d="M154.87 98.72l0 0c1.06,0 1.93,0.88 1.93,1.94l0 6.28c0,1.07 -0.87,1.94 -1.93,1.94l0 0c-1.07,0 -1.94,-0.87 -1.94,-1.94l0 -6.28c0,-1.06 0.87,-1.94 1.94,-1.94z"/>
    <path class="fil1" d="M75.82 75.94l0 0c0.75,0.85 0.66,2.17 -0.19,2.92l-25.82 22.64c-0.86,0.75 -2.17,0.66 -2.92,-0.19l0 0c-0.75,-0.85 -0.66,-2.17 0.19,-2.92l25.82 -22.64c0.86,-0.75 2.17,-0.66 2.92,0.19z"/>
    <path class="fil2" d="M76.1 75.7c0.44,0.5 0.63,1.14 0.59,1.76 -0.04,0.62 -0.32,1.23 -0.82,1.67l-25.82 22.65c-0.5,0.44 -1.14,0.63 -1.76,0.59 -0.62,-0.04 -1.23,-0.32 -1.67,-0.82l-0.09 -0.1c-0.38,-0.49 -0.55,-1.08 -0.51,-1.66 0.04,-0.62 0.32,-1.23 0.82,-1.67l25.82 -22.65c0.5,-0.44 1.15,-0.63 1.76,-0.59 0.63,0.04 1.23,0.32 1.68,0.82zm-0.14 1.71c0.03,-0.43 -0.11,-0.88 -0.42,-1.23 -0.3,-0.35 -0.73,-0.54 -1.16,-0.57 -0.44,-0.03 -0.88,0.11 -1.23,0.42l-25.82 22.64c-0.35,0.31 -0.55,0.73 -0.58,1.17 -0.02,0.42 0.11,0.86 0.4,1.21l0.11 0.11c0.3,0.29 0.68,0.46 1.08,0.48 0.43,0.03 0.88,-0.11 1.23,-0.42l25.82 -22.64c0.35,-0.31 0.54,-0.73 0.57,-1.17z"/>
    <path class="fil1" d="M136.02 47.04l0 0c0,-1.13 0.93,-2.06 2.07,-2.06l21.05 0c1.14,0 2.07,0.93 2.07,2.06l0 0c0,1.14 -0.93,2.07 -2.07,2.07l-21.05 0c-1.14,0 -2.07,-0.93 -2.07,-2.07z"/>
    <path class="fil2" d="M135.65 47.04c0,-0.66 0.28,-1.27 0.72,-1.71 0.44,-0.45 1.05,-0.72 1.72,-0.72l21.05 0c0.67,0 1.28,0.27 1.72,0.71 0.44,0.44 0.72,1.06 0.72,1.72 0,0.67 -0.28,1.28 -0.72,1.72 -0.44,0.44 -1.05,0.72 -1.72,0.72l-21.05 0c-0.67,0 -1.28,-0.28 -1.72,-0.72 -0.44,-0.44 -0.72,-1.05 -0.72,-1.72zm1.24 -1.2c-0.31,0.31 -0.5,0.74 -0.5,1.2 0,0.47 0.19,0.9 0.5,1.2 0.31,0.31 0.73,0.5 1.2,0.5l21.05 0c0.47,0 0.9,-0.19 1.2,-0.5 0.31,-0.3 0.5,-0.73 0.5,-1.2 0,-0.46 -0.19,-0.89 -0.5,-1.2 -0.3,-0.3 -0.73,-0.49 -1.2,-0.49l-21.05 0c-0.47,0 -0.89,0.19 -1.2,0.49z"/>
    <path class="fil1" d="M71.79 100.57l0 0c1.07,0 1.94,0.88 1.94,1.94l0 6.28c0,1.06 -0.87,1.94 -1.94,1.94l0 0c-1.06,0 -1.94,-0.88 -1.94,-1.94l0 -6.28c0,-1.06 0.88,-1.94 1.94,-1.94z"/>
    <path class="fil2" d="M71.79 100.21c0.64,0 1.21,0.26 1.63,0.67 0.42,0.42 0.68,1 0.68,1.63l0 6.28c0,0.63 -0.26,1.21 -0.68,1.63 -0.42,0.41 -0.99,0.67 -1.63,0.67 -0.63,0 -1.21,-0.26 -1.63,-0.67 -0.41,-0.42 -0.67,-1 -0.67,-1.63l0 -6.28c0,-0.63 0.26,-1.21 0.67,-1.63 0.42,-0.41 1,-0.67 1.63,-0.67zm1.11 1.19c-0.28,-0.28 -0.68,-0.46 -1.11,-0.46 -0.43,0 -0.82,0.18 -1.11,0.46 -0.28,0.29 -0.46,0.68 -0.46,1.11l0 6.28c0,0.43 0.18,0.83 0.46,1.11 0.29,0.28 0.68,0.46 1.11,0.46 0.43,0 0.83,-0.18 1.11,-0.46 0.29,-0.28 0.46,-0.68 0.46,-1.11l0 -6.28c0,-0.43 -0.17,-0.82 -0.46,-1.11z"/>
    <path class="fil1" d="M71.74 114.71l0.1 0c1.04,0 1.89,0.85 1.89,1.88l0 0c0,1.04 -0.85,1.89 -1.89,1.89l-0.1 0c-1.04,0 -1.89,-0.85 -1.89,-1.89l0 0c0,-1.03 0.85,-1.88 1.89,-1.88z"/>
    <path class="fil2" d="M71.74 114.34l0.1 0c0.62,0 1.19,0.25 1.59,0.66 0.41,0.41 0.67,0.98 0.67,1.59 0,0.63 -0.26,1.19 -0.67,1.6 -0.4,0.41 -0.97,0.66 -1.59,0.66l-0.1 0c-0.62,0 -1.18,-0.25 -1.59,-0.66 -0.41,-0.41 -0.66,-0.97 -0.66,-1.6 0,-0.61 0.25,-1.18 0.66,-1.59 0.41,-0.41 0.97,-0.66 1.59,-0.66zm0.1 0.73l-0.1 0c-0.42,0 -0.8,0.18 -1.07,0.45 -0.28,0.28 -0.45,0.66 -0.45,1.07 0,0.42 0.17,0.8 0.45,1.08 0.27,0.27 0.65,0.45 1.07,0.45l0.1 0c0.42,0 0.8,-0.18 1.08,-0.45 0.27,-0.28 0.44,-0.66 0.44,-1.08 0,-0.41 -0.17,-0.79 -0.44,-1.07 -0.28,-0.27 -0.66,-0.45 -1.08,-0.45z"/>
    <path class="fil1" d="M62.35 116.54l0 55.31 0 1.93 1.94 0 7.36 0 0 -3.77 -5.43 0 0 -69.37c0,-1.06 -0.87,-1.93 -1.93,-1.93l0 0c-1.07,0 -1.94,0.87 -1.94,1.93l0 15.9z"/>
    <path class="fil2" d="M62.71 116.54l0 56.88 8.57 0 0 -3.05 -5.42 0 0 -69.73c0,-0.43 -0.18,-0.82 -0.47,-1.11 -0.28,-0.28 -0.67,-0.46 -1.1,-0.46 -0.44,0 -0.83,0.18 -1.11,0.46 -0.29,0.29 -0.47,0.68 -0.47,1.11l0 15.9zm-0.73 55.31l0 -71.21c0,-0.63 0.26,-1.21 0.68,-1.62 0.41,-0.42 0.99,-0.68 1.63,-0.68 0.63,0 1.21,0.26 1.62,0.68 0.42,0.41 0.68,0.99 0.68,1.62l0 69 5.43 0 0 4.51 -10.04 0 0 -2.3z"/>
   </g>
  </g>
 </g>
</svg>
