<?xml version="1.0" encoding="UTF-8"?>
<!DOCTYPE svg PUBLIC "-//W3C//DTD SVG 1.0//EN" "http://www.w3.org/TR/2001/REC-SVG-20010904/DTD/svg10.dtd">
<!-- Creator: CorelDRAW 2017 -->
<svg xmlns="http://www.w3.org/2000/svg" xml:space="preserve" width="286px" height="286px" version="1.0" style="shape-rendering:geometricPrecision; text-rendering:geometricPrecision; image-rendering:optimizeQuality; fill-rule:evenodd; clip-rule:evenodd"
viewBox="0 0 79.38 79.38"
 xmlns:xlink="http://www.w3.org/1999/xlink">
 <defs>
  <style type="text/css">
   <![CDATA[
    .fil0 {fill:none}
    .fil1 {fill:#9B9B9B}
   ]]>
  </style>
 </defs>
 <g id="Слой_x0020_1">
  <metadata id="CorelCorpID_0Corel-Layer"/>
  <g id="_3062871477008">
   <rect class="fil0" width="79.38" height="79.38"/>
   <g>
    <path class="fil1" d="M20.77 34.35c0.37,0.08 0.79,-0.18 0.88,-0.5 0.63,-2.25 1.7,-4.32 3.17,-6.15 0.25,-0.31 0.2,-0.76 -0.11,-1.01 -0.31,-0.25 -0.76,-0.2 -1.01,0.11 -1.6,1.98 -2.75,4.23 -3.43,6.66 -0.11,0.39 0.11,0.81 0.5,0.89l0 0zm0 0z"/>
    <path class="fil1" d="M56.3 39.25c0.4,0 0.72,-0.33 0.72,-0.72 0,-10.33 -8.4,-18.73 -18.72,-18.73 -4.47,0 -8.79,1.6 -12.18,4.5 -0.3,0.26 -0.34,0.72 -0.08,1.02 0.26,0.3 0.71,0.34 1.02,0.08 3.12,-2.68 7.11,-4.16 11.24,-4.16 9.53,0 17.28,7.76 17.28,17.29 0,0.39 0.32,0.72 0.72,0.72l0 0zm0 0z"/>
    <path class="fil1" d="M52.37 39.68c0.02,0 0.04,0 0.06,0 0.39,-0.03 0.69,-0.38 0.66,-0.78 -0.25,-3.01 -1.09,-5.85 -2.51,-8.44 -1.15,-2.11 -2.89,-3.88 -5.02,-5.14 -2.19,-1.29 -4.7,-1.98 -7.26,-1.98 -6.72,0 -12.66,4.49 -14.45,10.93 -0.07,0.23 -0.14,0.55 -0.23,0.96 -0.13,0.62 -0.63,1.09 -1.26,1.17 -0.6,0.07 -1.29,0.13 -2.05,0.16 -0.4,0.01 -0.71,0.35 -0.69,0.75 0.01,0.4 0.35,0.7 0.75,0.69 0.8,-0.03 1.53,-0.09 2.17,-0.17 1.24,-0.16 2.24,-1.08 2.49,-2.31 0.08,-0.38 0.15,-0.67 0.2,-0.87 1.62,-5.81 6.99,-9.87 13.07,-9.87 2.3,0 4.56,0.62 6.53,1.78 1.91,1.13 3.46,2.71 4.48,4.59 1.32,2.41 2.11,5.06 2.34,7.87 0.03,0.38 0.35,0.66 0.72,0.66l0 0zm0 0z"/>
    <path class="fil1" d="M49.16 40.68l0.02 0c0.39,0 0.71,-0.31 0.72,-0.7 0.02,-0.66 0,-1.22 -0.06,-1.68 -0.05,-2.96 -1.23,-5.75 -3.31,-7.87 -0.28,-0.29 -0.74,-0.29 -1.02,-0.01 -0.29,0.28 -0.29,0.74 -0.01,1.02 1.83,1.86 2.86,4.32 2.9,6.92 0.01,0.03 0.01,0.06 0.01,0.09 0.05,0.38 0.07,0.89 0.05,1.49 -0.01,0.4 0.3,0.73 0.7,0.74l0 0zm0 0z"/>
    <path class="fil1" d="M20.36 41.45l0.1 -0.01c2.22,-0.08 4.06,-0.36 5.46,-0.83 1.3,-0.43 2.21,-1.61 2.32,-3.01 0.02,-0.27 0.05,-0.54 0.09,-0.8 0.41,-2.32 1.62,-4.44 3.42,-5.97 1.83,-1.56 4.15,-2.41 6.55,-2.41 1.62,0 3.24,0.39 4.67,1.15 0.36,0.18 0.79,0.04 0.98,-0.31 0.18,-0.35 0.05,-0.79 -0.31,-0.97 -1.63,-0.86 -3.48,-1.31 -5.34,-1.31 -2.74,0 -5.4,0.97 -7.48,2.75 -2.06,1.75 -3.45,4.18 -3.91,6.83 -0.05,0.3 -0.09,0.62 -0.11,0.93 -0.06,0.82 -0.58,1.51 -1.33,1.75 -0.88,0.3 -2.47,0.66 -5.07,0.76l-0.09 0.01c-0.4,0.01 -0.71,0.35 -0.7,0.75 0.02,0.38 0.34,0.69 0.72,0.69 0.01,0 0.02,0 0.03,0l0 0zm0 0z"/>
    <path class="fil1" d="M40.13 55.68c-0.74,0.45 -1.53,0.86 -2.35,1.22 -0.37,0.16 -0.53,0.59 -0.37,0.95 0.12,0.27 0.38,0.43 0.66,0.43 0.1,0 0.19,-0.02 0.29,-0.06 0.88,-0.38 1.73,-0.83 2.52,-1.32 0.34,-0.21 0.45,-0.65 0.24,-0.99 -0.21,-0.34 -0.66,-0.44 -0.99,-0.23l0 0zm0 0z"/>
    <path class="fil1" d="M45.56 42.2c0.4,0.04 0.75,-0.25 0.79,-0.64 0.18,-1.66 0.07,-2.83 0.05,-3.07 -0.02,-4.45 -3.65,-8.07 -8.1,-8.07 -3.96,0 -7.32,2.83 -7.99,6.72 -0.09,0.52 -0.11,1.09 -0.08,1.72 0.02,0.39 -0.05,1.16 -0.78,1.97 -0.98,1.07 -3.32,2.4 -8.91,2.62 -0.4,0.01 -0.71,0.35 -0.69,0.75 0.01,0.39 0.33,0.69 0.72,0.69 0,0 0.01,0 0.02,0 4.9,-0.19 8.24,-1.23 9.93,-3.09 1.08,-1.2 1.19,-2.41 1.15,-3.02 -0.03,-0.53 -0.01,-0.98 0.06,-1.39 0.55,-3.2 3.31,-5.53 6.57,-5.53 3.67,0 6.66,2.99 6.66,6.67 0,0.02 0,0.05 0,0.08 0.01,0.01 0.13,1.14 -0.04,2.8 -0.04,0.39 0.25,0.75 0.64,0.79zm0 0z"/>
    <path class="fil1" d="M41.13 51.19c-0.27,-0.29 -0.72,-0.32 -1.02,-0.06 -2.38,2.11 -5.6,3.52 -9.56,4.2 -0.39,0.06 -0.65,0.44 -0.58,0.83 0.05,0.35 0.36,0.6 0.7,0.6 0.04,0 0.09,-0.01 0.13,-0.01 4.22,-0.72 7.68,-2.25 10.26,-4.54 0.3,-0.26 0.33,-0.72 0.07,-1.02l0 0zm0 0z"/>
    <path class="fil1" d="M43.14 38.5c-0.02,-2.66 -2.18,-4.82 -4.84,-4.82 -2.37,0 -4.37,1.69 -4.77,4.02 -0.05,0.27 -0.06,0.59 -0.04,0.98 0.05,0.89 -0.09,2.65 -1.63,4.34 -1.58,1.75 -4.09,2.85 -7.67,3.38 -0.96,0.07 -1.87,0.15 -2.72,0.23 -0.39,0.04 -0.68,0.39 -0.65,0.78 0.04,0.4 0.39,0.69 0.79,0.65 0.84,-0.08 1.76,-0.16 2.72,-0.23 0.01,0 0.03,0 0.04,0 3.94,-0.58 6.74,-1.83 8.56,-3.84 1.89,-2.08 2.06,-4.27 2,-5.4 -0.02,-0.27 -0.01,-0.49 0.01,-0.65 0.29,-1.63 1.7,-2.82 3.36,-2.82 1.87,0 3.4,1.53 3.4,3.41 0,0.02 0,0.04 0,0.06 0.01,0.05 0.41,5.3 -2.88,8.94 -1.82,2.02 -6.1,4.41 -12.65,5.04 -0.4,0.04 -0.69,0.39 -0.65,0.79 0.04,0.37 0.35,0.65 0.72,0.65 0.02,0 0.05,0 0.07,-0.01 5.82,-0.56 11.03,-2.67 13.58,-5.5 3.61,-4 3.29,-9.49 3.25,-10l0 0zm0 0z"/>
    <path class="fil1" d="M30.93 48.02c-0.96,0.41 -1.99,0.76 -3.07,1.02 -1.4,0.35 -2.89,0.56 -4.45,0.64 -0.39,0.02 -0.7,0.35 -0.68,0.75 0.02,0.39 0.34,0.69 0.72,0.69 0.01,0 0.02,0 0.04,-0.01 1.64,-0.08 3.22,-0.3 4.71,-0.67 1.16,-0.28 2.27,-0.65 3.31,-1.1 1.98,-0.86 3.71,-2.02 5.16,-3.46 1.51,-1.49 2.31,-3.9 2.26,-6.77 0,-0.02 0,-0.04 0,-0.06 0.01,-0.2 -0.06,-0.41 -0.21,-0.56 -0.28,-0.29 -0.74,-0.29 -1.02,0 -0.22,0.22 -0.22,0.46 -0.21,0.65 0.04,2.47 -0.61,4.51 -1.84,5.72 -1.31,1.31 -2.9,2.37 -4.72,3.16l0 0zm0 0z"/>
    <path class="fil1" d="M51.11 53.34c-0.4,0 -0.72,0.32 -0.72,0.72l0 1.45c0,0.39 0.32,0.72 0.72,0.72 0.39,0 0.72,-0.33 0.72,-0.72l0 -1.45c0,-0.4 -0.33,-0.72 -0.72,-0.72zm0 0z"/>
    <path class="fil1" d="M53.3 53.34c-0.4,0 -0.72,0.32 -0.72,0.72l0 1.45c0,0.39 0.32,0.72 0.72,0.72 0.4,0 0.72,-0.33 0.72,-0.72l0 -1.45c0,-0.4 -0.32,-0.72 -0.72,-0.72zm0 0z"/>
    <path class="fil1" d="M55.49 53.34c-0.39,0 -0.72,0.32 -0.72,0.72l0 1.45c0,0.39 0.33,0.72 0.72,0.72 0.4,0 0.73,-0.33 0.73,-0.72l0 -1.45c0,-0.4 -0.33,-0.72 -0.73,-0.72zm0 0z"/>
    <path class="fil1" d="M53.3 41.6c-6.05,0 -10.98,4.92 -10.98,10.97 0,6.06 4.93,10.98 10.98,10.98 6.05,0 10.98,-4.92 10.98,-10.98 0,-6.05 -4.93,-10.97 -10.98,-10.97zm0 20.51c-5.26,0 -9.54,-4.28 -9.54,-9.54 0,-5.25 4.28,-9.53 9.54,-9.53 5.26,0 9.54,4.28 9.54,9.53 0,5.26 -4.28,9.54 -9.54,9.54zm0 0z"/>
    <path class="fil1" d="M42.89 60.34c-1.49,0.32 -3.03,0.48 -4.57,0.48 -5.82,0 -11.29,-2.26 -15.4,-6.38 -4.12,-4.11 -6.38,-9.58 -6.38,-15.4 0,-5.81 2.26,-11.28 6.38,-15.4 4.11,-4.11 9.58,-6.38 15.4,-6.38 5.81,0 11.28,2.27 15.4,6.38 4.11,4.12 6.37,9.59 6.37,15.4 0,0.81 -0.04,1.62 -0.13,2.42 -0.04,0.4 0.24,0.76 0.64,0.8 0.39,0.04 0.75,-0.24 0.79,-0.64 0.1,-0.85 0.15,-1.72 0.15,-2.58 0,-6.2 -2.42,-12.03 -6.81,-16.42 -4.38,-4.38 -10.21,-6.8 -16.41,-6.8 -6.21,0 -12.04,2.42 -16.42,6.8 -4.39,4.39 -6.8,10.22 -6.8,16.42 0,6.2 2.41,12.04 6.8,16.42 4.38,4.39 10.21,6.8 16.42,6.8 1.64,0 3.28,-0.17 4.87,-0.51 0.39,-0.09 0.64,-0.47 0.56,-0.86 -0.09,-0.39 -0.47,-0.63 -0.86,-0.55l0 0zm0 0z"/>
    <path class="fil1" d="M57.55 50.39l-0.14 0 0 -1.26c0,-2.27 -1.85,-4.11 -4.11,-4.11 -2.26,0 -4.1,1.84 -4.1,4.11l0 1.26 -0.15 0c-0.63,0 -1.14,0.52 -1.14,1.15l0 6.08c0,0.63 0.51,1.14 1.14,1.14l8.5 0c0.63,0 1.14,-0.51 1.14,-1.14l0 -6.08c0,-0.63 -0.51,-1.15 -1.14,-1.15zm-6.91 -1.26c0,-1.47 1.19,-2.67 2.66,-2.67 1.47,0 2.66,1.2 2.66,2.67l0 1.26 -5.32 0 0 -1.26zm6.61 8.19l-7.9 0 0 -5.48 7.9 0 0 5.48zm0 0z"/>
   </g>
  </g>
 </g>
</svg>
