<?xml version="1.0" encoding="UTF-8"?>
<!DOCTYPE svg PUBLIC "-//W3C//DTD SVG 1.0//EN" "http://www.w3.org/TR/2001/REC-SVG-20010904/DTD/svg10.dtd">
<!-- Creator: CorelDRAW 2017 -->
<svg xmlns="http://www.w3.org/2000/svg" xml:space="preserve" width="286px" height="286px" version="1.0" style="shape-rendering:geometricPrecision; text-rendering:geometricPrecision; image-rendering:optimizeQuality; fill-rule:evenodd; clip-rule:evenodd"
viewBox="0 0 110.44 110.44"
 xmlns:xlink="http://www.w3.org/1999/xlink">
 <defs>
  <style type="text/css">
   <![CDATA[
    .fil1 {fill:none}
    .fil0 {fill:#9B9B9B}
   ]]>
  </style>
 </defs>
 <g id="Слой_x0020_1">
  <metadata id="CorelCorpID_0Corel-Layer"/>
  <g id="_3062800191696">
   <g>
    <path class="fil0" d="M81.69 34.46l-26.22 -13.97c-0.39,-0.21 -0.85,-0.2 -1.24,0.01l-25.5 13.97c-0.41,0.23 -0.67,0.67 -0.67,1.15l0 18.25c0.01,15 8.9,28.57 22.65,34.58l3.54 1.54c0.33,0.15 0.7,0.15 1.03,0l3.99 -1.72c14,-5.88 23.11,-19.58 23.11,-34.77l0 -17.88c0,-0.49 -0.26,-0.93 -0.69,-1.16l0 0zm-1.92 19.04c0,14.14 -8.48,26.9 -21.52,32.37l-0.01 0 -3.47 1.5 -3.02 -1.31c-12.79,-5.6 -21.07,-18.23 -21.08,-32.19l0 -17.48 24.2 -13.26 24.9 13.27 0 17.1zm0 0z"/>
    <path class="fil0" d="M45.23 53.02c-0.46,-0.55 -1.29,-0.61 -1.84,-0.15 -0.54,0.47 -0.61,1.3 -0.14,1.84l6.89 8.08c0.46,0.54 1.27,0.61 1.82,0.16l16.06 -13.06c0.56,-0.46 0.64,-1.28 0.19,-1.84 -0.46,-0.56 -1.28,-0.64 -1.84,-0.19l-15.07 12.26 -6.07 -7.1zm0 0z"/>
   </g>
   <rect class="fil1" width="110.44" height="110.44"/>
  </g>
 </g>
</svg>
