<?xml version="1.0" encoding="UTF-8"?>
<!DOCTYPE svg PUBLIC "-//W3C//DTD SVG 1.0//EN" "http://www.w3.org/TR/2001/REC-SVG-20010904/DTD/svg10.dtd">
<!-- Creator: CorelDRAW 2017 -->
<svg xmlns="http://www.w3.org/2000/svg" xml:space="preserve" width="286px" height="286px" version="1.0" style="shape-rendering:geometricPrecision; text-rendering:geometricPrecision; image-rendering:optimizeQuality; fill-rule:evenodd; clip-rule:evenodd"
viewBox="0 0 218.65 218.65"
 xmlns:xlink="http://www.w3.org/1999/xlink">
 <defs>
  <style type="text/css">
   <![CDATA[
    .fil0 {fill:none}
    .fil1 {fill:#9B9B9B}
   ]]>
  </style>
 </defs>
 <g id="Слой_x0020_1">
  <metadata id="CorelCorpID_0Corel-Layer"/>
  <rect class="fil0" width="218.65" height="218.65"/>
  <g id="_3062798926512">
  </g>
  <g id="_3062798926064">
  </g>
  <g id="_3062798926384">
  </g>
  <g id="_3062798926608">
  </g>
  <g id="_3062798927184">
  </g>
  <g id="_3062798929328">
  </g>
  <g id="_3062798928432">
  </g>
  <g id="_3062798928976">
  </g>
  <g id="_3062798929200">
  </g>
  <g id="_3062798929584">
  </g>
  <g id="_3062798928656">
  </g>
  <g id="_3062798931856">
  </g>
  <g id="_3062798931088">
  </g>
  <g id="_3062798932016">
  </g>
  <g id="_3062798931024">
  </g>
  <g id="_3062798931120">
   <path class="fil1" d="M129.83 86.56c-1.25,0 -2.26,1.01 -2.26,2.26 0,1.25 1.01,2.26 2.26,2.26 1.24,0 2.25,-1.01 2.25,-2.26 0,-1.25 -1.01,-2.26 -2.25,-2.26zm0 0z"/>
   <path class="fil1" d="M88.82 127.57c-1.25,0 -2.26,1.01 -2.26,2.25 0,1.25 1.01,2.26 2.26,2.26 1.25,0 2.26,-1.01 2.26,-2.26 0,-1.24 -1.01,-2.25 -2.26,-2.25zm0 0z"/>
   <path class="fil1" d="M164.29 65.43c-0.76,-0.17 -1.56,0.06 -2.11,0.61l-9.36 9.43 -4.48 0 -4.94 -5.11 0 -4.55 9.22 -9.36c0.55,-0.55 0.77,-1.35 0.59,-2.11 -0.18,-0.75 -0.74,-1.36 -1.48,-1.61 -2.31,-0.78 -4.74,-1.18 -7.2,-1.18 -7.35,0 -14.03,3.43 -18.32,9.4 -4.02,5.6 -5.26,12.45 -3.49,19.02l-16.62 16.62 -27.69 -27.76 0 -5.45c0,-0.79 -0.42,-1.53 -1.1,-1.93l-15.96 -9.58c-0.89,-0.53 -2.02,-0.39 -2.75,0.34l-6.39 6.38c-0.73,0.74 -0.87,1.87 -0.33,2.76l9.57 15.96c0.41,0.68 1.14,1.09 1.93,1.09l5.45 0.01 27.7 27.75 -16.56 16.56c-6.56,-1.77 -13.42,-0.53 -19.02,3.49 -5.97,4.29 -9.4,10.97 -9.4,18.32 0,2.46 0.4,4.89 1.18,7.2 0.25,0.74 0.86,1.3 1.63,1.48 0.76,0.18 1.56,-0.05 2.11,-0.61l9.35 -9.43 4.51 0 5.14 5.14 0 4.51 -9.43 9.36c-0.55,0.55 -0.78,1.35 -0.6,2.11 0.17,0.76 0.73,1.38 1.47,1.63 2.32,0.78 4.74,1.17 7.21,1.17 7.35,0 14.02,-3.42 18.32,-9.39 4.02,-5.6 5.26,-12.46 3.48,-19.02l13.3 -13.3 3.05 3.31 -1.4 1.4c-0.88,0.88 -0.88,2.31 0,3.19 0.88,0.88 2.31,0.88 3.19,0l1.27 -1.27 28.58 31.05c0.03,0.03 0.05,0.05 0.07,0.07 5.29,5.29 13.86,5.29 19.15,0 5.28,-5.28 5.28,-13.87 0,-19.15 -0.02,-0.02 -0.05,-0.05 -0.07,-0.07l-31.1 -28.53 1.25 -1.25c0.88,-0.88 0.88,-2.31 0,-3.19 -0.88,-0.88 -2.31,-0.88 -3.19,0l-1.39 1.39 -3.31 -3.05 13.36 -13.36c1.9,0.51 3.86,0.76 5.85,0.76 12.44,0 22.57,-10.12 22.57,-22.56 0,-2.47 -0.4,-4.89 -1.18,-7.21 -0.25,-0.74 -0.87,-1.3 -1.63,-1.48l0 0zm-92.93 9.12c-0.42,-0.42 -0.99,-0.64 -1.59,-0.64l-5.11 0 -8.01 -13.37 3.89 -3.89 13.35 8.01 0 5.11c0,0.59 0.24,1.17 0.66,1.59l28.36 28.42 -3.19 3.19 -28.36 -28.42zm57.41 44.03l31.2 28.62c3.49,3.52 3.48,9.23 -0.03,12.74 -3.52,3.51 -9.21,3.52 -12.74,0.03l-28.68 -31.15 10.25 -10.24zm-3.33 -3.06l-9.98 9.97 -3.04 -3.3 9.7 -9.71 3.32 3.04zm19.09 -23.35c-1.98,0 -3.92,-0.32 -5.77,-0.94 -0.81,-0.27 -1.71,-0.06 -2.32,0.54 -11.31,11.32 -35.69,35.69 -44.66,44.67 -0.61,0.61 -0.82,1.51 -0.55,2.32 1.88,5.57 0.98,11.51 -2.46,16.3 -3.43,4.78 -8.77,7.52 -14.65,7.52 -0.66,0 -1.32,-0.03 -1.97,-0.1l7.17 -7.12c0.43,-0.42 0.67,-1 0.67,-1.6l0 -6.38c0,-0.6 -0.24,-1.18 -0.66,-1.6l-6.47 -6.46c-0.42,-0.42 -0.99,-0.66 -1.59,-0.66l-6.39 0c-0.6,0 -1.17,0.24 -1.6,0.67l-7.11 7.16c-0.07,-0.65 -0.11,-1.3 -0.11,-1.96 0,-5.88 2.74,-11.22 7.52,-14.65 4.79,-3.45 10.74,-4.34 16.31,-2.47 0.81,0.28 1.71,0.07 2.31,-0.54 0.13,-0.12 44.64,-44.64 44.67,-44.67 0.61,-0.61 0.82,-1.5 0.54,-2.31 -1.87,-5.58 -0.98,-11.52 2.46,-16.3 3.44,-4.78 8.78,-7.53 14.66,-7.53 0.68,0 1.35,0.04 2.02,0.12l-7.02 7.12c-0.41,0.42 -0.64,0.99 -0.64,1.58l0 6.39c0,0.58 0.22,1.14 0.63,1.56l6.23 6.47c0.43,0.44 1.02,0.68 1.63,0.68l6.38 0c0.6,0 1.18,-0.23 1.6,-0.66l7.12 -7.17c0.07,0.65 0.1,1.31 0.1,1.97 0,9.95 -8.1,18.05 -18.05,18.05l0 0zm0 0z"/>
   <path class="fil1" d="M121.85 93.61l-28.24 28.24c-0.88,0.88 -0.88,2.31 0,3.19 0.88,0.88 2.31,0.88 3.19,0l28.24 -28.24c0.88,-0.88 0.88,-2.31 0,-3.19 -0.88,-0.88 -2.31,-0.88 -3.19,0zm0 0z"/>
   <path class="fil1" d="M150.37 153.56c0.88,0.88 2.31,0.88 3.19,-0.01 0.88,-0.88 0.87,-2.31 -0.01,-3.19l-20.34 -20.28c-0.88,-0.88 -2.31,-0.87 -3.19,0.01 -0.88,0.88 -0.88,2.31 0,3.19l20.35 20.28zm0 0z"/>
  </g>
  <g id="_3062798932176">
  </g>
  <g id="_3062798933200">
  </g>
  <g id="_3062798933296">
  </g>
  <g id="_3062798933520">
  </g>
  <g id="_3062798935344">
  </g>
  <g id="_3062798935632">
  </g>
  <g id="_3062798934736">
  </g>
  <g id="_3062798935792">
  </g>
  <g id="_3062798936048">
  </g>
  <g id="_3062798936816">
  </g>
  <g id="_3062798937456">
  </g>
  <g id="_3062798936496">
  </g>
  <g id="_3062798936912">
  </g>
  <g id="_3062798938256">
  </g>
  <g id="_3062798937584">
  </g>
 </g>
</svg>
