<?xml version="1.0" encoding="UTF-8"?>
<!DOCTYPE svg PUBLIC "-//W3C//DTD SVG 1.0//EN" "http://www.w3.org/TR/2001/REC-SVG-20010904/DTD/svg10.dtd">
<!-- Creator: CorelDRAW 2017 -->
<svg xmlns="http://www.w3.org/2000/svg" xml:space="preserve" width="286px" height="286px" version="1.0" style="shape-rendering:geometricPrecision; text-rendering:geometricPrecision; image-rendering:optimizeQuality; fill-rule:evenodd; clip-rule:evenodd"
viewBox="0 0 79.38 79.38"
 xmlns:xlink="http://www.w3.org/1999/xlink">
 <defs>
  <style type="text/css">
   <![CDATA[
    .fil0 {fill:none}
    .fil1 {fill:#9B9B9B}
   ]]>
  </style>
 </defs>
 <g id="Слой_x0020_1">
  <metadata id="CorelCorpID_0Corel-Layer"/>
  <g id="_3062798927184">
   <rect class="fil0" width="79.38" height="79.38"/>
   <g>
    <path class="fil1" d="M15.66 35.5c0.02,-0.44 0.27,-1.25 1.69,-1.77l37.95 -13.8c1.94,-0.7 4.1,0.3 4.81,2.25l1.02 2.82c0,0 0,0 0,0l2.32 6.35c0.7,1.94 -0.3,4.1 -2.25,4.81l-11.06 4.02c0.21,1.28 -0.14,2.54 -0.9,3.51l2.35 6.47c0.11,0.3 0.4,0.5 0.72,0.5l6.9 0 0 -2.25c0,-1.25 1.01,-2.26 2.25,-2.26l1.5 0c0.42,0 0.75,0.34 0.75,0.75l0 12.02c0,0.41 -0.33,0.75 -0.75,0.75l-1.5 0c-1.24,0 -2.25,-1.01 -2.25,-2.25l0 -2.26 -6.9 0c-2.21,0 -4.19,-1.39 -4.95,-3.46l-2.3 -6.34c-1.32,-0.18 -2.52,-0.95 -3.24,-2.15l-12.92 4.69c-0.42,0.16 -0.85,0.23 -1.28,0.23 -1.29,0 -2.52,-0.67 -3.2,-1.79l-1.49 0.54c-0.16,0.06 -0.34,0.09 -0.51,0.09 -0.22,0 -0.43,-0.05 -0.63,-0.14 -0.37,-0.17 -0.64,-0.47 -0.78,-0.85l-2.05 -5.64c-0.25,-0.69 0.03,-1.44 0.64,-1.8l-2.41 -1.13c-1.37,-0.64 -1.55,-1.47 -1.53,-1.91zm45.05 21.92c0,0.41 0.34,0.75 0.75,0.75l0.75 0 0 -10.51 -0.75 0c-0.41,0 -0.75,0.33 -0.75,0.75l0 9.01zm-11.94 -6.23c0.54,1.48 1.96,2.47 3.54,2.47l6.9 0 0 -1.5 -6.9 0c-0.95,0 -1.8,-0.6 -2.13,-1.49l-2.15 -5.92c-0.25,0.15 -0.51,0.28 -0.8,0.38 -0.19,0.07 -0.4,0.13 -0.6,0.18l2.14 5.88zm-3.18 -7.29c0.02,0 0.04,0 0.05,0 0.36,0.01 0.73,-0.05 1.08,-0.18 0.42,-0.15 0.78,-0.39 1.08,-0.68 0.03,-0.03 0.06,-0.06 0.09,-0.09 0.56,-0.59 0.86,-1.4 0.8,-2.24l-5.42 1.97c0.55,0.75 1.41,1.2 2.32,1.22zm-25.22 -4.08l2.05 5.65 1.41 -0.52 -1.95 -5.35 -0.39 -0.18 -1.12 0.4zm-2.55 -3.77l4.02 1.87c0,0 0,0 0,0l0.96 0.45c0,0 0,0 0,0l1.13 0.53c1.32,0.62 3.6,0.71 4.97,0.22l21.72 -7.9c0.39,-0.14 0.82,0.06 0.96,0.45 0.14,0.39 -0.06,0.82 -0.45,0.97l-21.72 7.89c-0.75,0.27 -1.69,0.41 -2.64,0.41 -1.04,0 -2.1,-0.17 -2.97,-0.48l1.7 4.69c0.43,1.16 1.72,1.77 2.89,1.34l32.3 -11.74c1.17,-0.43 1.77,-1.72 1.34,-2.89l-1.28 -3.53c-0.43,0.66 -1.07,1.19 -1.86,1.48l-0.71 0.26c-0.38,0.14 -0.82,-0.06 -0.96,-0.45 -0.14,-0.39 0.06,-0.82 0.45,-0.96l0.71 -0.26c1.16,-0.42 1.77,-1.72 1.34,-2.89l-0.25 -0.7c0,0 0,0 0,0l-0.77 -2.12c-0.43,-1.17 -1.72,-1.77 -2.89,-1.35l-37.95 13.8c-0.48,0.18 -0.66,0.36 -0.69,0.43 0.03,0.07 0.19,0.27 0.65,0.48z"/>
    <path class="fil1" d="M53.44 30.2l1.41 -0.52c0.39,-0.14 0.82,0.06 0.96,0.45 0.14,0.39 -0.06,0.82 -0.45,0.96l-1.41 0.52c-0.08,0.03 -0.17,0.04 -0.25,0.04 -0.31,0 -0.6,-0.19 -0.71,-0.49 -0.14,-0.39 0.06,-0.82 0.45,-0.96z"/>
   </g>
  </g>
 </g>
</svg>
