<svg xmlns="http://www.w3.org/2000/svg" width="286" height="286" version="1.0" viewBox="0 0 79.38 79.38" shape-rendering="geometricPrecision" text-rendering="geometricPrecision" image-rendering="optimizeQuality" fill-rule="evenodd" clip-rule="evenodd"><defs><style>.fil1{fill:#9b9b9b}</style></defs><g id="Слой_x0020_1"><g id="_3062718181888"><path fill="none" d="M0 0h79.38v79.38H0z"/><path class="fil1" d="M61.65 26.83H38.59a5.36 5.36 0 00-3.16-1.89v-1.62c0-1.99-1.62-3.61-3.61-3.61H21.24c-1.99 0-3.61 1.62-3.61 3.61V38.3c0 .55.44.99.99.99s.99-.44.99-.99V23.32c0-.9.73-1.63 1.63-1.63h10.58c.9 0 1.64.73 1.64 1.63v28.83H19.61V47.6c0-.55-.44-.99-.99-.99s-.99.44-.99.99v4.55h-2.28c-.54 0-.98.44-.98.99v5.54c0 .55.44.99.98.99h22.16c.55 0 .99-.44.99-.99v-5.54c0-.55-.44-.99-.99-.99h-2.08V38.63l9.7 16.8a3.341 3.341 0 002.92 1.68c.58 0 1.16-.15 1.68-.45.78-.45 1.33-1.17 1.56-2.04.24-.87.12-1.77-.33-2.55l-7.33-12.69 12.69 7.33c.52.29 1.09.45 1.68.45.29 0 .58-.04.87-.12.87-.23 1.6-.79 2.05-1.57.44-.77.56-1.68.33-2.55-.23-.87-.79-1.59-1.57-2.04L47 33.55h14.65c1.85 0 3.36-1.5 3.36-3.36 0-1.85-1.51-3.36-3.36-3.36zM36.52 57.69H16.34v-3.56h20.18v3.56zm1.29-27.5c0 1.51-1 2.79-2.38 3.22v-6.43c1.38.42 2.38 1.7 2.38 3.21zm11.44 22.87c.18.32.23.69.13 1.05-.09.35-.32.65-.64.84-.32.18-.7.23-1.05.14-.36-.1-.66-.33-.84-.65L35.83 35.35c.18-.05.35-.1.53-.17l3.85 2.22 9.04 15.66zm9.45-10.47c.32.19.54.49.64.84.1.36.05.73-.14 1.06-.18.32-.48.54-.84.64-.36.1-.73.05-1.05-.14L38.22 33.97c.13-.13.25-.27.37-.42h4.45l15.66 9.04zm2.95-11.01H39.6c.12-.45.19-.91.19-1.39 0-.48-.07-.94-.19-1.38h22.05a1.385 1.385 0 010 2.77zm0 0z"/><path class="fil1" d="M22.58 31.58h7.91c.54 0 .99-.45.99-.99v-4.75c0-.55-.45-.99-.99-.99h-7.91c-.55 0-.99.44-.99.99v4.75c0 .54.44.99.99.99zm.98-4.75h5.94v2.77h-5.94v-2.77zm0 0zm-.98 8.52h7.91c.54 0 .99-.44.99-.99s-.45-.99-.99-.99h-7.91c-.55 0-.99.44-.99.99s.44.99.99.99zm0 0zm-3.96 8.41c.26 0 .51-.11.7-.29.18-.18.29-.44.29-.7 0-.26-.11-.52-.29-.7-.19-.18-.44-.29-.7-.29-.26 0-.52.11-.7.29-.18.18-.29.44-.29.7 0 .26.11.52.29.7.18.18.44.29.7.29zm0 0z"/></g></g></svg>