<svg xmlns="http://www.w3.org/2000/svg" width="286" height="286" version="1.0" viewBox="0 0 48.49 48.49" shape-rendering="geometricPrecision" text-rendering="geometricPrecision" image-rendering="optimizeQuality" fill-rule="evenodd" clip-rule="evenodd"><defs><style>.fil1{fill:#9b9b9b}</style></defs><g id="Слой_x0020_1"><g id="_3062796947952"><path fill="none" d="M0 0h48.49v48.49H0z"/><path class="fil1" d="M38.64 29.73c-1.61-.53-1.65-1.7-1.65-1.74 0-.23-.16-.43-.39-.48l-4.86-1.11a.41.41 0 00-.22 0l-2.04.46v-7.89c0-1.14-.93-2.07-2.07-2.07H17.39a.49.49 0 000 .98h10.02c.6 0 1.09.49 1.09 1.09v8.12l-1.85.42c-.22.05-.38.25-.38.48 0 .01-.02 1.2-1.65 1.74-.21.07-.34.26-.34.47 0 .02 0 .16.02.41H11.59c-.6 0-1.09-.49-1.09-1.09v-.04h12.16a.5.5 0 00.5-.49.5.5 0 00-.5-.49H10.5v-9.53c0-.6.49-1.09 1.09-1.09h3.69a.49.49 0 000-.98h-.56V8.95c0-.85-.7-1.55-1.55-1.55-.85 0-1.55.7-1.55 1.55v7.95h-.03c-1.15 0-2.08.93-2.08 2.07v10.55c0 1.14.93 2.07 2.08 2.07h12.83c.12.71.34 1.64.75 2.66.81 2.05 2.55 4.88 6.23 6.78.07.04.15.06.23.06.08 0 .15-.02.22-.06 3.68-1.9 5.42-4.73 6.23-6.78.89-2.22.9-3.98.9-4.05 0-.21-.14-.4-.34-.47zM13.17 8.39c.31 0 .56.25.56.56v5.84h-1.12V8.95c0-.31.25-.56.56-.56zm-.56 7.38h1.12v1.13h-1.12v-1.13zm24.56 18.12c-1.06 2.67-2.93 4.74-5.54 6.14-2.6-1.4-4.46-3.45-5.53-6.11-.6-1.5-.77-2.8-.82-3.39 1.38-.58 1.8-1.58 1.92-2.14l4.43-1 4.42 1c.13.56.54 1.56 1.92 2.14-.04.58-.21 1.86-.8 3.36zm0 0z"/><path class="fil1" d="M18.94 24.24v-3.16c0-.56-.46-1.02-1.02-1.02H13.7c-.57 0-1.02.46-1.02 1.02v3.16c0 .57.45 1.03 1.02 1.03h4.22c.56 0 1.02-.46 1.02-1.03zm-5.28 0v-3.16c0-.02.02-.03.04-.03h4.22c.01 0 .03.01.03.03v3.16c0 .02-.02.04-.03.04H13.7c-.02 0-.04-.02-.04-.04zm0 0zm6.89-3.19h.53c.27 0 .49-.22.49-.5a.49.49 0 00-.49-.49h-.53a.49.49 0 00-.49.49c0 .28.22.5.49.5zm0 0zm2.64 0h.53c.27 0 .49-.22.49-.5a.49.49 0 00-.49-.49h-.53a.49.49 0 00-.49.49c0 .28.22.5.49.5zm0 0zm2.64 0h.52a.495.495 0 100-.99h-.52a.495.495 0 100 .99zm0 0zm-5.28 2.11h.53c.27 0 .49-.22.49-.5a.49.49 0 00-.49-.49h-.53a.49.49 0 00-.49.49c0 .28.22.5.49.5zm0 0zm2.64 0h.53c.27 0 .49-.22.49-.5a.49.49 0 00-.49-.49h-.53a.49.49 0 00-.49.49c0 .28.22.5.49.5zm0 0zm2.64 0h.52a.495.495 0 100-.99h-.52a.495.495 0 100 .99zm0 0zm-5.28 2.11h.53a.5.5 0 00.49-.5.49.49 0 00-.49-.49h-.53a.49.49 0 00-.49.49c0 .27.22.5.49.5zm0 0zm-3.69 1.12a.49.49 0 000 .98h.53a.49.49 0 000-.98h-.53zm0 0zm-2.64 0a.49.49 0 000 .98h.53a.5.5 0 00.5-.49.5.5 0 00-.5-.49h-.53zm0 0zm8.97-1.12h.53a.5.5 0 00.49-.5.49.49 0 00-.49-.49h-.53a.49.49 0 00-.49.49c0 .27.22.5.49.5zm0 0zm2.64 0h.52c.28 0 .5-.23.5-.5s-.22-.49-.5-.49h-.52c-.28 0-.5.22-.5.49s.22.5.5.5zm0 0zM36.52 31c-.53-.4-.94-.88-1.23-1.45a.491.491 0 00-.33-.25l-3.21-.73c-.04-.01-.08-.02-.12-.02-.04 0-.08.01-.12.02l-3.21.73c-.15.03-.27.12-.33.25-.29.57-.71 1.05-1.24 1.45-.15.11-.23.3-.19.49.05.26.11.53.18.79a.5.5 0 00.61.35.5.5 0 00.35-.61c-.04-.14-.08-.28-.11-.43.47-.39.86-.86 1.16-1.38l2.4-.55v7.55a9.66 9.66 0 01-2.66-3.17.498.498 0 00-.67-.21c-.24.13-.33.42-.21.66.87 1.67 2.14 3.04 3.77 4.09.08.05.17.07.27.07.09 0 .18-.02.26-.07 3.44-2.21 4.5-5.39 4.83-7.09a.492.492 0 00-.2-.49zm-4.4 6.21v-7.55l2.4.55c.3.52.69.99 1.17 1.38-.33 1.45-1.21 3.79-3.57 5.62zm0 0z"/></g></g></svg>