<svg xmlns="http://www.w3.org/2000/svg" width="286" height="286" version="1.0" viewBox="0 0 48.49 48.49" shape-rendering="geometricPrecision" text-rendering="geometricPrecision" image-rendering="optimizeQuality" fill-rule="evenodd" clip-rule="evenodd"><defs><style>.fil1{fill:#9b9b9b}</style></defs><g id="Слой_x0020_1"><g id="_2072766884496"><path fill="none" d="M0 0h48.49v48.49H0z"/><path class="fil1" d="M7.28 17.31h24.13v-2.16c0-.34.26-.6.6-.6h8.76c.33 0 .6.26.6.6v17.59h1.22c.33 0 .6.27.6.6 0 .33-.27.6-.6.6h-12.4c-.33 0-.6-.27-.6-.6 0-.33.27-.6.6-.6h1.22V21.27H7.28c-1.09 0-1.98-.89-1.98-1.98 0-1.09.89-1.98 1.98-1.98zm26.23 1.2h-4.36l1.56 1.56h2.8c-.07-.25-.1-.51-.1-.78s.03-.53.1-.78zm-6.06 0h-1.68l1.56 1.56h1.69l-1.57-1.56zm-3.38 0h-3.55l1.57 1.56h3.54l-1.56-1.56zm-5.24 0h-1.69l1.57 1.56h1.68l-1.56-1.56zm-3.38 0H11.9l1.56 1.56h3.55l-1.56-1.56zm-5.25 0H8.52l1.56 1.56h1.69l-1.57-1.56zm22.41 14.23h7.56V15.75h-7.56v1.56h1.49a3.171 3.171 0 110 3.96h-1.49v11.47zm2-13.45c0 1.09.88 1.97 1.97 1.97 1.09 0 1.97-.88 1.97-1.97 0-1.09-.88-1.97-1.97-1.97-1.09 0-1.97.88-1.97 1.97zm-27.33.78h1.1L6.91 18.6a.781.781 0 00.37 1.47z"/><path class="fil1" d="M34.75 23.28h3.28c.33 0 .6.27.6.6 0 .34-.27.6-.6.6h-3.28c-.33 0-.6-.26-.6-.6 0-.33.27-.6.6-.6z"/></g></g></svg>