<svg xmlns="http://www.w3.org/2000/svg" width="286" height="286" version="1.0" viewBox="0 0 48.49 48.49" shape-rendering="geometricPrecision" text-rendering="geometricPrecision" image-rendering="optimizeQuality" fill-rule="evenodd" clip-rule="evenodd"><defs><style>.fil1{fill:#9b9b9b}</style></defs><g id="Слой_x0020_1"><g id="_3062795022672"><path fill="none" d="M0 0h48.49v48.49H0z"/><path class="fil1" d="M30.58 14.75H18.49v-.58c0-.21-.12-.41-.32-.51l-2.3-1.15-3.45-1.73c-.01 0-.05-.02-.06-.02-.07-.02-.13-.03-.2-.05H9.85c-.31 0-.57.26-.57.58v.58H7.55c-.32 0-.57.25-.57.57 0 .32.25.58.57.58h1.73v.57c0 .32.26.58.57.58h2.17l3.01 1.5v1.59l-3.01 1.52H9.85c-.31 0-.57.26-.57.58v.57H7.55c-.32 0-.57.26-.57.58 0 .31.25.57.57.57h1.73v.58c0 .31.26.57.57.57h2.31c.08 0 .17-.03.26-.05l3.45-1.73 2.3-1.15c.2-.1.32-.3.32-.52v-.58h4.14c-3.98 4.2-3.98 10.78 0 14.97h-1.84v-.58c0-.31-.26-.57-.57-.57h-8.06c-.32 0-.58.26-.58.57v.58H9.85c-.31 0-.57.26-.57.58v.57H7.55c-.32 0-.57.26-.57.58 0 .31.25.57.57.57h1.73v.58c0 .32.26.57.57.57h1.73v.58c0 .32.26.58.58.58h8.06c.31 0 .57-.26.57-.58v-.58h9.79c6.03 0 10.93-4.9 10.93-10.93 0-6.04-4.9-10.94-10.93-10.94zm-19-1.73h-1.15v-1.15h1.15v1.15zm0 8.06h-1.15v-1.15h1.15v1.15zm3.45-1.5l-2.3 1.15v-1.01l2.3-1.16v1.02zm0-5.18l-2.3-1.15v-1.03l2.3 1.16v1.02zm2.31 4.03l-1.15.57v-5.04l1.15.57v3.9zm-5.76 17.04h-1.15v-1.15h1.15v1.15zm8.06 1.15h-1.15v-2.3h-1.15v2.3h-1.15v-2.3h-1.16v2.3h-2.3v-3.45h6.91v3.45zm-1.15-19.57V15.9h7.23c-.65.33-1.26.71-1.84 1.15h-5.39zm2.3 18.42v-1.15h3.09c.57.45 1.19.83 1.84 1.15h-4.93zm9.79 0c-5.41 0-9.79-4.38-9.79-9.78 0-5.41 4.38-9.79 9.79-9.79 5.4 0 9.78 4.38 9.78 9.79 0 5.4-4.38 9.78-9.78 9.78z"/><path class="fil1" d="M30.58 17.05c-4.77 0-8.64 3.87-8.64 8.64 0 4.77 3.87 8.63 8.64 8.63 4.77 0 8.63-3.86 8.63-8.63-.01-4.77-3.87-8.63-8.63-8.64zm0 16.12c-4.13 0-7.49-3.35-7.49-7.48 0-4.13 3.36-7.49 7.49-7.49 4.13 0 7.48 3.36 7.48 7.49a7.494 7.494 0 01-7.48 7.48z"/><path class="fil1" d="M30.58 19.36c-3.5 0-6.34 2.83-6.34 6.33 0 3.49 2.84 6.33 6.34 6.33 3.49 0 6.33-2.84 6.33-6.33-.01-3.5-2.84-6.33-6.33-6.33zm0 11.51c-2.87 0-5.18-2.32-5.18-5.18 0-2.87 2.31-5.18 5.18-5.18 2.86 0 5.18 2.31 5.18 5.18 0 2.85-2.33 5.18-5.18 5.18z"/><path class="fil1" d="M30.58 21.66a4.03 4.03 0 000 8.06c2.22 0 4.03-1.81 4.03-4.03a4.03 4.03 0 00-4.03-4.03zm0 6.91a2.88 2.88 0 010-5.76c1.59 0 2.87 1.29 2.87 2.88 0 1.59-1.28 2.88-2.87 2.88z"/></g></g></svg>