<svg xmlns="http://www.w3.org/2000/svg" width="286" height="286" version="1.0" viewBox="0 0 218.65 218.65" shape-rendering="geometricPrecision" text-rendering="geometricPrecision" image-rendering="optimizeQuality" fill-rule="evenodd" clip-rule="evenodd"><path fill="none" d="M0 0h218.65v218.65H0z"/><path d="M111.32 82.81c0 1.1-.89 1.99-2 1.99-1.1 0-1.99-.89-1.99-1.99s.89-2 1.99-2a2 2 0 012 2zm0 0zm-9.7-12.85a14.938 14.938 0 0115.4 0c.32.19.68.29 1.02.29.68 0 1.33-.35 1.71-.97.56-.94.26-2.16-.68-2.72a18.891 18.891 0 00-19.49 0 1.983 1.983 0 002.04 3.4zm0 0zm13.76 6.61c.56-.94.26-2.16-.68-2.73a10.425 10.425 0 00-10.75 0c-.94.57-1.24 1.79-.68 2.73.56.94 1.78 1.24 2.72.68a6.427 6.427 0 016.66 0 2.003 2.003 0 002.73-.68zm0 0zm57.57-6.34h-4.24c-2.26 0-4.1 1.84-4.1 4.1v6.5h-4.52v-4.38c0-.66-.32-1.27-.87-1.64-.55-.37-1.24-.44-1.85-.2l-42.42 16.97c-.75.3-1.25 1.03-1.25 1.84v59.39a2.001 2.001 0 001.99 1.99c.25 0 .5-.05.73-.15l42.42-16.97c.76-.3 1.25-1.03 1.25-1.84v-4.38h4.52v8.62c0 1.1.88 1.99 1.98 1.99h8.49c1.09 0 1.98-.89 1.98-1.99V74.33c0-2.26-1.84-4.1-4.11-4.1zm-4.37 4.1c0-.07.06-.13.13-.13h4.24c.08 0 .14.06.14.13v6.5h-4.51v-6.5zm-33.94 13.65l4.51-1.81v55.11l-4.51 1.81V87.98zm-3.97 56.7l-4.51 1.81V91.37l4.51-1.8v55.11zm-13-49.92l4.52-1.8v55.11l-4.52 1.81V94.76zm38.45 39.74l-4.51 1.8V97.66a1.985 1.985 0 00-3.97 0v40.23l-4.52 1.81V84.58l4.52-1.8v6.4a1.985 1.985 0 003.97 0v-7.99l4.51-1.81v55.12zm3.97-7.01V84.8h4.52v42.69h-4.52zm8.49 10.61V84.8h4.51v53.3h-4.51zm0 0zM103.7 91.58L61.28 74.61c-.61-.24-1.31-.17-1.85.2-.55.37-.87.98-.87 1.64v4.38h-4.52v-6.5c0-2.26-1.84-4.1-4.11-4.1h-4.24c-2.26 0-4.1 1.84-4.1 4.1v65.75c0 1.1.89 1.99 1.98 1.99h8.48c1.1 0 1.99-.89 1.99-1.99v-8.62h4.52v4.38c0 .81.49 1.54 1.24 1.84l42.42 16.97c.24.1.49.14.74.14.39 0 .78-.11 1.11-.34.55-.37.87-.98.87-1.64V93.42c0-.81-.49-1.54-1.24-1.84zm-15.72-2.01l4.51 1.8v55.12l-4.51-1.81V89.57zm-3.97 53.52l-4.52-1.81V86.17l4.52 1.81v55.11zM45.69 74.2h4.24c.08 0 .14.06.14.13v6.5h-4.51v-6.5c0-.07.06-.13.13-.13zm4.38 63.9h-4.51V84.8h4.51v53.3zm3.97-10.61V84.8h4.52v42.69h-4.52zm8.48-48.11l4.52 1.81v39.8c0 1.1.89 1.99 1.98 1.99 1.1 0 1.99-.89 1.99-1.99V82.78l4.51 1.8v55.12l-4.51-1.81v-8.41c0-1.1-.89-1.99-1.99-1.99-1.09 0-1.98.89-1.98 1.99v6.82l-4.52-1.8V79.38zm38.46 70.5l-4.52-1.81V92.96l4.52 1.8v55.12zm0 0z" fill="#9b9b9b"/></svg>