<svg xmlns="http://www.w3.org/2000/svg" width="286" height="286" version="1.0" viewBox="0 0 218.65 218.65" shape-rendering="geometricPrecision" text-rendering="geometricPrecision" image-rendering="optimizeQuality" fill-rule="evenodd" clip-rule="evenodd"><defs><style>.fil1,.fil2{fill:#9b9b9b}.fil2{fill-rule:nonzero}</style></defs><g id="Слой_x0020_1"><g id="_3062801282464"><path fill="none" d="M0 0h218.65v218.65H0z"/><path class="fil1" d="M152.93 170.01h-13.26v-7.14l8.07-5.04v-9.11h-3.78v7.02l-4.29 2.67v-13.56c3.61-.86 6.3-4.1 6.3-7.97 0-4.51-3.67-8.18-8.18-8.18-4.52 0-8.19 3.67-8.19 8.18 0 3.87 2.69 7.11 6.3 7.97v25.16h-13.1v-39.72l13.6-10.89V81.47h-3.78v36.12l-9.82 7.86V115l4.16-4.16V73.66h-3.78v35.62l-4.16 4.15v26.14l-7.56 6.35V99.01c3.61-.86 6.3-4.11 6.3-7.97 0-4.51-3.67-8.18-8.18-8.18-4.52 0-8.19 3.67-8.19 8.18 0 3.86 2.69 7.11 6.3 7.97v15.18l-12.22-12.22V73.41h-3.78v30.13l16 15.99v39.2l-7.56-6.35v-8.47l-7.3-7.3v-6.37c3.6-.86 6.29-4.1 6.29-7.97 0-4.51-3.67-8.18-8.18-8.18-4.52 0-8.19 3.67-8.19 8.18 0 3.87 2.69 7.11 6.3 7.97v7.93l7.3 7.3v24.54h-8.82v-14.44l-4.33-4.99a6.876 6.876 0 001.57-4.38c0-3.82-3.11-6.92-6.93-6.92s-6.93 3.1-6.93 6.92 3.11 6.93 6.93 6.93c.78 0 1.54-.13 2.24-.37l3.68 4.23v13.02h-8.33v3.77h81.37v-59c0-1.06-.87-1.93-1.93-1.93-1.07 0-1.94.87-1.94 1.93v55.23zm-19.55-33.13c0-2.43 1.97-4.4 4.41-4.4a4.4 4.4 0 014.4 4.4c0 2.44-1.97 4.41-4.4 4.41-2.44 0-4.41-1.97-4.41-4.41zm-46.85-14.61c0-2.43 1.97-4.4 4.41-4.4a4.4 4.4 0 014.4 4.4c0 2.43-1.97 4.41-4.4 4.41a4.41 4.41 0 01-4.41-4.41zm-8.69 27.08a3.15 3.15 0 01-3.15-3.15c0-1.73 1.41-3.14 3.15-3.14 1.73 0 3.15 1.41 3.15 3.14 0 1.74-1.42 3.15-3.15 3.15zm29.85 20.66h-7.56v-12.7l7.56 6.36v6.34zm-2.52-78.97a4.41 4.41 0 014.41-4.41c2.42 0 4.4 1.98 4.4 4.41s-1.98 4.41-4.4 4.41a4.41 4.41 0 01-4.41-4.41zm13.85 78.97h-7.56v-19.15l7.56-6.35v25.5z"/><path class="fil2" d="M152.93 170.37h-13.62v-7.71l8.06-5.03v-8.54h-3.05v6.85l-5.01 3.13v-14.51l.28-.07a7.801 7.801 0 004.33-2.77 7.724 7.724 0 001.68-4.84c0-2.15-.87-4.11-2.29-5.52a7.76 7.76 0 00-5.52-2.29c-2.16 0-4.12.87-5.53 2.29a7.76 7.76 0 00-2.29 5.52c0 1.83.63 3.51 1.68 4.84a7.801 7.801 0 004.33 2.77l.28.07v25.81h-13.83v-40.26l13.6-10.88V81.84h-3.04v35.92c-3.51 2.83-7.04 5.64-10.56 8.45v-11.36l4.16-4.16V74.03h-3.05v35.4l-4.15 4.15v26.16c-2.76 2.33-5.53 4.65-8.29 6.97V98.72l.28-.07a7.855 7.855 0 004.33-2.77 7.784 7.784 0 001.68-4.84c0-2.15-.87-4.11-2.29-5.52a7.769 7.769 0 00-5.52-2.3c-2.16 0-4.12.88-5.53 2.3a7.76 7.76 0 00-2.29 5.52c0 1.83.63 3.51 1.68 4.84a7.801 7.801 0 004.33 2.77l.28.07v16.35L95.1 102.12V73.78h-3.04v29.6l15.99 16v40.14c-2.76-2.33-5.53-4.64-8.29-6.98v-8.48l-7.3-7.3v-6.81l.28-.07a7.801 7.801 0 004.33-2.77 7.724 7.724 0 001.68-4.84c0-2.15-.87-4.11-2.29-5.52a7.76 7.76 0 00-5.52-2.29c-2.16 0-4.12.87-5.53 2.29a7.802 7.802 0 00-.61 10.36 7.801 7.801 0 004.33 2.77l.28.07v8.07l7.31 7.3v25.05h-9.55v-14.66l-4.45-5.12.19-.24c.47-.57.85-1.23 1.11-1.95a6.522 6.522 0 00-1.55-6.83 6.505 6.505 0 00-4.63-1.93c-1.81 0-3.45.74-4.64 1.93a6.496 6.496 0 00-1.92 4.63c0 1.81.73 3.45 1.92 4.64a6.537 6.537 0 005.71 1.83c.36-.06.71-.14 1.05-.26l.23-.08 3.93 4.52v13.52h-8.33v3.05h80.65v-58.64c0-.43-.18-.82-.47-1.1a1.531 1.531 0 00-2.21 0c-.29.28-.46.67-.46 1.1v55.59h-.37zm-12.89-.73h12.52v-54.86c0-.63.26-1.21.68-1.62.41-.42.99-.68 1.63-.68.63 0 1.21.26 1.62.68.42.41.68.99.68 1.62v59.37H75.06v-4.51h8.33v-12.52l-3.43-3.94c-.3.09-.61.16-.92.22-.4.06-.8.1-1.2.1-2.01 0-3.84-.82-5.16-2.14a7.281 7.281 0 010-10.31 7.287 7.287 0 015.16-2.14c2.01 0 3.83.82 5.15 2.14a7.264 7.264 0 012.14 5.15c0 .86-.15 1.69-.42 2.45-.25.69-.6 1.34-1.04 1.92l4.23 4.87v14.2h8.08v-24.01l-7.3-7.31v-7.8a8.576 8.576 0 01-4.46-2.95 8.538 8.538 0 01.67-11.34 8.533 8.533 0 0112.09 0 8.538 8.538 0 01.67 11.34 8.537 8.537 0 01-4.46 2.95v5.93l7.31 7.31v8.45l6.82 5.73v-38.26l-16-15.99V73.04h4.52v28.78l11.48 11.48V99.29a8.593 8.593 0 01-4.46-2.96 8.489 8.489 0 01-1.84-5.29c0-2.36.96-4.49 2.51-6.04a8.533 8.533 0 0112.09 0 8.51 8.51 0 012.51 6.04c0 2-.69 3.84-1.84 5.29a8.553 8.553 0 01-4.46 2.96v45.85l6.82-5.74v-26.12l4.16-4.15V73.29h4.51v37.7l-4.15 4.16v9.54l9.09-7.28V81.1h4.51v38.48l-13.6 10.88v39.18h12.36v-24.51a8.636 8.636 0 01-4.46-2.95 8.538 8.538 0 01.67-11.34 8.533 8.533 0 0112.09 0 8.538 8.538 0 01.67 11.34 8.596 8.596 0 01-4.46 2.95v12.62l3.55-2.22v-7.18h4.51v9.68l-8.06 5.04v6.57zm-7.03-32.76c0-1.31.54-2.51 1.4-3.37.87-.87 2.06-1.4 3.38-1.4 1.31 0 2.51.53 3.37 1.4.87.86 1.4 2.06 1.4 3.37 0 1.32-.53 2.51-1.4 3.38-.86.86-2.06 1.4-3.37 1.4-1.32 0-2.51-.54-3.38-1.4-.86-.87-1.4-2.06-1.4-3.38zm1.92-2.85c-.73.73-1.18 1.74-1.18 2.85a4.027 4.027 0 004.04 4.04c1.11 0 2.12-.45 2.85-1.18s1.19-1.74 1.19-2.86c0-1.11-.46-2.12-1.19-2.85a4.03 4.03 0 00-2.85-1.19c-1.12 0-2.13.46-2.86 1.19zm-48.77-11.76a4.777 4.777 0 014.78-4.77c1.31 0 2.51.54 3.37 1.4a4.771 4.771 0 01-3.37 8.15 4.777 4.777 0 01-4.78-4.78zm1.92-2.85c-.73.73-1.18 1.74-1.18 2.85 0 1.12.45 2.13 1.18 2.86s1.74 1.19 2.86 1.19c1.11 0 2.12-.46 2.85-1.19s1.19-1.74 1.19-2.86c0-1.11-.46-2.12-1.19-2.85a4.03 4.03 0 00-2.85-1.19c-1.12 0-2.13.46-2.86 1.19zm-10.24 30.3c-.97 0-1.85-.4-2.49-1.03a3.549 3.549 0 01-1.03-2.49c0-.96.4-1.85 1.03-2.48.64-.64 1.52-1.03 2.49-1.03.97 0 1.85.39 2.48 1.03.64.63 1.03 1.52 1.03 2.48 0 .97-.39 1.85-1.03 2.49-.63.63-1.51 1.03-2.48 1.03zm-1.97-1.55c.5.5 1.2.82 1.97.82.76 0 1.46-.32 1.96-.82.51-.5.82-1.2.82-1.97 0-.76-.31-1.46-.82-1.96-.5-.5-1.2-.82-1.96-.82-.77 0-1.47.32-1.97.82-.5.5-.81 1.2-.81 1.96 0 .77.31 1.47.81 1.97zm31.82 22.2h-7.93v-13.84l8.29 6.97v6.87h-.36zm-7.19-.73h6.82v-5.8l-6.82-5.74v11.54zm4.3-78.6c0-1.31.54-2.51 1.4-3.37.87-.87 2.06-1.4 3.38-1.4 1.31 0 2.51.53 3.37 1.4.86.86 1.4 2.06 1.4 3.37 0 1.32-.54 2.51-1.4 3.38-.87.86-2.06 1.4-3.37 1.4a4.777 4.777 0 01-4.78-4.78zm1.92-2.85c-.73.72-1.19 1.74-1.19 2.85 0 1.12.46 2.13 1.19 2.86s1.74 1.18 2.86 1.18c1.11 0 2.12-.45 2.85-1.18s1.19-1.74 1.19-2.86c0-1.11-.46-2.12-1.19-2.85a3.989 3.989 0 00-2.85-1.19c-1.12 0-2.13.45-2.86 1.19zm12.3 82.18h-7.92v-19.68l8.29-6.97v26.65h-.37zm-7.19-.73h6.82v-24.35l-6.82 5.74v18.61z"/><path class="fil1" d="M156.8 85.67V69.99h-3.78v17.42l15.82 14.09c.85.76 2.16.66 2.91-.19.75-.85.67-2.17-.19-2.92L156.8 85.67z"/><path class="fil2" d="M156.44 85.67V70.36h-3.05v16.89l15.7 13.98c.35.31.79.44 1.22.41.42-.02.82-.21 1.13-.53l.05-.05c.3-.35.43-.8.4-1.23-.02-.43-.21-.85-.56-1.15-4.87-4.33-9.95-8.57-14.89-12.84v-.17zm.73-15.68v15.52c4.8 4.14 10.03 8.36 14.65 12.63.5.43.77 1.03.81 1.65.03.57-.13 1.17-.51 1.65l-.1.13c-.44.49-1.05.76-1.66.81-.62.04-1.26-.16-1.75-.59-5.21-4.81-10.67-9.47-15.95-14.22V69.63h4.51v.36z"/><path class="fil1" d="M109.32 49.95l34.89 29.91V56.47h8.81v9.74h3.78v-9.74h2.34c1.14 0 2.07-.93 2.07-2.07 0-1.13-.93-2.06-2.07-2.06h-21.05c-1.14 0-2.07.93-2.07 2.06 0 1.14.93 2.07 2.07 2.07h2.34v15.17l-31.11-26.66-31.16 26.64c-.87.74-1 2.11-.19 2.92.8.8 2.05.93 2.91.19l28.44-24.78z"/><path class="fil2" d="M109.56 49.67l34.28 29.39V56.1h9.55v9.75h3.05V56.1h2.7c.47 0 .9-.19 1.2-.5.31-.3.5-.73.5-1.2a1.709 1.709 0 00-1.7-1.7h-21.05c-.47 0-.89.2-1.2.5-.31.31-.5.74-.5 1.2 0 .47.19.9.5 1.2.31.31.73.5 1.2.5h2.71v16.34l-31.48-26.98L78.3 71.99c-.3.3-.47.7-.5 1.1-.03.39.08.8.35 1.11l.07.08c.35.34.79.54 1.23.57.42.03.85-.1 1.19-.4l28.68-24.98.24.2zm34.41 30.47l-34.64-29.7L81.12 75c-.5.44-1.11.62-1.71.58-.62-.04-1.23-.31-1.7-.78l-.12-.13c-.4-.46-.56-1.05-.52-1.63.04-.58.29-1.14.71-1.57 10.16-7.62 21.64-18.51 31.54-26.98l30.74 26.35v-14h-1.97c-.67 0-1.28-.28-1.72-.72-.44-.44-.72-1.05-.72-1.72 0-.67.28-1.28.72-1.72.44-.44 1.05-.71 1.72-.71h21.05c.67 0 1.28.27 1.72.71.44.44.72 1.05.72 1.72 0 .67-.28 1.28-.72 1.72-.44.44-1.05.72-1.72.72h-1.97v9.74h-4.51v-9.74h-8.08v23.82l-.61-.52z"/><path class="fil1" d="M154.87 98.72c1.06 0 1.93.88 1.93 1.94v6.28c0 1.07-.87 1.94-1.93 1.94-1.07 0-1.94-.87-1.94-1.94v-6.28c0-1.06.87-1.94 1.94-1.94zM75.82 75.94c.75.85.66 2.17-.19 2.92L49.81 101.5c-.86.75-2.17.66-2.92-.19-.75-.85-.66-2.17.19-2.92L72.9 75.75a2.08 2.08 0 012.92.19z"/><path class="fil2" d="M76.1 75.7c.44.5.63 1.14.59 1.76-.04.62-.32 1.23-.82 1.67l-25.82 22.65c-.5.44-1.14.63-1.76.59-.62-.04-1.23-.32-1.67-.82l-.09-.1c-.38-.49-.55-1.08-.51-1.66.04-.62.32-1.23.82-1.67l25.82-22.65a2.458 2.458 0 013.44.23zm-.14 1.71c.03-.43-.11-.88-.42-1.23-.3-.35-.73-.54-1.16-.57-.44-.03-.88.11-1.23.42L47.33 98.67c-.35.31-.55.73-.58 1.17-.02.42.11.86.4 1.21l.11.11c.3.29.68.46 1.08.48.43.03.88-.11 1.23-.42l25.82-22.64c.35-.31.54-.73.57-1.17z"/><path class="fil1" d="M136.02 47.04c0-1.13.93-2.06 2.07-2.06h21.05c1.14 0 2.07.93 2.07 2.06 0 1.14-.93 2.07-2.07 2.07h-21.05c-1.14 0-2.07-.93-2.07-2.07z"/><path class="fil2" d="M135.65 47.04c0-.66.28-1.27.72-1.71.44-.45 1.05-.72 1.72-.72h21.05c.67 0 1.28.27 1.72.71.44.44.72 1.06.72 1.72 0 .67-.28 1.28-.72 1.72-.44.44-1.05.72-1.72.72h-21.05c-.67 0-1.28-.28-1.72-.72-.44-.44-.72-1.05-.72-1.72zm1.24-1.2c-.31.31-.5.74-.5 1.2 0 .47.19.9.5 1.2.31.31.73.5 1.2.5h21.05c.47 0 .9-.19 1.2-.5.31-.3.5-.73.5-1.2 0-.46-.19-.89-.5-1.2a1.7 1.7 0 00-1.2-.49h-21.05c-.47 0-.89.19-1.2.49z"/><path class="fil1" d="M71.79 100.57c1.07 0 1.94.88 1.94 1.94v6.28c0 1.06-.87 1.94-1.94 1.94-1.06 0-1.94-.88-1.94-1.94v-6.28c0-1.06.88-1.94 1.94-1.94z"/><path class="fil2" d="M71.79 100.21a2.307 2.307 0 012.31 2.3v6.28a2.307 2.307 0 01-2.31 2.3c-.63 0-1.21-.26-1.63-.67-.41-.42-.67-1-.67-1.63v-6.28c0-.63.26-1.21.67-1.63.42-.41 1-.67 1.63-.67zm1.11 1.19c-.28-.28-.68-.46-1.11-.46-.43 0-.82.18-1.11.46a1.6 1.6 0 00-.46 1.11v6.28c0 .43.18.83.46 1.11.29.28.68.46 1.11.46.43 0 .83-.18 1.11-.46.29-.28.46-.68.46-1.11v-6.28c0-.43-.17-.82-.46-1.11z"/><path class="fil1" d="M71.74 114.71h.1c1.04 0 1.89.85 1.89 1.88 0 1.04-.85 1.89-1.89 1.89h-.1c-1.04 0-1.89-.85-1.89-1.89 0-1.03.85-1.88 1.89-1.88z"/><path class="fil2" d="M71.74 114.34h.1c.62 0 1.19.25 1.59.66.41.41.67.98.67 1.59 0 .63-.26 1.19-.67 1.6-.4.41-.97.66-1.59.66h-.1c-.62 0-1.18-.25-1.59-.66a2.255 2.255 0 011.59-3.85zm.1.73h-.1c-.42 0-.8.18-1.07.45-.28.28-.45.66-.45 1.07 0 .42.17.8.45 1.08.27.27.65.45 1.07.45h.1c.42 0 .8-.18 1.08-.45.27-.28.44-.66.44-1.08 0-.41-.17-.79-.44-1.07-.28-.27-.66-.45-1.08-.45z"/><path class="fil1" d="M62.35 116.54v57.24h9.3v-3.77h-5.43v-69.37c0-1.06-.87-1.93-1.93-1.93-1.07 0-1.94.87-1.94 1.93v15.9z"/><path class="fil2" d="M62.71 116.54v56.88h8.57v-3.05h-5.42v-69.73c0-.43-.18-.82-.47-1.11a1.557 1.557 0 00-2.21 0c-.29.29-.47.68-.47 1.11v15.9zm-.73 55.31v-71.21c0-.63.26-1.21.68-1.62.41-.42.99-.68 1.63-.68.63 0 1.21.26 1.62.68.42.41.68.99.68 1.62v69h5.43v4.51H61.98v-2.3z"/></g></g></svg>