<svg xmlns="http://www.w3.org/2000/svg" width="286" height="286" version="1.0" viewBox="0 0 79.38 79.38" shape-rendering="geometricPrecision" text-rendering="geometricPrecision" image-rendering="optimizeQuality" fill-rule="evenodd" clip-rule="evenodd"><defs><style>.fil1{fill:#9b9b9b}</style></defs><g id="Слой_x0020_1"><g id="_3062871477008"><path fill="none" d="M0 0h79.38v79.38H0z"/><path class="fil1" d="M20.77 34.35c.37.08.79-.18.88-.5.63-2.25 1.7-4.32 3.17-6.15.25-.31.2-.76-.11-1.01a.717.717 0 00-1.01.11c-1.6 1.98-2.75 4.23-3.43 6.66-.11.39.11.81.5.89zm0 0zm35.53 4.9c.4 0 .72-.33.72-.72 0-10.33-8.4-18.73-18.72-18.73-4.47 0-8.79 1.6-12.18 4.5-.3.26-.34.72-.08 1.02.26.3.71.34 1.02.08 3.12-2.68 7.11-4.16 11.24-4.16 9.53 0 17.28 7.76 17.28 17.29 0 .39.32.72.72.72zm0 0z"/><path class="fil1" d="M52.37 39.68h.06c.39-.03.69-.38.66-.78-.25-3.01-1.09-5.85-2.51-8.44-1.15-2.11-2.89-3.88-5.02-5.14-2.19-1.29-4.7-1.98-7.26-1.98-6.72 0-12.66 4.49-14.45 10.93-.07.23-.14.55-.23.96-.13.62-.63 1.09-1.26 1.17-.6.07-1.29.13-2.05.16-.4.01-.71.35-.69.75.01.4.35.7.75.69.8-.03 1.53-.09 2.17-.17a2.911 2.911 0 002.49-2.31c.08-.38.15-.67.2-.87 1.62-5.81 6.99-9.87 13.07-9.87 2.3 0 4.56.62 6.53 1.78 1.91 1.13 3.46 2.71 4.48 4.59 1.32 2.41 2.11 5.06 2.34 7.87.03.38.35.66.72.66zm0 0z"/><path class="fil1" d="M49.16 40.68h.02c.39 0 .71-.31.72-.7.02-.66 0-1.22-.06-1.68-.05-2.96-1.23-5.75-3.31-7.87a.715.715 0 00-1.02-.01c-.29.28-.29.74-.01 1.02 1.83 1.86 2.86 4.32 2.9 6.92.01.03.01.06.01.09.05.38.07.89.05 1.49-.01.4.3.73.7.74zm0 0zm-28.8.77l.1-.01c2.22-.08 4.06-.36 5.46-.83 1.3-.43 2.21-1.61 2.32-3.01.02-.27.05-.54.09-.8a10.17 10.17 0 013.42-5.97c1.83-1.56 4.15-2.41 6.55-2.41 1.62 0 3.24.39 4.67 1.15.36.18.79.04.98-.31.18-.35.05-.79-.31-.97a11.49 11.49 0 00-5.34-1.31c-2.74 0-5.4.97-7.48 2.75a11.59 11.59 0 00-3.91 6.83c-.05.3-.09.62-.11.93-.06.82-.58 1.51-1.33 1.75-.88.3-2.47.66-5.07.76l-.09.01c-.4.01-.71.35-.7.75.02.38.34.69.72.69h.03zm0 0zm19.77 14.23c-.74.45-1.53.86-2.35 1.22-.37.16-.53.59-.37.95a.718.718 0 00.95.37c.88-.38 1.73-.83 2.52-1.32.34-.21.45-.65.24-.99a.717.717 0 00-.99-.23zm0 0z"/><path class="fil1" d="M45.56 42.2c.4.04.75-.25.79-.64.18-1.66.07-2.83.05-3.07-.02-4.45-3.65-8.07-8.1-8.07-3.96 0-7.32 2.83-7.99 6.72-.09.52-.11 1.09-.08 1.72.02.39-.05 1.16-.78 1.97-.98 1.07-3.32 2.4-8.91 2.62-.4.01-.71.35-.69.75.01.39.33.69.72.69h.02c4.9-.19 8.24-1.23 9.93-3.09 1.08-1.2 1.19-2.41 1.15-3.02-.03-.53-.01-.98.06-1.39.55-3.2 3.31-5.53 6.57-5.53 3.67 0 6.66 2.99 6.66 6.67v.08c.01.01.13 1.14-.04 2.8-.04.39.25.75.64.79zm0 0zm-4.43 8.99a.735.735 0 00-1.02-.06c-2.38 2.11-5.6 3.52-9.56 4.2a.71.71 0 00-.58.83c.05.35.36.6.7.6.04 0 .09-.01.13-.01 4.22-.72 7.68-2.25 10.26-4.54.3-.26.33-.72.07-1.02zm0 0z"/><path class="fil1" d="M43.14 38.5c-.02-2.66-2.18-4.82-4.84-4.82-2.37 0-4.37 1.69-4.77 4.02-.05.27-.06.59-.04.98.05.89-.09 2.65-1.63 4.34-1.58 1.75-4.09 2.85-7.67 3.38-.96.07-1.87.15-2.72.23-.39.04-.68.39-.65.78.04.4.39.69.79.65.84-.08 1.76-.16 2.72-.23h.04c3.94-.58 6.74-1.83 8.56-3.84 1.89-2.08 2.06-4.27 2-5.4-.02-.27-.01-.49.01-.65.29-1.63 1.7-2.82 3.36-2.82 1.87 0 3.4 1.53 3.4 3.41v.06c.01.05.41 5.3-2.88 8.94-1.82 2.02-6.1 4.41-12.65 5.04a.72.72 0 00-.65.79c.04.37.35.65.72.65.02 0 .05 0 .07-.01 5.82-.56 11.03-2.67 13.58-5.5 3.61-4 3.29-9.49 3.25-10zm0 0z"/><path class="fil1" d="M30.93 48.02c-.96.41-1.99.76-3.07 1.02-1.4.35-2.89.56-4.45.64-.39.02-.7.35-.68.75.02.39.34.69.72.69.01 0 .02 0 .04-.01 1.64-.08 3.22-.3 4.71-.67 1.16-.28 2.27-.65 3.31-1.1 1.98-.86 3.71-2.02 5.16-3.46 1.51-1.49 2.31-3.9 2.26-6.77v-.06c.01-.2-.06-.41-.21-.56a.707.707 0 00-1.02 0c-.22.22-.22.46-.21.65.04 2.47-.61 4.51-1.84 5.72-1.31 1.31-2.9 2.37-4.72 3.16zm0 0zm20.18 5.32c-.4 0-.72.32-.72.72v1.45c0 .39.32.72.72.72.39 0 .72-.33.72-.72v-1.45c0-.4-.33-.72-.72-.72zm0 0zm2.19 0c-.4 0-.72.32-.72.72v1.45c0 .39.32.72.72.72.4 0 .72-.33.72-.72v-1.45c0-.4-.32-.72-.72-.72zm0 0zm2.19 0c-.39 0-.72.32-.72.72v1.45c0 .39.33.72.72.72.4 0 .73-.33.73-.72v-1.45c0-.4-.33-.72-.73-.72zm0 0z"/><path class="fil1" d="M53.3 41.6c-6.05 0-10.98 4.92-10.98 10.97 0 6.06 4.93 10.98 10.98 10.98 6.05 0 10.98-4.92 10.98-10.98 0-6.05-4.93-10.97-10.98-10.97zm0 20.51c-5.26 0-9.54-4.28-9.54-9.54 0-5.25 4.28-9.53 9.54-9.53 5.26 0 9.54 4.28 9.54 9.53 0 5.26-4.28 9.54-9.54 9.54zm0 0z"/><path class="fil1" d="M42.89 60.34c-1.49.32-3.03.48-4.57.48-5.82 0-11.29-2.26-15.4-6.38-4.12-4.11-6.38-9.58-6.38-15.4 0-5.81 2.26-11.28 6.38-15.4 4.11-4.11 9.58-6.38 15.4-6.38 5.81 0 11.28 2.27 15.4 6.38 4.11 4.12 6.37 9.59 6.37 15.4 0 .81-.04 1.62-.13 2.42a.718.718 0 101.43.16c.1-.85.15-1.72.15-2.58 0-6.2-2.42-12.03-6.81-16.42a23.064 23.064 0 00-16.41-6.8 23.07 23.07 0 00-16.42 6.8c-4.39 4.39-6.8 10.22-6.8 16.42 0 6.2 2.41 12.04 6.8 16.42 4.38 4.39 10.21 6.8 16.42 6.8 1.64 0 3.28-.17 4.87-.51.39-.09.64-.47.56-.86a.728.728 0 00-.86-.55zm0 0z"/><path class="fil1" d="M57.55 50.39h-.14v-1.26c0-2.27-1.85-4.11-4.11-4.11-2.26 0-4.1 1.84-4.1 4.11v1.26h-.15c-.63 0-1.14.52-1.14 1.15v6.08c0 .63.51 1.14 1.14 1.14h8.5c.63 0 1.14-.51 1.14-1.14v-6.08c0-.63-.51-1.15-1.14-1.15zm-6.91-1.26c0-1.47 1.19-2.67 2.66-2.67 1.47 0 2.66 1.2 2.66 2.67v1.26h-5.32v-1.26zm6.61 8.19h-7.9v-5.48h7.9v5.48zm0 0z"/></g></g></svg>