<svg xmlns="http://www.w3.org/2000/svg" width="286" height="286" version="1.0" viewBox="0 0 110.44 110.44" shape-rendering="geometricPrecision" text-rendering="geometricPrecision" image-rendering="optimizeQuality" fill-rule="evenodd" clip-rule="evenodd"><defs><style>.fil0{fill:#9b9b9b}</style></defs><g id="Слой_x0020_1"><g id="_3062800191696"><path class="fil0" d="M81.69 34.46L55.47 20.49a1.3 1.3 0 00-1.24.01l-25.5 13.97c-.41.23-.67.67-.67 1.15v18.25c.01 15 8.9 28.57 22.65 34.58l3.54 1.54c.33.15.7.15 1.03 0l3.99-1.72A37.71 37.71 0 0082.38 53.5V35.62c0-.49-.26-.93-.69-1.16zM79.77 53.5c0 14.14-8.48 26.9-21.52 32.37h-.01l-3.47 1.5-3.02-1.31c-12.79-5.6-21.07-18.23-21.08-32.19V36.39l24.2-13.26 24.9 13.27v17.1zm0 0z"/><path class="fil0" d="M45.23 53.02c-.46-.55-1.29-.61-1.84-.15-.54.47-.61 1.3-.14 1.84l6.89 8.08c.46.54 1.27.61 1.82.16l16.06-13.06c.56-.46.64-1.28.19-1.84-.46-.56-1.28-.64-1.84-.19L51.3 60.12l-6.07-7.1zm0 0z"/><path fill="none" d="M0 0h110.44v110.44H0z"/></g></g></svg>