<svg xmlns="http://www.w3.org/2000/svg" width="286" height="286" version="1.0" viewBox="0 0 218.65 218.65" shape-rendering="geometricPrecision" text-rendering="geometricPrecision" image-rendering="optimizeQuality" fill-rule="evenodd" clip-rule="evenodd"><defs><style>.fil1{fill:#9b9b9b}</style></defs><g id="Слой_x0020_1"><path fill="none" d="M0 0h218.65v218.65H0z"/><g id="_3062798931120"><path class="fil1" d="M129.83 86.56c-1.25 0-2.26 1.01-2.26 2.26a2.256 2.256 0 104.51 0c0-1.25-1.01-2.26-2.25-2.26zm0 0zm-41.01 41.01a2.256 2.256 0 100 4.51 2.256 2.256 0 100-4.51zm0 0z"/><path class="fil1" d="M164.29 65.43c-.76-.17-1.56.06-2.11.61l-9.36 9.43h-4.48l-4.94-5.11v-4.55l9.22-9.36a2.249 2.249 0 00-.89-3.72c-2.31-.78-4.74-1.18-7.2-1.18-7.35 0-14.03 3.43-18.32 9.4-4.02 5.6-5.26 12.45-3.49 19.02L106.1 96.59 78.41 68.83v-5.45c0-.79-.42-1.53-1.1-1.93l-15.96-9.58c-.89-.53-2.02-.39-2.75.34l-6.39 6.38c-.73.74-.87 1.87-.33 2.76l9.57 15.96c.41.68 1.14 1.09 1.93 1.09l5.45.01 27.7 27.75-16.56 16.56c-6.56-1.77-13.42-.53-19.02 3.49-5.97 4.29-9.4 10.97-9.4 18.32 0 2.46.4 4.89 1.18 7.2.25.74.86 1.3 1.63 1.48.76.18 1.56-.05 2.11-.61l9.35-9.43h4.51l5.14 5.14v4.51l-9.43 9.36c-.55.55-.78 1.35-.6 2.11.17.76.73 1.38 1.47 1.63 2.32.78 4.74 1.17 7.21 1.17 7.35 0 14.02-3.42 18.32-9.39 4.02-5.6 5.26-12.46 3.48-19.02l13.3-13.3 3.05 3.31-1.4 1.4c-.88.88-.88 2.31 0 3.19.88.88 2.31.88 3.19 0l1.27-1.27 28.58 31.05.07.07c5.29 5.29 13.86 5.29 19.15 0 5.28-5.28 5.28-13.87 0-19.15l-.07-.07-31.1-28.53 1.25-1.25c.88-.88.88-2.31 0-3.19-.88-.88-2.31-.88-3.19 0l-1.39 1.39-3.31-3.05 13.36-13.36c1.9.51 3.86.76 5.85.76 12.44 0 22.57-10.12 22.57-22.56 0-2.47-.4-4.89-1.18-7.21-.25-.74-.87-1.3-1.63-1.48zm-92.93 9.12a2.23 2.23 0 00-1.59-.64h-5.11l-8.01-13.37 3.89-3.89 13.35 8.01v5.11c0 .59.24 1.17.66 1.59l28.36 28.42-3.19 3.19-28.36-28.42zm57.41 44.03l31.2 28.62c3.49 3.52 3.48 9.23-.03 12.74-3.52 3.51-9.21 3.52-12.74.03l-28.68-31.15 10.25-10.24zm-3.33-3.06l-9.98 9.97-3.04-3.3 9.7-9.71 3.32 3.04zm19.09-23.35c-1.98 0-3.92-.32-5.77-.94-.81-.27-1.71-.06-2.32.54-11.31 11.32-35.69 35.69-44.66 44.67a2.27 2.27 0 00-.55 2.32c1.88 5.57.98 11.51-2.46 16.3-3.43 4.78-8.77 7.52-14.65 7.52-.66 0-1.32-.03-1.97-.1l7.17-7.12c.43-.42.67-1 .67-1.6v-6.38c0-.6-.24-1.18-.66-1.6l-6.47-6.46c-.42-.42-.99-.66-1.59-.66h-6.39c-.6 0-1.17.24-1.6.67l-7.11 7.16c-.07-.65-.11-1.3-.11-1.96 0-5.88 2.74-11.22 7.52-14.65 4.79-3.45 10.74-4.34 16.31-2.47.81.28 1.71.07 2.31-.54.13-.12 44.64-44.64 44.67-44.67.61-.61.82-1.5.54-2.31-1.87-5.58-.98-11.52 2.46-16.3 3.44-4.78 8.78-7.53 14.66-7.53.68 0 1.35.04 2.02.12l-7.02 7.12c-.41.42-.64.99-.64 1.58v6.39c0 .58.22 1.14.63 1.56l6.23 6.47c.43.44 1.02.68 1.63.68h6.38c.6 0 1.18-.23 1.6-.66l7.12-7.17c.07.65.1 1.31.1 1.97 0 9.95-8.1 18.05-18.05 18.05zm0 0z"/><path class="fil1" d="M121.85 93.61l-28.24 28.24c-.88.88-.88 2.31 0 3.19.88.88 2.31.88 3.19 0l28.24-28.24c.88-.88.88-2.31 0-3.19-.88-.88-2.31-.88-3.19 0zm0 0zm28.52 59.95c.88.88 2.31.88 3.19-.01.88-.88.87-2.31-.01-3.19l-20.34-20.28c-.88-.88-2.31-.87-3.19.01-.88.88-.88 2.31 0 3.19l20.35 20.28zm0 0z"/></g></g></svg>