<svg xmlns="http://www.w3.org/2000/svg" width="286" height="286" version="1.0" viewBox="0 0 79.38 79.38" shape-rendering="geometricPrecision" text-rendering="geometricPrecision" image-rendering="optimizeQuality" fill-rule="evenodd" clip-rule="evenodd"><defs><style>.fil1{fill:#9b9b9b}</style></defs><g id="Слой_x0020_1"><g id="_3062798927184"><path fill="none" d="M0 0h79.38v79.38H0z"/><path class="fil1" d="M15.66 35.5c.02-.44.27-1.25 1.69-1.77l37.95-13.8c1.94-.7 4.1.3 4.81 2.25L61.13 25l2.32 6.35c.7 1.94-.3 4.1-2.25 4.81l-11.06 4.02c.21 1.28-.14 2.54-.9 3.51l2.35 6.47c.11.3.4.5.72.5h6.9v-2.25c0-1.25 1.01-2.26 2.25-2.26h1.5c.42 0 .75.34.75.75v12.02c0 .41-.33.75-.75.75h-1.5c-1.24 0-2.25-1.01-2.25-2.25v-2.26h-6.9c-2.21 0-4.19-1.39-4.95-3.46l-2.3-6.34a4.486 4.486 0 01-3.24-2.15L28.9 47.9c-.42.16-.85.23-1.28.23-1.29 0-2.52-.67-3.2-1.79l-1.49.54a1.481 1.481 0 01-1.14-.05c-.37-.17-.64-.47-.78-.85l-2.05-5.64c-.25-.69.03-1.44.64-1.8l-2.41-1.13c-1.37-.64-1.55-1.47-1.53-1.91zm45.05 21.92c0 .41.34.75.75.75h.75V47.66h-.75c-.41 0-.75.33-.75.75v9.01zm-11.94-6.23a3.773 3.773 0 003.54 2.47h6.9v-1.5h-6.9c-.95 0-1.8-.6-2.13-1.49l-2.15-5.92c-.25.15-.51.28-.8.38-.19.07-.4.13-.6.18l2.14 5.88zm-3.18-7.29h.05a3.01 3.01 0 002.16-.86l.09-.09c.56-.59.86-1.4.8-2.24l-5.42 1.97c.55.75 1.41 1.2 2.32 1.22zm-25.22-4.08l2.05 5.65 1.41-.52-1.95-5.35-.39-.18-1.12.4zm-2.55-3.77l4.02 1.87.96.45 1.13.53c1.32.62 3.6.71 4.97.22l21.72-7.9c.39-.14.82.06.96.45s-.06.82-.45.97l-21.72 7.89c-.75.27-1.69.41-2.64.41-1.04 0-2.1-.17-2.97-.48l1.7 4.69a2.258 2.258 0 002.89 1.34l32.3-11.74a2.25 2.25 0 001.34-2.89l-1.28-3.53c-.43.66-1.07 1.19-1.86 1.48l-.71.26a.75.75 0 11-.51-1.41l.71-.26a2.254 2.254 0 001.34-2.89l-.25-.7-.77-2.12a2.263 2.263 0 00-2.89-1.35l-37.95 13.8c-.48.18-.66.36-.69.43.03.07.19.27.65.48z"/><path class="fil1" d="M53.44 30.2l1.41-.52a.75.75 0 11.51 1.41l-1.41.52c-.08.03-.17.04-.25.04-.31 0-.6-.19-.71-.49a.75.75 0 01.45-.96z"/></g></g></svg>