<?xml version="1.0" encoding="UTF-8"?>
<!DOCTYPE svg PUBLIC "-//W3C//DTD SVG 1.0//EN" "http://www.w3.org/TR/2001/REC-SVG-20010904/DTD/svg10.dtd">
<!-- Creator: CorelDRAW 2017 -->
<svg xmlns="http://www.w3.org/2000/svg" xml:space="preserve" width="474px" height="246px" version="1.0" style="shape-rendering:geometricPrecision; text-rendering:geometricPrecision; image-rendering:optimizeQuality; fill-rule:evenodd; clip-rule:evenodd"
viewBox="0 0 115.6 59.98"
 xmlns:xlink="http://www.w3.org/1999/xlink">
 <defs>
  <style type="text/css">
   <![CDATA[
    .fil1 {fill:#8A00B8}
    .fil0 {fill:white}
   ]]>
  </style>
 </defs>
 <g id="Слой_x0020_1">
  <metadata id="CorelCorpID_0Corel-Layer"/>
  <g id="_1561361813312">
   <rect class="fil0" width="115.6" height="59.98"/>
   <g>
    <g>
     <path class="fil1" d="M83.49 48.7l3.13 0c-0.11,-0.27 -2.22,-2.15 -2.61,-2.5l-9.91 -8.9 -3.24 -0.11c0.18,0.46 11.28,10.29 12.63,11.51z"/>
     <path class="fil1" d="M66.44 48.7l2.61 0 -8.02 -11.66 -0.02 0c-0.4,0.68 -0.84,1.21 -1.25,1.85l6.68 9.81z"/>
     <path class="fil1" d="M42.46 48.7l2.6 0 -8 -11.57c-0.37,0.31 -1.17,1.54 -1.28,1.88l6.68 9.69z"/>
     <path class="fil1" d="M47.31 48.7l1.44 0c1.06,-0.15 1.67,-0.42 2.41,-1.25 0.54,-0.62 1.03,-1.55 1.16,-2.67l0.02 -7.63 -1.97 0 -0.09 6.36c0,0.75 -0.06,1.37 -0.23,1.86 -0.35,1.06 -1.17,1.56 -2.77,1.54l0.03 1.79z"/>
     <path class="fil1" d="M28.98 48.62l0 0.08 2.67 0 4.56 -6.69 -2.38 -0.05 -4.85 6.66z"/>
     <path class="fil1" d="M53.01 48.7l2.62 0 4.57 -6.74 -2.66 0 -4.53 6.74z"/>
     <path class="fil1" d="M70.89 48.7l3.13 0 3.58 -3.36 -3.18 0 -3.53 3.36z"/>
     <path class="fil1" d="M79.91 40.47l3.01 -0.03 3.7 -3.29 -3.15 0.1 -3.56 3.22z"/>
    </g>
    <path class="fil1" d="M38.1 18.08c1.44,0.63 3.31,1.24 4.84,1.8l14.8 5.42c0.5,0.02 16.86,-6.21 19.71,-7.22l0.39 -5.18 -14.97 3.82c-0.83,0.21 -4.56,1.25 -5.12,1.24l-10.02 -2.52c-1.32,-0.34 -9.43,-2.51 -10.06,-2.52l0.43 5.16z"/>
    <path class="fil1" d="M80.3 19.61l-10.28 4.38c-3.39,1.44 -6.89,3.02 -10.35,4.43l0.01 5.74c0.63,-0.18 11.56,-5.97 12.53,-6.47l6.18 -3.23c2,-1.12 4.4,-2.11 6.24,-3.29l1.21 -10.45 -4.23 1.04c-0.74,0.19 -0.54,0.38 -0.63,1.23 -0.22,2.22 -0.44,4.39 -0.68,6.62z"/>
    <path class="fil1" d="M55.83 34.21l0.02 -5.79c-0.82,-0.25 -1.7,-0.71 -2.5,-1.05l-15.63 -6.69c-0.84,-0.36 -1.78,-0.72 -2.58,-1.14l-0.88 -7.56c-0.66,-0.3 -1.56,-0.48 -2.29,-0.66 -0.78,-0.2 -1.62,-0.46 -2.44,-0.6 0.32,3.25 0.85,6.49 1.21,9.75 0.08,0.72 0.03,0.7 0.62,1 6.78,3.43 13.59,7.15 20.39,10.64 1.32,0.67 2.73,1.48 4.08,2.1z"/>
   </g>
  </g>
 </g>
</svg>
