<?xml version="1.0" encoding="UTF-8"?>
<!DOCTYPE svg PUBLIC "-//W3C//DTD SVG 1.0//EN" "http://www.w3.org/TR/2001/REC-SVG-20010904/DTD/svg10.dtd">
<!-- Creator: CorelDRAW 2017 -->
<svg xmlns="http://www.w3.org/2000/svg" xml:space="preserve" width="474px" height="246px" version="1.0" style="shape-rendering:geometricPrecision; text-rendering:geometricPrecision; image-rendering:optimizeQuality; fill-rule:evenodd; clip-rule:evenodd"
viewBox="0 0 232.72 120.75"
 xmlns:xlink="http://www.w3.org/1999/xlink">
 <defs>
  <style type="text/css">
   <![CDATA[
    .fil1 {fill:#922731}
    .fil2 {fill:#FCFCFD}
    .fil0 {fill:white}
   ]]>
  </style>
 </defs>
 <g id="Слой_x0020_1">
  <metadata id="CorelCorpID_0Corel-Layer"/>
  <g id="_3062869849216">
   <rect class="fil0" width="232.72" height="120.75"/>
   <g>
    <path class="fil1" d="M77.94 63.51c-5.01,1.28 -13.26,2.78 -14.58,-4.99 -1.25,-7.28 5.29,-8.78 7.89,-6.99 1.17,0.81 1.64,1.67 1.69,3.49l-6.03 0.01c-0.25,-0.01 -0.86,-0.02 -1.09,0.02 -2.01,0.33 -0.62,3.9 -0.27,4.85l15.06 0c0.27,-5.91 -0.34,-9.58 -4.35,-12.94 -4.79,-4.01 -16.01,-3.2 -19.73,3.87 -3.85,7.33 -1.05,18.58 11.09,19.9 2.21,0.25 8.65,0.11 10.31,-0.81l0.01 -6.41z"/>
    <path class="fil1" d="M37.93 50.3c2.21,0 6.54,-0.64 6.9,1.56 0.49,3.1 -3.41,2.62 -5.66,2.63l0 5.29c2.66,0.02 7.05,-0.3 6.07,3.38 -0.67,2.55 -4.54,1.99 -7.33,1.99l0.02 -14.85zm10.3 6.45c1.61,-1.54 3.59,-2.12 3.26,-5.79 -0.21,-2.32 -1.65,-4.3 -3.65,-5.26 -2.08,-0.99 -14.13,-1.14 -17.01,-0.71l0.06 25.47c2.74,0.3 7.01,0.05 9.91,0.05 3.08,0 6.18,0.11 8.51,-1.25 1.89,-1.1 3.54,-3.73 3.18,-6.94 -0.47,-4.2 -3,-4.55 -4.26,-5.57z"/>
    <path class="fil1" d="M159.71 50.86c3.71,-0.49 7.67,0.01 7.84,3.67 0.21,4.37 -2.86,4.55 -6.56,4.13l-0.01 6.54c2.62,2.01 9.15,5.47 13.32,6.09l0 -6.3c-2.19,-0.25 -4.67,-1.11 -6.09,-2.22l2.12 -0.86c0.57,-0.29 1.28,-0.83 1.72,-1.17 1.17,-0.91 1.92,-1.9 2.36,-3.45 2.2,-7.77 -3,-12.08 -10.38,-12.18 -3.78,-0.05 -7.62,-0.01 -11.41,0l0 25.62 7.02 -0.01 0.07 -19.86z"/>
    <path class="fil1" d="M186.51 50.81c5.02,-0.06 7.96,1.98 8.08,6.82 0.15,5.66 -2.06,7.4 -6.81,7.95l-0.01 5.62c4.29,0.62 9.41,-2.33 11.2,-4.3 2.54,-2.79 3.51,-7.77 2.55,-12.59 -0.45,-2.25 -1.43,-4.03 -2.69,-5.13 -5.75,-4.97 -11.29,-4.06 -19.4,-4.07l0.08 25.63 6.99 -0.06 0.01 -19.87z"/>
    <path class="fil1" d="M124.31 44.95c-0.88,-0.82 -6.18,-0.57 -7.39,-0.49 -3.11,0.21 -0.27,4.28 1.06,8.78 2.2,7.42 0.43,10.37 -2.44,15.73 -2.61,-1.38 -4.96,-6.91 -5.81,-9.93 -0.61,-2.21 -0.92,-4.51 -1.12,-6.95 -0.13,-1.45 0.08,-6.4 -0.39,-7.37 -0.92,-0.59 -5.88,-0.38 -7.29,-0.18 -1.16,6.46 0.36,14.17 2.75,19.2 2.53,5.31 3.9,8.07 8.13,11.52 0.53,0.43 0.95,0.84 1.62,1.15 0.6,-0.9 1.63,-2 2.41,-2.89 4.72,-5.42 7.29,-11.15 8.24,-18.56 0.23,-1.79 1.06,-8.86 0.23,-10.01z"/>
    <path class="fil1" d="M132.02 70.21c0.66,-3.12 3.11,-14.95 5,-16.95 0.72,0.9 2.5,5.84 2.67,7.27l-4.26 0.01 -1.18 5.36 6.94 0.07 0.71 4.25 6.99 -0.01c-0.29,-3.9 -2.08,-10.24 -3.27,-13.8 -0.69,-2.07 -1.49,-4.2 -2.38,-6.11l-2.86 -5.64 -6.48 0c-1.6,0.8 -4.64,9.43 -5.41,11.82 -1.34,4.2 -2.71,9.04 -3.48,13.73l7.01 0z"/>
    <path class="fil1" d="M98.53 69.58c-5.2,-5.57 -7.81,-14.73 -6.9,-22.79 0.32,-2.86 0.18,-2.34 -2.61,-2.33 -1.19,0.01 -3.75,-0.24 -4.69,0.23 -0.87,1.86 -0.68,8.15 -0.39,10.45 0.75,5.9 3.04,11.85 6.66,16.11 1.02,1.21 4.83,4.47 6.24,5.12 1.69,-0.87 3.92,-3.8 5.15,-5.55 1.79,-2.55 3.32,-3.89 0.65,-6.6 -0.73,0.66 -2.44,4 -4.11,5.36z"/>
    <path class="fil2" d="M37.91 65.15c2.79,0 6.66,0.56 7.33,-1.99 0.98,-3.68 -3.41,-3.36 -6.07,-3.38l0 -5.29c2.25,-0.01 6.15,0.47 5.66,-2.63 -0.36,-2.2 -4.69,-1.56 -6.9,-1.56l-0.02 14.85z"/>
   </g>
  </g>
 </g>
</svg>
