<?xml version="1.0" encoding="UTF-8"?>
<!DOCTYPE svg PUBLIC "-//W3C//DTD SVG 1.0//EN" "http://www.w3.org/TR/2001/REC-SVG-20010904/DTD/svg10.dtd">
<!-- Creator: CorelDRAW 2017 -->
<svg xmlns="http://www.w3.org/2000/svg" xml:space="preserve" width="474px" height="246px" version="1.0" style="shape-rendering:geometricPrecision; text-rendering:geometricPrecision; image-rendering:optimizeQuality; fill-rule:evenodd; clip-rule:evenodd"
viewBox="0 0 232.72 120.75"
 xmlns:xlink="http://www.w3.org/1999/xlink">
 <defs>
  <style type="text/css">
   <![CDATA[
    .fil2 {fill:#009DE0}
    .fil3 {fill:#19171C}
    .fil4 {fill:#8F8E91}
    .fil1 {fill:white}
    .fil0 {fill:white}
   ]]>
  </style>
 </defs>
 <g id="Слой_x0020_1">
  <metadata id="CorelCorpID_0Corel-Layer"/>
  <g id="_3062718171616">
   <rect class="fil0" width="232.72" height="120.75"/>
   <g>
    <path class="fil1" d="M78.54 29.48l0 20c0,1.71 0.75,2.73 1.94,3.19l57.58 14.9c1.84,0.48 2.9,0.23 2.9,-1.85l0 -21.88c0,-3.64 -2.46,-3.51 -6.18,-4.47l-42.15 -10.9c-1.36,-0.36 -11.86,-3.27 -12.82,-3.09 -1.64,0.32 -1.27,2.51 -1.27,4.1z"/>
    <path class="fil2" d="M78.54 29.48c0,-1.59 -0.37,-3.78 1.27,-4.1 0.96,-0.18 11.46,2.73 12.82,3.09l42.15 10.9c3.72,0.96 6.18,0.83 6.18,4.47l0 21.88c0,2.08 -1.06,2.33 -2.9,1.85l-57.58 -14.9c-1.19,-0.46 -1.94,-1.48 -1.94,-3.19l0 -20zm0.25 -7.23c-1.21,0.26 -1.88,0.82 -2.37,1.63 -0.6,0.98 -0.53,2.31 -0.53,3.61 0,2.98 -0.19,23.03 0.16,24.19 0.7,2.28 2.1,2.82 4.61,3.45 2.14,0.54 4.22,1.13 6.38,1.69 4.31,1.11 8.61,2.19 12.87,3.39 4.23,1.18 8.54,2.25 12.76,3.35 4.3,1.13 8.53,2.32 12.85,3.4 4.27,1.06 8.54,2.18 12.78,3.37 1.01,0.28 2.26,0.72 3.34,0.33 2.52,-0.9 1.93,-3.73 1.93,-6.26l-0.01 -8.07c0,-1.88 0.75,-1.62 2.43,-1.61 1.27,0 7.3,0.09 8.05,-0.05 1.11,-0.21 1.89,-0.95 2.31,-1.68 0.65,-1.12 0.48,-2.21 0.48,-3.62 0,-2.02 0.11,-23.33 -0.05,-24.29 -0.17,-1.09 -0.88,-1.91 -1.59,-2.36 -1.1,-0.7 -2.17,-0.53 -3.56,-0.53l-56.69 0c-2.23,0 -15.11,-0.16 -16.15,0.06z"/>
    <path class="fil3" d="M116.18 97.97l4.25 0.04 0.01 -14.28 3.97 14.26 4.92 0.02 4 -14.36 0.07 14.34 4.21 0.02 0 -21.61 -6.56 0 -3.81 15.45c0,-0.02 -0.03,-0.1 -0.04,-0.08l-0.32 -0.85c-0.09,-0.34 -0.18,-0.63 -0.27,-0.96l-3.78 -13.57 -6.65 0.02 0 21.56z"/>
    <path class="fil3" d="M140.57 98.02c2.37,-0.11 15.45,0.26 16.4,-0.09l0 -3.72 -12 -0.04 0 -5.57 10.52 -0.01 0.01 -3.82 -10.53 -0.01 -0.02 -4.46c0.23,-0.13 -0.28,-0.04 0.37,-0.13l2.44 0.01c2.28,-0.01 6.81,-0.11 8.65,0.02l-0.02 -3.73 -15.85 -0.03 0.03 21.58z"/>
    <path class="fil3" d="M104.95 81.3l2.64 8.52 -5.45 -0.04 2.81 -8.48zm-10.31 16.7l4.72 0.01c0.25,-0.36 1.35,-3.75 1.55,-4.43l7.95 -0.02 1.41 4.45 4.89 0 -7.58 -21.6 -5.27 -0.01 -7.67 21.6z"/>
    <path class="fil3" d="M90.53 90.6c-0.6,2.81 -2.95,4.89 -6.39,3.82 -4.89,-1.52 -5.15,-12.23 -0.24,-14.31 1.35,-0.57 3.27,-0.44 4.5,0.22 1.31,0.7 1.52,1.6 2.15,3.15l4.47 0c0.16,-2.13 -1.69,-4.84 -3.5,-6.05 -5.41,-3.6 -15.98,-1.72 -15.77,9.95 0.22,12.4 11.25,12.86 15.92,9.33 1.33,-1.01 3.16,-3.6 3.37,-6.12l-4.51 0.01z"/>
    <path class="fil4" d="M140.57 98.02l-0.03 -21.58 15.85 0.03 0.02 3.73c-1.84,-0.13 -6.37,-0.03 -8.65,-0.02l-2.44 -0.01c-0.65,0.09 -0.14,0 -0.37,0.13l11.48 -0.01c0.15,-0.55 0.15,-3.39 0,-3.9l-15.9 -0.03c-0.25,0.79 -0.08,9.27 -0.08,10.8l0.12 10.86z"/>
   </g>
  </g>
 </g>
</svg>
