<?xml version="1.0" encoding="UTF-8"?>
<!DOCTYPE svg PUBLIC "-//W3C//DTD SVG 1.0//EN" "http://www.w3.org/TR/2001/REC-SVG-20010904/DTD/svg10.dtd">
<!-- Creator: CorelDRAW 2017 -->
<svg xmlns="http://www.w3.org/2000/svg" xml:space="preserve" width="474px" height="246px" version="1.0" style="shape-rendering:geometricPrecision; text-rendering:geometricPrecision; image-rendering:optimizeQuality; fill-rule:evenodd; clip-rule:evenodd"
viewBox="0 0 115.6 59.98"
 xmlns:xlink="http://www.w3.org/1999/xlink">
 <defs>
  <style type="text/css">
   <![CDATA[
    .fil0 {fill:white}
    .fil1 {fill:#2B2A29;fill-rule:nonzero}
    .fil2 {fill:#E70012;fill-rule:nonzero}
   ]]>
  </style>
 </defs>
 <g id="Слой_x0020_1">
  <metadata id="CorelCorpID_0Corel-Layer"/>
  <g id="_3062798933488">
   <rect class="fil0" width="115.6" height="59.98"/>
   <g>
    <path class="fil1" d="M41.07 42.23l0 -3.29 1.09 0 0 -0.67 -2.93 0 0 0.67 1.09 0 0 3.29 0.75 0zm4.37 0l0 -0.67 -2.06 0 0 -1.08 1.85 0 0 -0.66 -1.85 0 0 -0.88 1.99 0 0 -0.67 -2.73 0 0 3.96 2.8 0zm2.68 -0.82c-0.14,0.14 -0.31,0.2 -0.51,0.2 -0.27,0 -0.49,-0.1 -0.65,-0.32 -0.17,-0.21 -0.25,-0.56 -0.25,-1.06 0,-0.47 0.08,-0.82 0.25,-1.02 0.17,-0.21 0.39,-0.32 0.67,-0.32 0.19,0 0.36,0.06 0.5,0.18 0.14,0.12 0.23,0.28 0.27,0.48l0.74 -0.18c-0.09,-0.32 -0.21,-0.56 -0.38,-0.73 -0.28,-0.29 -0.65,-0.43 -1.1,-0.43 -0.51,0 -0.93,0.18 -1.25,0.54 -0.31,0.37 -0.47,0.88 -0.47,1.53 0,0.63 0.16,1.12 0.47,1.48 0.32,0.35 0.72,0.53 1.21,0.53 0.39,0 0.72,-0.1 0.98,-0.31 0.25,-0.21 0.44,-0.53 0.55,-0.96l-0.72 -0.25c-0.07,0.29 -0.17,0.5 -0.31,0.64zm2.41 0.82l0 -1.73 1.46 0 0 1.73 0.74 0 0 -3.96 -0.74 0 0 1.56 -1.46 0 0 -1.56 -0.74 0 0 3.96 0.74 0zm3.67 0l0 -2.58 1.48 2.58 0.75 0 0 -3.96 -0.69 0 0 2.64 -1.51 -2.64 -0.72 0 0 3.96 0.69 0zm3.35 -0.47c0.32,0.35 0.76,0.53 1.31,0.53 0.54,0 0.97,-0.18 1.29,-0.54 0.33,-0.36 0.49,-0.86 0.49,-1.49 0,-0.65 -0.17,-1.15 -0.49,-1.51 -0.33,-0.36 -0.76,-0.54 -1.31,-0.54 -0.29,0 -0.56,0.05 -0.79,0.15 -0.17,0.08 -0.33,0.2 -0.48,0.36 -0.14,0.16 -0.25,0.34 -0.34,0.54 -0.11,0.27 -0.16,0.61 -0.16,1.02 0,0.62 0.16,1.12 0.48,1.48zm0.56 -2.53c0.19,-0.23 0.44,-0.34 0.75,-0.34 0.3,0 0.55,0.11 0.73,0.33 0.19,0.23 0.28,0.56 0.28,1.02 0,0.46 -0.1,0.8 -0.29,1.03 -0.19,0.23 -0.43,0.34 -0.72,0.34 -0.3,0 -0.55,-0.11 -0.74,-0.34 -0.19,-0.23 -0.29,-0.57 -0.29,-1.02 0,-0.46 0.09,-0.8 0.28,-1.02zm5.72 3l0 -0.67 -1.85 0 0 -3.25 -0.74 0 0 3.92 2.59 0zm0.87 -0.47c0.32,0.35 0.75,0.53 1.3,0.53 0.54,0 0.98,-0.18 1.3,-0.54 0.32,-0.36 0.48,-0.86 0.48,-1.49 0,-0.65 -0.16,-1.15 -0.49,-1.51 -0.32,-0.36 -0.76,-0.54 -1.3,-0.54 -0.3,0 -0.56,0.05 -0.79,0.15 -0.18,0.08 -0.33,0.2 -0.48,0.36 -0.14,0.16 -0.26,0.34 -0.34,0.54 -0.11,0.27 -0.17,0.61 -0.17,1.02 0,0.62 0.16,1.12 0.49,1.48zm0.56 -2.53c0.18,-0.23 0.43,-0.34 0.74,-0.34 0.31,0 0.55,0.11 0.74,0.33 0.18,0.23 0.27,0.56 0.27,1.02 0,0.46 -0.09,0.8 -0.28,1.03 -0.19,0.23 -0.43,0.34 -0.73,0.34 -0.3,0 -0.54,-0.11 -0.73,-0.34 -0.2,-0.23 -0.29,-0.57 -0.29,-1.02 0,-0.46 0.09,-0.8 0.28,-1.02zm5.67 1.54l0 0.5c-0.11,0.1 -0.25,0.18 -0.4,0.24 -0.16,0.07 -0.32,0.1 -0.47,0.1 -0.32,0 -0.57,-0.11 -0.76,-0.35 -0.2,-0.23 -0.3,-0.59 -0.3,-1.06 0,-0.43 0.1,-0.76 0.29,-0.98 0.19,-0.22 0.45,-0.33 0.77,-0.33 0.22,0 0.4,0.06 0.54,0.17 0.15,0.11 0.24,0.26 0.3,0.46l0.73 -0.15c-0.07,-0.36 -0.23,-0.65 -0.49,-0.86 -0.26,-0.2 -0.62,-0.3 -1.08,-0.3 -0.35,0 -0.64,0.06 -0.88,0.2 -0.31,0.17 -0.54,0.41 -0.7,0.73 -0.16,0.32 -0.24,0.69 -0.24,1.1 0,0.38 0.07,0.73 0.21,1.05 0.15,0.32 0.36,0.57 0.65,0.74 0.28,0.18 0.62,0.26 1.01,0.26 0.3,0 0.6,-0.06 0.89,-0.18 0.3,-0.12 0.52,-0.27 0.68,-0.43l0 -1.57 -1.6 0 0 0.66 0.85 0zm3.15 1.46l0 -1.66 1.35 -2.3 -0.86 0 -0.85 1.57 -0.86 -1.57 -0.87 0 1.34 2.29 0 1.67 0.75 0z"/>
    <path class="fil1" d="M32.19 34.16c-1.47,0.16 -1.51,-1.14 -1.51,-1.14 0.07,-1 1.11,-1.21 1.11,-1.21 0.16,-0.07 3.65,-0.74 3.65,-0.74 -0.93,3.2 -3.25,3.09 -3.25,3.09zm7.27 -9.55c0,0 -5.04,-1.47 -9.34,0.6 0,0 -1.61,0.96 -2.12,2.49l4.5 0.53c0,0 0.82,-1.36 2.22,-1.33 0,0 1.77,-0.14 1.83,0.94 0,0 0.06,0.41 -0.27,0.89 0,0 -3.44,0.48 -5.37,0.6 0,0 -1.95,0.06 -3.61,1.32 0,0 -1.26,0.77 -1.43,2.75 0,0 -0.14,2.34 2.16,3.02 0,0 1.38,0.49 3.18,0.07 0,0 0.83,0.01 3.18,-1.31l-0.01 1.3 4.89 0c0,0 -0.16,-2.04 0.33,-3.2l1.67 -5.16c0,0 0.81,-2.65 -1.81,-3.51z"/>
    <path class="fil1" d="M85.7 34.13c-1.47,0.15 -1.51,-1.15 -1.51,-1.15 0.07,-1 1.11,-1.21 1.11,-1.21 0.16,-0.07 3.65,-0.73 3.65,-0.73 -0.93,3.19 -3.25,3.09 -3.25,3.09zm7.27 -9.55c0,0 -5.04,-1.48 -9.34,0.59 0,0 -1.61,0.97 -2.12,2.49l4.5 0.53c0,0 0.82,-1.35 2.22,-1.32 0,0 1.77,-0.14 1.83,0.94 0,0 0.06,0.41 -0.27,0.88 0,0 -3.44,0.48 -5.37,0.61 0,0 -1.95,0.06 -3.62,1.31 0,0 -1.25,0.77 -1.43,2.75 0,0 -0.13,2.35 2.17,3.02 0,0 1.38,0.5 3.18,0.08 0,0 0.82,0.01 3.18,-1.32l-0.01 1.3 4.89 0c0,0 -0.16,-2.03 0.33,-3.19l1.67 -5.16c0,0 0.81,-2.66 -1.81,-3.51z"/>
    <path class="fil1" d="M49.15 36.66l4.92 0 2.34 -6.71c0,0 0.63,-1.67 1.86,-2.28 0,0 1.59,-0.56 1.72,0.79 0,0 0.17,0.82 -0.67,3.04l-1.7 5.16 4.77 -0.09 3 -8.62c0,0 0.97,-3.41 -2.75,-3.56 0,0 -3.18,-0.34 -5.01,1.72l2.16 -6.1 -4.98 0 -5.66 16.65z"/>
    <path class="fil1" d="M67.77 24.47l4.9 0 -2.41 6.97c0,0 -0.59,1.57 0.74,1.92 0,0 1.09,0.21 2.3,-1.53 0,0 0.6,-0.68 1.32,-2.91l1.7 -4.45 4.9 0 -4.21 11.94 -4.67 0 0.58 -1.63c0,0 -1.99,1.9 -4.67,1.88 0,0 -1.39,0.19 -2.48,-0.56 0,0 -1.56,-0.92 -0.75,-3.27l2.75 -8.36z"/>
    <path class="fil2" d="M38.21 36.91l-0.84 1.49c0,0 -2.26,1.23 -5.19,1.53 0,0 -3.35,0.46 -5.5,-0.33 0,0 -4.19,-1.17 -5.64,-5.52 0,0 -1.86,-5.14 3.17,-10.57 0,0 4.04,-4.04 7.84,-5.06 0,0 3.64,-1.44 7.91,-0.37 0,0 4.33,0.97 6.73,5.94l0.03 0.04 2.08 -5.88 4.91 0.04c0,0 -3.26,9.87 -3.8,11.12 0,0 -1.06,3.72 -4.32,5.19 0,0 -2.11,1.22 -5.77,1.31 0,0 2.07,-0.78 4.07,-3.79 0,0 2.05,-2.25 1.79,-6.35 0,0 0.04,-3.33 -4.38,-5.46 0,0 -5.8,-2.8 -12.64,2.23 0,0 -4.56,3.47 -5.03,7.47 0,0 -1.03,4.28 2.49,6.86 0.02,0.02 0.04,0.03 0.06,0.05 3.59,2.57 7.97,1.78 12.03,0.06z"/>
   </g>
  </g>
 </g>
</svg>
