<?xml version="1.0" encoding="UTF-8"?>
<!DOCTYPE svg PUBLIC "-//W3C//DTD SVG 1.0//EN" "http://www.w3.org/TR/2001/REC-SVG-20010904/DTD/svg10.dtd">
<!-- Creator: CorelDRAW 2017 -->
<svg xmlns="http://www.w3.org/2000/svg" xml:space="preserve" width="474px" height="246px" version="1.0" style="shape-rendering:geometricPrecision; text-rendering:geometricPrecision; image-rendering:optimizeQuality; fill-rule:evenodd; clip-rule:evenodd"
viewBox="0 0 17687.72 9177.47"
 xmlns:xlink="http://www.w3.org/1999/xlink">
 <defs>
  <style type="text/css">
   <![CDATA[
    .fil1 {fill:#777573}
    .fil2 {fill:#D80B17}
    .fil0 {fill:white}
   ]]>
  </style>
 </defs>
 <g id="Слой_x0020_1">
  <metadata id="CorelCorpID_0Corel-Layer"/>
  <g id="_3062409108704">
   <rect class="fil0" x="-0.02" y="-0.01" width="17687.75" height="9177.49"/>
   <g>
    <path class="fil1" d="M9591.22 4758.13c-242.02,-308.45 -45.07,-790.12 398.59,-794.84l901.61 0 -80.67 215.87 -476.91 0 -251.46 0c-121.02,2.39 -187.48,147.13 -121.02,234.93 113.87,168.42 303.69,289.44 424.7,462.67 260.99,341.65 -2.38,790.07 -391.49,790.07l-991.75 0 80.67 -215.92 538.56 0 244.41 0c121.01,-2.34 187.43,-147.08 123.35,-232.5 -99.62,-161.32 -275.19,-313.21 -398.59,-460.28z"/>
    <g>
     <path class="fil2" d="M4257.53 5664.45l-524.36 0 642.99 -1703.54 16.59 0 493.53 0 14.2 0 -642.95 1703.54z"/>
    </g>
    <g>
     <path class="fil1" d="M8680.14 5664.45l-493.54 0 643 -1703.54 493.53 0 -642.99 1703.54z"/>
    </g>
    <g>
     <path class="fil1" d="M11083.61 5664.45l-495.88 0 645.38 -1703.54 493.49 0 -642.99 1703.54z"/>
    </g>
    <g>
     <path class="fil1" d="M12763.47 4122.23l0 0c-182.71,4.76 -334.55,106.77 -401.01,272.85l-327.41 868.4c-9.48,21.35 -11.86,42.74 -11.86,66.46l0 0c0,92.53 73.56,168.42 168.46,175.57l47.46 0c182.66,-4.76 334.55,-106.77 400.96,-272.86l325.07 -868.39c9.49,-21.35 11.87,-42.69 11.87,-66.46l0 0c0,-92.53 -73.56,-168.43 -166.09,-175.57l-47.45 0zm-934.86 355.9c173.23,-355.9 533.85,-543.33 870.78,-531.47l130.5 0 175.56 0c258.61,11.87 415.22,220.64 429.46,391.49 2.38,40.35 2.38,80.66 -2.38,111.53 -4.72,18.97 -9.48,37.93 -11.86,56.94 -54.56,218.25 -135.22,441.32 -242.03,642.99 -173.19,353.52 -536.19,543.33 -870.74,531.47l-130.49 0 -2.38 0 -175.57 0c-258.61,-11.87 -415.21,-220.64 -429.46,-391.49 -2.38,-40.35 -2.38,-80.66 2.38,-111.49 4.77,-19.01 9.48,-37.97 14.25,-56.98 54.55,-220.64 135.26,-443.7 241.98,-642.99z"/>
    </g>
    <g>
     <path class="fil2" d="M2646.51 4618.15l623.99 0 246.75 -654.86 524.36 0 -605.02 1599.15 0 2.39c-23.73,59.31 -83.04,102 -151.84,102l-408.12 0 308.45 -813.8 -626.37 0 -308.44 813.8 -524.37 0 643 -1703.54 524.36 0 -246.75 654.86zm0 0l0 0 0 0z"/>
    </g>
    <g>
     <path class="fil2" d="M5541.14 4601.52l854.16 -640.61 391.48 0 -873.16 654.86 555.19 1048.68 -446.04 0 4.77 0c-68.85,4.76 -130.5,-33.21 -161.37,-90.14l0 -2.38 0 0 -348.75 -657.2 -130.5 97.24 -249.13 652.48 -524.36 0 642.95 -1703.54 524.36 0 -239.6 640.61zm0 0l0 0 0 0z"/>
    </g>
    <g>
     <path class="fil1" d="M7536.5 5132.99l804.37 -1172.08 289.43 0 -1122.24 1632.36 0 0c-28.49,42.73 -78.33,71.18 -132.88,71.18l-11.86 0 -4.77 0 0 0 -16.58 0 -170.85 0 -85.42 0 -137.6 -1703.54 493.5 0 94.9 1172.08zm0 0l0 0 0 0z"/>
    </g>
    <g>
     <path class="fil1" d="M13954.51 4511.34l-2.38 -21.35 -446.04 1174.46 -253.89 0 645.38 -1703.54 253.89 0 68.79 0 465.05 1150.73 436.56 -1150.73 253.85 0 -645.34 1703.54 -232.54 0c-64.04,-2.34 -118.63,-42.69 -144.7,-99.62l-398.63 -1053.49zm0 0l0 0 0 0z"/>
    </g>
    <g>
     <path class="fil1" d="M15698.41 3695.15l0 -80.66 68.79 0c28.49,0 59.36,4.77 59.36,37.97 0,47.46 -47.45,40.31 -83.04,40.31l-45.11 2.38zm0 28.49l52.21 0 68.8 109.15 35.59 0 -73.56 -109.15c42.73,-2.38 75.94,-21.39 75.94,-68.79 0,-45.12 -21.34,-68.85 -85.42,-68.85l-104.39 0 0 246.79 30.83 0 0 -109.15zm49.83 168.47c-104.39,0 -182.71,-75.94 -182.71,-182.71 0,-104.39 75.94,-180.33 182.71,-180.33 104.39,0 180.33,75.94 180.33,180.33 0,109.15 -75.94,182.71 -180.33,182.71l0 0zm0 35.59c118.63,0 213.54,-97.29 213.54,-215.92 0,-118.63 -97.29,-215.92 -213.54,-215.92 -118.63,0 -215.92,97.29 -215.92,215.92 0,118.63 97.29,215.92 215.92,215.92z"/>
    </g>
   </g>
  </g>
 </g>
</svg>
