<?xml version="1.0" encoding="UTF-8"?>
<!DOCTYPE svg PUBLIC "-//W3C//DTD SVG 1.0//EN" "http://www.w3.org/TR/2001/REC-SVG-20010904/DTD/svg10.dtd">
<!-- Creator: CorelDRAW 2017 -->
<svg xmlns="http://www.w3.org/2000/svg" xml:space="preserve" width="474px" height="246px" version="1.0" style="shape-rendering:geometricPrecision; text-rendering:geometricPrecision; image-rendering:optimizeQuality; fill-rule:evenodd; clip-rule:evenodd"
viewBox="0 0 226.75 117.65"
 xmlns:xlink="http://www.w3.org/1999/xlink">
 <defs>
  <style type="text/css">
   <![CDATA[
    .fil1 {fill:#716F6D}
    .fil3 {fill:#71706D}
    .fil4 {fill:#71706E}
    .fil5 {fill:#726F6D}
    .fil6 {fill:#CE051C}
    .fil2 {fill:#CF051D}
    .fil0 {fill:white}
   ]]>
  </style>
 </defs>
 <g id="Слой_x0020_1">
  <metadata id="CorelCorpID_0Corel-Layer"/>
  <g id="_3062724479920">
   <rect class="fil0" width="226.75" height="117.65"/>
   <g>
    <path class="fil1" d="M83.76 73.85l4.76 0 2.26 -9.65c0.49,-2.28 2.17,-7.9 2.21,-9.7 0.98,0.72 2.41,8.18 2.74,9.47 0.37,1.49 0.78,3.15 1.19,4.75 0.34,1.33 1,3.6 1.13,5.13l4.76 0 7.48 -26.16c0.31,-1.01 0.73,-3.02 1.15,-3.9l-5.95 0c-0.12,1.48 -0.85,3.59 -1.16,5.09 -0.35,1.64 -0.84,3.54 -1.32,5.22 -0.41,1.41 -1.88,9.19 -2.88,9.93 -0.03,-1.53 -4.31,-18.32 -4.76,-20.24l-4.17 0 -5.06 20.53 -5.06 -20.53 -5.95 0c1.89,8.09 6.59,21.29 8.63,30.06z"/>
    <path class="fil2" d="M40.61 73.85l5.65 0 0 -12.5 10.72 0 0 12.5 5.65 0 0 -30.06 -5.65 0 0 12.2 -10.72 0 0 -12.2 -5.65 0 0 30.06z"/>
    <path class="fil3" d="M120.07 69.09c-1.73,0 -3.36,-0.81 -4.4,-1.85 -3.12,-3.14 -2.98,-11.55 5,-11.55 7.41,0 7.64,13.4 -0.6,13.4zm-11.6 -7.74c0,3.86 0.32,6.33 3.18,9.31 2.9,3 7.32,4.08 11.54,2.44 1.4,-0.55 2.06,-1.22 3.13,-1.93l0 2.68 5.06 0 0 -22.32 -5.06 0 0 2.08c-1.62,-1.09 -3.14,-2.98 -7.14,-2.98 -5.49,0 -10.71,5.19 -10.71,10.72z"/>
    <path class="fil4" d="M166.8 73.85l5.36 0 0 -12.5c0,-4.84 2.13,-5.66 5.06,-5.66 2.6,0 3.57,3.21 3.57,5.95l0 12.21 5.35 0 0 -13.1c0,-3.14 -0.78,-5.34 -2.07,-7.15 -0.61,-0.86 -1.6,-1.54 -2.56,-2.21 -1.7,-1.18 -3.08,-1.05 -5.19,-1.05 -1.94,0 -2.98,0.99 -4.16,1.78l0 -8.33 -5.36 0 0 30.06z"/>
    <path class="fil1" d="M143.29 61.05l0 2.08c0,11.76 17.68,14.81 21.9,3.98 0.64,-1.63 0.59,-1.3 -4.34,-1.3 -1.97,0 -2.8,3.28 -5.66,3.28 -8.31,0 -9.22,-13.4 0,-13.4 2.44,0 3.62,1.37 4.47,2.98l5.95 0c-0.56,-2.39 -1.94,-4.22 -3.69,-5.54 -8.82,-6.67 -18.63,1.27 -18.63,7.92z"/>
    <path class="fil5" d="M134.95 51.53l-2.38 0 0 4.76 2.38 0 0 17.56 5.36 0 0 -17.56 2.98 0 0 -4.76 -2.98 0 0 -7.74 -5.36 0 0 7.74z"/>
    <path class="fil6" d="M66.5 52.12l0 21.73 5.66 0 0 -22.62 -4.77 0c-0.68,0 -0.89,0.21 -0.89,0.89z"/>
    <path class="fil6" d="M66.5 48.85l5.66 0 0 -5.06 -5.66 0 0 5.06z"/>
   </g>
  </g>
 </g>
</svg>
