<?xml version="1.0" encoding="UTF-8"?>
<!DOCTYPE svg PUBLIC "-//W3C//DTD SVG 1.0//EN" "http://www.w3.org/TR/2001/REC-SVG-20010904/DTD/svg10.dtd">
<!-- Creator: CorelDRAW 2017 -->
<svg xmlns="http://www.w3.org/2000/svg" xml:space="preserve" width="474px" height="246px" version="1.0" style="shape-rendering:geometricPrecision; text-rendering:geometricPrecision; image-rendering:optimizeQuality; fill-rule:evenodd; clip-rule:evenodd"
viewBox="0 0 226.75 117.65"
 xmlns:xlink="http://www.w3.org/1999/xlink">
 <defs>
  <style type="text/css">
   <![CDATA[
    .fil1 {fill:#3131E0}
    .fil0 {fill:white}
    .fil2 {fill:#3131E0;fill-rule:nonzero}
    .fil3 {fill:white;fill-rule:nonzero}
   ]]>
  </style>
 </defs>
 <g id="Слой_x0020_1">
  <metadata id="CorelCorpID_0Corel-Layer"/>
  <g id="_1561358474768">
   <rect class="fil0" width="226.75" height="117.65"/>
   <rect class="fil1" x="30.33" y="32.3" width="53.05" height="53.05"/>
   <path class="fil2" d="M97.09 84.56l0 -33.61 9.31 0 6.34 11.04c1.03,1.8 2.01,3.58 2.94,5.34 0.93,1.76 1.81,3.51 2.63,5.22 -0.13,-2.54 -0.21,-4.91 -0.28,-7.13 -0.06,-2.22 -0.09,-4.18 -0.09,-5.87l0 -8.6 8.32 0 0 33.61 -9.29 0 -6.6 -11.36c-0.78,-1.34 -1.62,-2.84 -2.53,-4.51 -0.92,-1.67 -1.89,-3.47 -2.9,-5.4 0.16,2.2 0.29,4.23 0.36,6.12 0.07,1.88 0.11,3.56 0.11,5.02l0 10.13 -8.32 0zm35.35 -27.06l0 -6.55 8.08 0 0 6.55 -8.08 0zm0 27.06l0 -24.82 8.08 0 0 24.82 -8.08 0zm36.78 -9.21c-0.41,3.15 -1.68,5.61 -3.79,7.36 -2.13,1.76 -4.9,2.64 -8.32,2.64 -3.69,0 -6.66,-1.18 -8.92,-3.55 -2.25,-2.36 -3.37,-5.49 -3.37,-9.39 0,-4.2 1.14,-7.51 3.42,-9.93 2.28,-2.42 5.38,-3.63 9.3,-3.63 3.41,0 6.15,0.86 8.23,2.57 2.07,1.71 3.24,4.08 3.5,7.11l-8.18 0c-0.23,-1.16 -0.65,-2.02 -1.26,-2.6 -0.6,-0.57 -1.39,-0.86 -2.35,-0.86 -1.4,0 -2.46,0.6 -3.19,1.81 -0.74,1.19 -1.1,2.96 -1.1,5.29 0,2.28 0.34,3.98 1.03,5.1 0.7,1.12 1.76,1.68 3.17,1.68 1.06,0 1.91,-0.3 2.54,-0.9 0.63,-0.59 1.07,-1.49 1.3,-2.7l7.99 0zm10.72 -5.84l9.24 -0.03c-0.03,-1.58 -0.45,-2.83 -1.27,-3.73 -0.81,-0.89 -1.92,-1.34 -3.34,-1.34 -1.34,0 -2.4,0.44 -3.21,1.32 -0.8,0.88 -1.27,2.14 -1.42,3.78zm8.83 7.24l7.81 0c-0.74,2.72 -2.17,4.83 -4.3,6.32 -2.14,1.49 -4.79,2.24 -7.96,2.24 -3.85,0 -6.88,-1.17 -9.12,-3.51 -2.23,-2.34 -3.36,-5.51 -3.36,-9.55 0,-4.11 1.13,-7.36 3.38,-9.76 2.26,-2.39 5.29,-3.59 9.1,-3.59 3.94,0 7.04,1.21 9.29,3.65 2.25,2.44 3.38,5.8 3.38,10.1 0,0.39 0,0.7 -0.01,0.9 -0.01,0.2 -0.02,0.38 -0.04,0.54l-16.78 0c0,1.74 0.38,3.08 1.13,3.99 0.76,0.92 1.86,1.38 3.33,1.38 1.07,0 1.97,-0.22 2.67,-0.68 0.7,-0.45 1.19,-1.13 1.48,-2.03z"/>
   <path class="fil3" d="M49.03 79l0 -10.85 3.01 0 2.04 3.57c0.34,0.58 0.66,1.15 0.96,1.72 0.29,0.57 0.58,1.13 0.84,1.69 -0.04,-0.82 -0.07,-1.59 -0.09,-2.31 -0.02,-0.71 -0.03,-1.34 -0.03,-1.89l0 -2.78 2.69 0 0 10.85 -3 0 -2.13 -3.66c-0.25,-0.44 -0.52,-0.92 -0.82,-1.46 -0.29,-0.54 -0.61,-1.12 -0.93,-1.74 0.05,0.71 0.09,1.36 0.11,1.97 0.03,0.61 0.04,1.15 0.04,1.62l0 3.27 -2.69 0zm11.42 -8.73l0 -2.12 2.61 0 0 2.12 -2.61 0zm0 8.73l0 -8.01 2.61 0 0 8.01 -2.61 0zm11.87 -2.97c-0.13,1.02 -0.54,1.81 -1.22,2.38 -0.69,0.57 -1.58,0.85 -2.69,0.85 -1.19,0 -2.15,-0.38 -2.88,-1.15 -0.72,-0.76 -1.09,-1.77 -1.09,-3.03 0,-1.36 0.37,-2.43 1.11,-3.21 0.74,-0.78 1.74,-1.17 3,-1.17 1.1,0 1.99,0.28 2.66,0.83 0.67,0.55 1.04,1.32 1.13,2.3l-2.64 0c-0.08,-0.38 -0.21,-0.65 -0.41,-0.84 -0.2,-0.19 -0.45,-0.28 -0.76,-0.28 -0.45,0 -0.79,0.19 -1.03,0.58 -0.24,0.39 -0.35,0.96 -0.35,1.71 0,0.74 0.11,1.29 0.33,1.65 0.22,0.36 0.57,0.54 1.02,0.54 0.35,0 0.62,-0.09 0.82,-0.29 0.21,-0.19 0.35,-0.48 0.42,-0.87l2.58 0zm3.46 -1.89l2.99 0c-0.01,-0.52 -0.15,-0.92 -0.41,-1.21 -0.26,-0.29 -0.62,-0.43 -1.08,-0.43 -0.43,0 -0.78,0.14 -1.04,0.42 -0.26,0.29 -0.41,0.7 -0.46,1.22zm2.85 2.34l2.52 0c-0.23,0.88 -0.69,1.56 -1.38,2.04 -0.69,0.48 -1.55,0.72 -2.57,0.72 -1.24,0 -2.22,-0.37 -2.95,-1.13 -0.72,-0.75 -1.08,-1.78 -1.08,-3.08 0,-1.33 0.36,-2.38 1.09,-3.15 0.73,-0.77 1.71,-1.16 2.94,-1.16 1.27,0 2.27,0.39 3,1.18 0.72,0.78 1.09,1.87 1.09,3.26 0,0.13 0,0.22 0,0.29 -0.01,0.06 -0.01,0.12 -0.02,0.17l-5.41 0c0,0.57 0.12,1 0.36,1.29 0.24,0.3 0.6,0.45 1.07,0.45 0.35,0 0.64,-0.07 0.87,-0.22 0.22,-0.15 0.38,-0.37 0.47,-0.66z"/>
  </g>
 </g>
</svg>
